<svg xmlns="http://www.w3.org/2000/svg" width="399.686" height="292.466" viewBox="0 0 399.686 292.466">
  <g id="Group_542" data-name="Group 542" transform="translate(463.474 66.185) rotate(146)">
    <g id="Group_482" data-name="Group 482" transform="translate(9.782 5.135)">
      <path id="Path_85087" data-name="Path 85087" d="M277.391,127.177c-7.462-.035-14.905-.287-22.123-.748l.806-7.036c6.965.448,14.155.685,21.373.72Zm22.1-.511-.637-7.05c6.993-.35,14.174-.888,21.355-1.6l1.256,7C314.082,125.75,306.686,126.3,299.5,126.666Zm-66.219-2.357c-7.237-.944-14.521-2.133-21.655-3.532l2.409-6.833c6.871,1.357,13.893,2.5,20.876,3.406Zm109.95-1.958-1.809-6.938q10.546-1.521,21.017-3.476l2.287,6.861Q354.007,120.781,343.227,122.351ZM190.445,115.9c-6.909-1.825-13.827-3.9-20.567-6.162l3.881-6.441c6.515,2.182,13.19,4.182,19.845,5.945Zm195.481-1.406-2.69-6.77q10.349-2.287,20.586-4.875l3.037,6.693Q396.439,112.161,385.926,114.49Zm41.594-10.442L424.2,97.439q10.152-2.833,20.183-5.861l3.544,6.553Q437.789,101.184,427.52,104.048Zm-277.458-1.692c-6.431-2.63-12.815-5.5-18.974-8.518l5.212-5.9c5.943,2.916,12.1,5.686,18.327,8.239Zm318.058-10.5-3.722-6.49q9.969-3.189,19.911-6.476l3.825,6.469Q478.15,88.644,468.12,91.858Zm-355.03-7.644c-5.8-3.364-11.5-6.945-16.939-10.652l6.393-5.217c5.25,3.581,10.743,7.043,16.349,10.295Zm394.955-5.49-3.872-6.441,19.864-6.658,3.872,6.441Z" transform="translate(-55.453 -18.43)" fill="#fff"/>
    </g>
    <g id="Group_483" data-name="Group 483" transform="translate(37.859 57.944) rotate(-30)">
      <path id="Path_85088" data-name="Path 85088" d="M54.054,59.066l6.894,1.567,7.683-33.97,33.322,10.146,2.053-6.766L63.421,17.7Z" transform="translate(-54.054 -17.696)" fill="#fff"/>
    </g>
  </g>
</svg>
