<svg xmlns="http://www.w3.org/2000/svg" width="23.408" height="18" viewBox="0 0 23.408 18">
  <g id="_x31_6_Arrow_Left" transform="translate(-6.01 -63.769)">
    <g id="Group_290" data-name="Group 290" transform="translate(6.01 63.769)">
      <path id="Path_981" data-name="Path 981" d="M8.292,76.348h7.551l-.775,2.442a2.282,2.282,0,0,0,3.456,2.579l9.893-6.712a2.282,2.282,0,0,0,0-3.777l-9.893-6.712a2.282,2.282,0,0,0-3.456,2.579l.775,2.442H8.292A2.285,2.285,0,0,0,6.01,71.471v2.595A2.285,2.285,0,0,0,8.292,76.348ZM7.125,71.471A1.169,1.169,0,0,1,8.292,70.3H16.6a.557.557,0,0,0,.531-.726L16.13,66.41A1.168,1.168,0,0,1,17.9,65.091L27.792,71.8a1.168,1.168,0,0,1,0,1.933L17.9,80.447a1.168,1.168,0,0,1-1.768-1.319l1.005-3.168a.557.557,0,0,0-.531-.726H8.292a1.169,1.169,0,0,1-1.168-1.167V71.471Z" transform="translate(-6.01 -63.769)" fill="#fff"/>
    </g>
  </g>
</svg>
