<svg xmlns="http://www.w3.org/2000/svg" width="23.973" height="24" viewBox="0 0 23.973 24">
  <g id="attach-paperclip-symbol" transform="translate(-0.344 -0.001)">
    <g id="_x34__17_" transform="translate(0.343 0.001)">
      <g id="Group_355" data-name="Group 355" transform="translate(0 0)">
        <path id="Path_1062" data-name="Path 1062" d="M23.1,8.737,10.9,20.8a5.216,5.216,0,0,1-7.319,0,5.078,5.078,0,0,1,0-7.238L14.559,2.705a3.478,3.478,0,0,1,4.879,0,3.385,3.385,0,0,1,0,4.825L8.46,18.386a1.739,1.739,0,0,1-2.44,0,1.693,1.693,0,0,1,0-2.413l9.758-9.649-1.22-1.206L4.8,14.768a3.385,3.385,0,0,0,0,4.825,3.478,3.478,0,0,0,4.879,0L20.658,8.737a5.078,5.078,0,0,0,0-7.238,5.216,5.216,0,0,0-7.319,0L1.751,12.958,1.793,13a6.765,6.765,0,0,0,.568,9,6.954,6.954,0,0,0,9.106.561l.042.042L24.317,9.944Z" transform="translate(-0.343 -0.001)" fill="#686868"/>
      </g>
    </g>
  </g>
</svg>
