<svg xmlns="http://www.w3.org/2000/svg" width="55" height="55" viewBox="0 0 55 55">
  <g id="Group_296" data-name="Group 296" transform="translate(-744 -557)">
    <rect id="Rectangle_89" data-name="Rectangle 89" width="55" height="55" rx="12" transform="translate(744 557)" fill="#bef2d5"/>
    <g id="Group_295" data-name="Group 295" transform="translate(-975.893 -391.441)">
      <path id="Path_287" data-name="Path 287" d="M1774.241,1078.862c-1.561,3.265,2.629,8.013.3,9.827a18.383,18.383,0,0,0,9.176,2.235,17.638,17.638,0,0,0,10.009-4.1c-2.2-2.234.131-3.3-1.123-7.636" transform="translate(-36.007 -103.846)" fill="#261513"/>
      <path id="Path_288" data-name="Path 288" d="M1808.944,1119.1l-.483,6.286-3.728,3.2-3.352-2.234-3.729-6.537s2.216-1.4,2.266-2.017a14.861,14.861,0,0,0,.252-3.036c-.217-2.033,7.676-2.17,7.329-.061a15.188,15.188,0,0,0,.176,3.221C1807.738,1118.569,1808.944,1119.1,1808.944,1119.1Z" transform="translate(-56.391 -133.268)" fill="#d59666"/>
      <path id="Path_289" data-name="Path 289" d="M1799.217,989.486a40.547,40.547,0,0,1-.916,6.089,8.277,8.277,0,0,1-.675,2.214c-.809,1.472-4.384,5.307-5.719,5.544a7.658,7.658,0,0,1-2.983-.256,16.442,16.442,0,0,1-4.985-5.288,11.272,11.272,0,0,1-.725-2.2,42.415,42.415,0,0,1-.907-6.1c-.531-6.516,3.786-9.4,8.456-9.4S1799.744,982.969,1799.217,989.486Z" transform="translate(-43.193 -19.14)" fill="#dfa577"/>
      <path id="Path_290" data-name="Path 290" d="M1893.681,1052.005a9.727,9.727,0,0,1-1.019,2.457,2.61,2.61,0,0,1-1.549.888c-.42-.04-.26-1.173-.415-1.559a6.4,6.4,0,0,1-.2-2.083c.035-1.436.906-1.992,1.784-1.911S1893.914,1050.587,1893.681,1052.005Z" transform="translate(-136.006 -78.915)" fill="#dfa577"/>
      <path id="Path_291" data-name="Path 291" d="M1770.983,1052.005a9.727,9.727,0,0,0,1.018,2.457,2.615,2.615,0,0,0,1.549.888c.421-.04.261-1.173.416-1.559a6.428,6.428,0,0,0,.2-2.083c-.034-1.436-.9-1.992-1.784-1.911S1770.749,1050.587,1770.983,1052.005Z" transform="translate(-33.484 -78.915)" fill="#dfa577"/>
      <path id="Path_292" data-name="Path 292" d="M1787.36,1041a1.462,1.462,0,0,1,.733-.922c1.327-.6,3.845.046,4.162.2.847.406.951.849.951.849l-.092.719a3.865,3.865,0,0,0-1.062-.762,7.116,7.116,0,0,0-3.764-.6A2,2,0,0,0,1787.36,1041Z" transform="translate(-47.565 -70.374)" fill="#261513"/>
      <path id="Path_293" data-name="Path 293" d="M1859.545,1041a1.464,1.464,0,0,0-.732-.922c-1.328-.6-3.846.046-4.162.2-.849.406-.951.849-.951.849l.091.719a3.888,3.888,0,0,1,1.062-.762,7.123,7.123,0,0,1,3.765-.6A1.988,1.988,0,0,1,1859.545,1041Z" transform="translate(-104.453 -70.374)" fill="#261513"/>
      <path id="Path_294" data-name="Path 294" d="M1773.021,970.875s-.02,1.916.3,1.89.371-1.143-.145-3.051,1.46-.71,4.957-1.951c3.821-1.357,5.067-5.71,7.048-3.448,2.56.21,3.6,1.618,4.057,4.33s-.456,4.581,0,4.571.226-1.9.784-2.174a.791.791,0,0,1,.909.068s1.188-5.91-.658-9.39c-1.377-2.6-5.446-3.956-9.681-3.956-3.569,0-7.254,3.552-8.211,5.528-1.375,2.84-.846,8.5-.493,8.02A1.457,1.457,0,0,1,1773.021,970.875Z" transform="translate(-33.95 0)" fill="#261513"/>
      <path id="Path_295" data-name="Path 295" d="M1763.033,1171.232c-.583-6.235-1.43-13.26-2.362-14.364-.8-.948-3.6-1.945-5.412-2.721-2.1-.9-2.843-.7-2.843-.7s-1.01,5.844-4.953,6.963c-3.941-1.119-4.952-6.963-4.952-6.963s-.741-.206-2.844.7c-1.811.776-4.613,1.773-5.411,2.721-.933,1.1-1.78,8.13-2.363,14.364Z" transform="translate(0 -167.791)" fill="#dbd9d1"/>
      <path id="Path_296" data-name="Path 296" d="M1782.828,1081.456a.279.279,0,1,1-.28-.279A.28.28,0,0,1,1782.828,1081.456Z" transform="translate(-43.2 -105.831)" fill="#fff"/>
      <path id="Path_297" data-name="Path 297" d="M1895.284,1081.456a.279.279,0,1,1-.28-.279A.28.28,0,0,1,1895.284,1081.456Z" transform="translate(-139.634 -105.831)" fill="#fff"/>
      <rect id="Rectangle_83" data-name="Rectangle 83" width="1.631" height="7.726" transform="translate(1746.907 993.151)" fill="#ccc8b7"/>
      <path id="Path_298" data-name="Path 298" d="M1852.393,1221.854a.524.524,0,1,1-.524-.524A.524.524,0,0,1,1852.393,1221.854Z" transform="translate(-102.433 -226.016)" fill="#272228"/>
      <path id="Path_299" data-name="Path 299" d="M1852.393,1241.929a.524.524,0,1,1-.524-.525A.524.524,0,0,1,1852.393,1241.929Z" transform="translate(-102.433 -243.231)" fill="#272228"/>
      <path id="Path_300" data-name="Path 300" d="M1805.182,1153.744a3.621,3.621,0,0,0-1.786-.292s-2.723,6.963-4.953,6.963-4.952-6.963-4.952-6.963a4.165,4.165,0,0,0-2.147.418c.589,4,5.816,7.848,7.081,7.848S1804.966,1157.747,1805.182,1153.744Z" transform="translate(-50.981 -167.792)" fill="#00a8c5"/>
      <g id="Group_96" data-name="Group 96" transform="translate(1740.721 971.264)">
        <path id="Path_301" data-name="Path 301" d="M1795.509,1053.02a1.888,1.888,0,0,0,.548.944,6.182,6.182,0,0,0,2.676.446c.332-.149.765-.86.765-.86a2.5,2.5,0,0,0-1.658-1.021A9.254,9.254,0,0,0,1795.509,1053.02Z" transform="translate(-1795.274 -1052.528)" fill="#fff"/>
        <path id="Path_302" data-name="Path 302" d="M1796.423,1052.728a7.33,7.33,0,0,0-1.958.447c-.106.032-.136.346.04.647a3.374,3.374,0,0,1-.648-1.031,1.662,1.662,0,0,0,.6.112,7.326,7.326,0,0,1,1.968-.375,2.5,2.5,0,0,1,1.658,1.021.375.375,0,0,1-.106.164A2.241,2.241,0,0,0,1796.423,1052.728Z" transform="translate(-1793.856 -1052.528)" fill="#341e13"/>
        <path id="Path_303" data-name="Path 303" d="M1804.779,1053.457a.928.928,0,1,0,.929-.929A.928.928,0,0,0,1804.779,1053.457Z" transform="translate(-1803.223 -1052.528)" fill="#341e13"/>
        <path id="Path_304" data-name="Path 304" d="M1805.712,1054.774c0,.393,1.1-.712.711-.712A.711.711,0,0,0,1805.712,1054.774Z" transform="translate(-1804.023 -1053.843)" fill="#fff"/>
      </g>
      <path id="Path_305" data-name="Path 305" d="M1837.466,1066.05l-.834-.66.864-2.119Z" transform="translate(-89.817 -90.476)" fill="#da895d"/>
      <g id="Group_97" data-name="Group 97" transform="translate(1745.302 977.929)">
        <path id="Path_306" data-name="Path 306" d="M1828.357,1101.66a2.735,2.735,0,0,1-2.345-1.793.931.931,0,0,0,.49.009c.448-.148,1.04-.516,1.191-.557.225-.063.666.251.666.251s.385-.308.57-.251c.125.038.7.328,1.186.477a2.442,2.442,0,0,0,.591.071S1829.935,1101.66,1828.357,1101.66Z" transform="translate(-1826.012 -1099.311)" fill="#cc3446"/>
        <path id="Path_307" data-name="Path 307" d="M1829.719,1104.728a2.955,2.955,0,0,1-2.095-.761,13.359,13.359,0,0,0,2.117.168,12.771,12.771,0,0,0,2.179-.194A3.535,3.535,0,0,1,1829.719,1104.728Z" transform="translate(-1827.394 -1103.28)" fill="#fff"/>
      </g>
      <path id="Path_308" data-name="Path 308" d="M1798.444,1071.9c0,.811-1.027,1.469-2.294,1.469s-2.294-.657-2.294-1.469,1.028-1.47,2.294-1.47S1798.444,1071.091,1798.444,1071.9Z" transform="translate(-53.135 -96.619)" fill="#eb6c60" opacity="0.2"/>
      <g id="Group_98" data-name="Group 98" transform="translate(1749.98 971.264)">
        <path id="Path_309" data-name="Path 309" d="M1862.836,1053.02a1.87,1.87,0,0,1-.547.944,6.19,6.19,0,0,1-2.677.446c-.333-.149-.766-.86-.766-.86a2.5,2.5,0,0,1,1.658-1.021A9.266,9.266,0,0,1,1862.836,1053.02Z" transform="translate(-1858.847 -1052.528)" fill="#fff"/>
        <path id="Path_310" data-name="Path 310" d="M1860.5,1052.728a7.351,7.351,0,0,1,1.959.447c.1.032.135.346-.041.647a3.371,3.371,0,0,0,.648-1.031,1.662,1.662,0,0,1-.6.112,7.322,7.322,0,0,0-1.968-.375,2.5,2.5,0,0,0-1.658,1.021.377.377,0,0,0,.106.164A2.236,2.236,0,0,1,1860.5,1052.728Z" transform="translate(-1858.847 -1052.528)" fill="#341e13"/>
        <path id="Path_311" data-name="Path 311" d="M1866.4,1053.457a.928.928,0,1,1-.929-.929A.929.929,0,0,1,1866.4,1053.457Z" transform="translate(-1863.73 -1052.528)" fill="#341e13"/>
        <path id="Path_312" data-name="Path 312" d="M1871.854,1054.774c0,.393-1.1-.712-.711-.712A.711.711,0,0,1,1871.854,1054.774Z" transform="translate(-1869.319 -1053.843)" fill="#fff"/>
      </g>
      <path id="Path_313" data-name="Path 313" d="M1856.294,1071.9c0,.811,1.027,1.469,2.294,1.469s2.294-.657,2.294-1.469-1.027-1.47-2.294-1.47S1856.294,1071.091,1856.294,1071.9Z" transform="translate(-106.678 -96.619)" fill="#eb6c60" opacity="0.2"/>
    </g>
  </g>
</svg>
