<svg id="booking" xmlns="http://www.w3.org/2000/svg" width="20" height="20" viewBox="0 0 20 20">
  <path id="Path_964" data-name="Path 964" d="M17.845,1.255H16.234V.586a.586.586,0,0,0-1.172,0v.669H12.469V.586a.586.586,0,0,0-1.172,0v.669H8.7V.586a.586.586,0,0,0-1.172,0v.669H4.938V.586a.586.586,0,1,0-1.172,0v.669H2.155A2.157,2.157,0,0,0,0,3.41V17.845A2.157,2.157,0,0,0,2.155,20h15.69A2.157,2.157,0,0,0,20,17.845V3.41a2.157,2.157,0,0,0-2.155-2.155ZM2.155,2.427H3.766V3.1a.586.586,0,0,0,1.172,0V2.427H7.531V3.1A.586.586,0,1,0,8.7,3.1V2.427H11.3V3.1a.586.586,0,0,0,1.172,0V2.427h2.594V3.1a.586.586,0,0,0,1.172,0V2.427h1.611a.984.984,0,0,1,.983.983V5.021H1.172V3.41a.984.984,0,0,1,.983-.983Zm15.69,16.4H2.155a.984.984,0,0,1-.983-.983V6.193H18.828V17.845A.984.984,0,0,1,17.845,18.828Z" fill="#01d866"/>
  <path id="Path_965" data-name="Path 965" d="M75.4,208.867h-2.51a.586.586,0,0,0-.586.586v2.51a.586.586,0,0,0,.586.586H75.4a.586.586,0,0,0,.586-.586v-2.51A.586.586,0,0,0,75.4,208.867Zm-.586,2.51H73.471v-1.339h1.339Z" transform="translate(-69.475 -200.708)" fill="#01d866"/>
  <path id="Path_966" data-name="Path 966" d="M348.529,208.867h-2.51a.586.586,0,0,0-.586.586v2.51a.586.586,0,0,0,.586.586h2.51a.586.586,0,0,0,.586-.586v-2.51A.586.586,0,0,0,348.529,208.867Zm-.586,2.51H346.6v-1.339h1.339Z" transform="translate(-331.94 -200.708)" fill="#01d866"/>
  <path id="Path_967" data-name="Path 967" d="M75.4,337.4h-2.51a.586.586,0,0,0-.586.586v2.51a.586.586,0,0,0,.586.586H75.4a.586.586,0,0,0,.586-.586v-2.51A.586.586,0,0,0,75.4,337.4Zm-.586,2.51H73.471v-1.339h1.339Z" transform="translate(-69.475 -324.22)" fill="#01d866"/>
  <path id="Path_968" data-name="Path 968" d="M348.529,337.4h-2.51a.586.586,0,0,0-.586.586v2.51a.586.586,0,0,0,.586.586h2.51a.586.586,0,0,0,.586-.586v-2.51A.586.586,0,0,0,348.529,337.4Zm-.586,2.51H346.6v-1.339h1.339Z" transform="translate(-331.94 -324.22)" fill="#01d866"/>
  <path id="Path_969" data-name="Path 969" d="M211.961,337.4h-2.51a.586.586,0,0,0-.586.586v2.51a.586.586,0,0,0,.586.586h2.51a.586.586,0,0,0,.586-.586v-2.51A.586.586,0,0,0,211.961,337.4Zm-.586,2.51h-1.339v-1.339h1.339Z" transform="translate(-200.706 -324.22)" fill="#01d866"/>
  <path id="Path_970" data-name="Path 970" d="M209.753,218.451l-1.361,1.361-.473-.473a.586.586,0,1,0-.829.829l.888.888a.586.586,0,0,0,.829,0l1.775-1.775a.586.586,0,0,0-.829-.829Z" transform="translate(-198.836 -209.753)" fill="#01d866"/>
</svg>
