<svg xmlns="http://www.w3.org/2000/svg" xmlns:xlink="http://www.w3.org/1999/xlink" width="55" height="55" viewBox="0 0 55 55">
  <defs>
    <clipPath id="clip-path">
      <rect id="Rectangle_90" data-name="Rectangle 90" width="55" height="55" rx="12" fill="#bef2d6"/>
    </clipPath>
  </defs>
  <g id="Group_294" data-name="Group 294" transform="translate(-49 -262)">
    <rect id="Rectangle_89" data-name="Rectangle 89" width="55" height="55" rx="12" transform="translate(49 262)" fill="#bef2d5"/>
    <g id="Mask_Group_13" data-name="Mask Group 13" transform="translate(49 262)" clip-path="url(#clip-path)">
      <g id="Group_107" data-name="Group 107" transform="translate(7.857 9.167)">
        <path id="Path_348" data-name="Path 348" d="M230.2,1366.9c-2.9,3.445-6.576,4.587-8.016,4.58a12.4,12.4,0,0,1-8.4-4.645c-1.674-2.045-2.352-6.062-2.783-8.865-.247-1.611-.461-6.631.215-8.568a4.316,4.316,0,0,1-1.029-4.476s.83,2.129,5.861.936c1.491-.354,4.148-.714,5.815-1,2.454-.424,5.045-.05,5.391,1.345a5.087,5.087,0,0,1,4.956,2.649,12.032,12.032,0,0,1,1.11,6.86C232.963,1358.943,231.943,1364.831,230.2,1366.9Z" transform="translate(-203.025 -1344.692)" fill="#241412"/>
        <path id="Path_349" data-name="Path 349" d="M214.372,1442.673s.354-2.674-1.969-2.03c-1.787.5.028,5.464,1.2,5.892,1,.368,1.226-.4,1.226-.4Z" transform="translate(-204.489 -1427.067)" fill="#f9ab78"/>
        <path id="Path_350" data-name="Path 350" d="M358.259,1443.249s-.334-2.677,1.983-2.015c1.784.512-.07,5.464-1.248,5.883-1.008.36-1.223-.411-1.223-.411Z" transform="translate(-330.064 -1427.57)" fill="#f9ab78"/>
        <path id="Path_351" data-name="Path 351" d="M230.029,1566.913l1.318-13.562a62.363,62.363,0,0,0-7.636-2.829,33.225,33.225,0,0,0-12.05-.047,59.317,59.317,0,0,0-7.578,2.769s.915,6.332,1.806,13.67Z" transform="translate(-197.983 -1521.08)" fill="#f9ab78"/>
        <path id="Path_352" data-name="Path 352" d="M259.452,1525.62s6.408-4.362,6.019-4.578c-2.262-1.253-1.993-4.8-1.993-4.8l-8.2-.461s.5,5.016-1.933,5.627C253.161,1521.455,259.452,1525.62,259.452,1525.62Z" transform="translate(-240.313 -1491.728)" fill="#f9ab78"/>
        <path id="Path_353" data-name="Path 353" d="M266.242,1518.78a2.962,2.962,0,0,1,1,.571c1.078.923,3.582,2.308,5.085,1.843a6.124,6.124,0,0,0,2.66-2.1,7.33,7.33,0,0,1-.414-2.853l-8.2-.461A12.272,12.272,0,0,1,266.242,1518.78Z" transform="translate(-251.404 -1491.728)" fill="#da895d"/>
        <path id="Path_354" data-name="Path 354" d="M245.032,1368.708c-.4,2.934-.529,4.629-2.236,6.7a20.05,20.05,0,0,1-5.671,4.488,5.741,5.741,0,0,1-2.776.068,14.341,14.341,0,0,1-6-4.612,16.076,16.076,0,0,1-2.1-6.714c-.47-3.2-.512-2.073-.5-5.093.024-6.149,2.415-10.581,9.309-10.554s10.4,3.906,10.484,10.219C245.592,1366.664,245.477,1365.492,245.032,1368.708Z" transform="translate(-216.607 -1351.82)" fill="#f9ab78"/>
        <path id="Path_355" data-name="Path 355" d="M263.293,1494.656a5.594,5.594,0,0,0,.683,3.956,13.677,13.677,0,0,0,2.526,1.354,5.734,5.734,0,0,0,2.776-.068,13,13,0,0,0,1.915-1.141,7.437,7.437,0,0,0,1.126-4.1c-.167-1.47-2.651-2.065-4.61-2.029S263.74,1493.151,263.293,1494.656Z" transform="translate(-248.759 -1471.826)" fill="#241412"/>
        <path id="Path_356" data-name="Path 356" d="M269.115,1503.209c-.288.969,1.1,2.9,1.283,3.023a8.856,8.856,0,0,0,1.628.874c.151.058.547-1.967.862-1.967.4,0,.735,2.012.928,1.923a8.425,8.425,0,0,0,1.233-.736c.207-.144,1.694-2.487,1.588-3.435s-2.064-.165-3.987-.165C271.386,1502.725,269.4,1502.239,269.115,1503.209Z" transform="translate(-253.839 -1480.245)" fill="#f9ab78"/>
        <path id="Path_357" data-name="Path 357" d="M229.234,1358.718c.93-.959,7.993,2.575,9.361,2.384,2-.28,2-1.964,3.315-1.959,3.055.011,2.182,3.769,2.654,6.226.127.661.287.2.464.878l.014-.1c.445-3.216.559-2.044.515-5.5-.08-6.312-3.387-10.61-10.287-10.638s-9.483,4.824-9.506,10.974c-.011,2.88.806,1.98,1.217,4.667C227.576,1364.4,228.136,1359.852,229.234,1358.718Z" transform="translate(-216.617 -1349.257)" fill="#e2d3cd" style="mix-blend-mode: multiply;isolation: isolate"/>
        <path id="Path_358" data-name="Path 358" d="M226.449,1357.814c2.025-2.026,9.258,5.577,12.217.505,3.5.059,3.017,1.647,3.572,2.908a42.279,42.279,0,0,1,.248,5.406,4.429,4.429,0,0,0,.47-.489c.445-3.216.949-1.956.906-5.416-.08-6.312-3.777-10.7-10.677-10.725s-9.823,4.82-9.847,10.97c-.012,3.02.371,1.894.841,5.1a3.589,3.589,0,0,0,.695-.213S223.86,1360.4,226.449,1357.814Z" transform="translate(-214.531 -1349.257)" fill="#241412"/>
        <path id="Path_359" data-name="Path 359" d="M166.979,1586.392l1.2-3.588s3.386-11.488-1.375-10.082c-2.953.872-4.944,7.882-6.1,13.67Z" transform="translate(-160.705 -1540.559)" fill="#f9ab78"/>
        <path id="Path_360" data-name="Path 360" d="M383.573,1587.017h6.278c-1.113-5.765-3.041-12.676-5.96-13.562-4.749-1.443-1.454,10.073-1.454,10.073Z" transform="translate(-350.306 -1541.184)" fill="#f9ab78"/>
        <g id="Group_103" data-name="Group 103" transform="translate(21.979 15.128)">
          <path id="Path_361" data-name="Path 361" d="M321.055,1452.8a1.9,1.9,0,0,1-.556.948,6.238,6.238,0,0,1-2.7.44c-.334-.151-.767-.871-.767-.871a2.526,2.526,0,0,1,1.676-1.022A9.333,9.333,0,0,1,321.055,1452.8Z" transform="translate(-317.032 -1452.29)" fill="#fff"/>
          <path id="Path_362" data-name="Path 362" d="M318.706,1452.492a8.148,8.148,0,0,1,2.058.41c.106.033.051.4-.129.7a1.347,1.347,0,0,0,.42-.806,9.333,9.333,0,0,0-2.347-.505,2.526,2.526,0,0,0-1.676,1.022.367.367,0,0,0,.107.166A2.26,2.26,0,0,1,318.706,1452.492Z" transform="translate(-317.032 -1452.29)" fill="#341e13"/>
          <path id="Path_363" data-name="Path 363" d="M324.722,1453.238a.936.936,0,1,1-.932-.94A.935.935,0,0,1,324.722,1453.238Z" transform="translate(-322.032 -1452.297)" fill="#341e13"/>
          <path id="Path_364" data-name="Path 364" d="M330.321,1454.582c0,.4-1.11-.722-.713-.721A.717.717,0,0,1,330.321,1454.582Z" transform="translate(-327.766 -1453.64)" fill="#fff"/>
        </g>
        <path id="Path_365" data-name="Path 365" d="M240.579,1434.7a7.7,7.7,0,0,1,1.708-.7,6.294,6.294,0,0,1,3.1.226c.12,0,.3-.03.3-.344s-.094-.569-.214-.57a7.5,7.5,0,0,0-3.108-.037A4.074,4.074,0,0,0,240.579,1434.7Z" transform="translate(-229.349 -1420.683)" fill="#241412"/>
        <path id="Path_366" data-name="Path 366" d="M322.148,1435a7.473,7.473,0,0,0-1.678-.71,6.11,6.11,0,0,0-3.064.2c-.118,0-.292-.033-.29-.347s.1-.568.216-.568a7.284,7.284,0,0,1,3.065-.012A4.032,4.032,0,0,1,322.148,1435Z" transform="translate(-295.124 -1420.917)" fill="#241412"/>
        <g id="Group_104" data-name="Group 104" transform="translate(12.31 15.092)">
          <path id="Path_367" data-name="Path 367" d="M248.262,1452.53a1.9,1.9,0,0,0,.548.953,6.244,6.244,0,0,0,2.7.46c.336-.149.775-.865.775-.865a2.519,2.519,0,0,0-1.667-1.035A9.312,9.312,0,0,0,248.262,1452.53Z" transform="translate(-248.262 -1452.042)" fill="#fff"/>
          <path id="Path_368" data-name="Path 368" d="M250.613,1452.245a8.19,8.19,0,0,0-2.061.393c-.107.032-.053.4.123.7a1.342,1.342,0,0,1-.413-.808,9.312,9.312,0,0,1,2.351-.486,2.519,2.519,0,0,1,1.667,1.035.384.384,0,0,1-.109.165A2.257,2.257,0,0,0,250.613,1452.245Z" transform="translate(-248.262 -1452.042)" fill="#341e13"/>
          <path id="Path_369" data-name="Path 369" d="M257.716,1452.969a.936.936,0,1,0,.939-.933A.937.937,0,0,0,257.716,1452.969Z" transform="translate(-256.387 -1452.036)" fill="#341e13"/>
          <path id="Path_370" data-name="Path 370" d="M258.67,1454.317c0,.4,1.116-.713.719-.714A.716.716,0,0,0,258.67,1454.317Z" transform="translate(-257.207 -1453.383)" fill="#fff"/>
        </g>
        <path id="Path_371" data-name="Path 371" d="M290.991,1470.905l-.836-.668.847-1.956Z" transform="translate(-271.954 -1450.905)" fill="#da895d"/>
        <path id="Path_372" data-name="Path 372" d="M276.824,1508.658l-.621-.561,1.038.27,3.611-.026,1.012-.318-.785.637Z" transform="translate(-259.965 -1485.058)" fill="#da895d"/>
        <g id="Group_105" data-name="Group 105" transform="translate(10.998 13.664)">
          <path id="Path_373" data-name="Path 373" d="M244.988,1446.82a5.191,5.191,0,0,1-4.477,0c-1.026-.695-2.239-3.379-1.167-4.276s5.644-.875,6.39,0S245.828,1446.162,244.988,1446.82Z" transform="translate(-238.926 -1441.879)" fill="none" stroke="#241412" stroke-width="1"/>
          <path id="Path_374" data-name="Path 374" d="M305.34,1446.82a5.192,5.192,0,0,0,4.478,0c1.026-.695,2.239-3.379,1.167-4.276s-5.644-.875-6.391,0S304.5,1446.162,305.34,1446.82Z" transform="translate(-295.08 -1441.879)" fill="none" stroke="#241412" stroke-width="1"/>
          <line id="Line_3" data-name="Line 3" x2="2.052" transform="translate(7.135 1.488)" fill="none" stroke="#241412" stroke-width="1"/>
        </g>
        <g id="Group_106" data-name="Group 106" transform="translate(0 28.654)">
          <path id="Path_375" data-name="Path 375" d="M230.029,1569.577l1.318-13.563a62.348,62.348,0,0,0-7.636-2.829,6.283,6.283,0,0,1-6.38,5.842,6.007,6.007,0,0,1-5.865-5.99,48.8,48.8,0,0,0-7.383,2.87s.915,6.332,1.806,13.67Z" transform="translate(-197.983 -1552.397)" fill="#fcfcfd"/>
          <path id="Path_376" data-name="Path 376" d="M379.1,1641.469l.464-4.779c-.021.011-.043.019-.064.03-2.018,1.1-1.879,2.772-1.958,4.749Z" transform="translate(-347.057 -1624.29)" fill="#e4e3e3" style="mix-blend-mode: multiply;isolation: isolate"/>
          <path id="Path_377" data-name="Path 377" d="M214.088,1640.5c-.714-2.435-1.3-4.393-1.574-4.937.2,1.544.41,3.216.62,4.938Z" transform="translate(-205.23 -1623.32)" fill="#e4e3e3" style="mix-blend-mode: multiply;isolation: isolate"/>
          <path id="Path_378" data-name="Path 378" d="M166.979,1586.392l1.2-3.588s3.386-11.488-1.375-10.082c-2.953.872-4.944,7.882-6.1,13.67Z" transform="translate(-160.705 -1569.214)" fill="#003b62"/>
          <path id="Path_379" data-name="Path 379" d="M193.665,1625.837l1.2-3.588a37,37,0,0,0,.851-3.748c-1.267,1.987-3.039,3.438-3.6,5.94-.106.469-.229.935-.36,1.4Z" transform="translate(-187.39 -1608.658)" fill="#e4e3e3" style="mix-blend-mode: multiply;isolation: isolate"/>
          <path id="Path_380" data-name="Path 380" d="M383.573,1587.017h6.278c-1.113-5.765-3.041-12.676-5.96-13.562-4.749-1.443-1.454,10.073-1.454,10.073Z" transform="translate(-350.306 -1569.838)" fill="#003b62"/>
          <path id="Path_381" data-name="Path 381" d="M387,1635.309h2.25c-.154-.619-.324-1.229-.52-1.823-.619-1.872-2.038-2.789-3.418-3.963.277,1.332.552,2.3.552,2.3Z" transform="translate(-353.733 -1618.131)" fill="#e4e3e3" style="mix-blend-mode: multiply;isolation: isolate"/>
          <path id="Path_382" data-name="Path 382" d="M267.991,1548.814s-1.024,5.209-5.545,5.086c-4.537-.123-5.16-5.4-5.16-5.4l-.716.638s-.366,6.688,5.964,6.549,6.281-6.4,6.281-6.4Z" transform="translate(-243.089 -1548.495)" fill="#e4e3e3"/>
          <path id="Path_383" data-name="Path 383" d="M213.3,1569.577v-3.647a47.412,47.412,0,0,1-1.83-12.894,48.8,48.8,0,0,0-7.383,2.87s.656,6.124,1.22,13.67Z" transform="translate(-197.983 -1552.397)" fill="#003b62"/>
          <path id="Path_384" data-name="Path 384" d="M338.443,1570.484c.52-7.539,1.106-13.562,1.106-13.562a62.319,62.319,0,0,0-7.636-2.829,49.3,49.3,0,0,1-1.927,12.7l.043,3.7Z" transform="translate(-306.184 -1553.305)" fill="#003b62"/>
          <path id="Path_385" data-name="Path 385" d="M379.916,1643.972c.106-1.531.214-3,.319-4.369-.035.058-.068.117-.11.176a13.967,13.967,0,0,0-1.882,4.193Z" transform="translate(-347.657 -1626.793)" fill="#e4e3e3" style="mix-blend-mode: multiply;isolation: isolate"/>
          <path id="Path_386" data-name="Path 386" d="M331.53,1570.484l1.464-3.88L331.1,1566l3.312-.839L336,1555.129l-4.091-1.037a57.417,57.417,0,0,1-1.927,12.7c.011.995.028,2.381.043,3.7Z" transform="translate(-306.184 -1553.305)" fill="#00263e"/>
          <path id="Path_387" data-name="Path 387" d="M232.384,1564.942l-1.889.606,1.52,4.029h1.444c.015-1.358.032-2.811.044-3.844a57.455,57.455,0,0,1-1.927-12.7l-4.09,1.039,1.586,10.028Z" transform="translate(-218.098 -1552.397)" fill="#00263e"/>
        </g>
      </g>
    </g>
  </g>
</svg>
