<svg xmlns="http://www.w3.org/2000/svg" width="719.28" height="677.264" viewBox="0 0 719.28 677.264">
  <g id="boy" transform="translate(0.5 0.529)">
    <path id="Path_924" data-name="Path 924" d="M719.289,375.6c-18.359-31.519-11.316-97.847-11.316-97.847l-4.126,3.775c18.395-48.094,3-67.526,3-67.526-45.4-67.566-113.349-22.9-113.349-22.9s-49.853,7.964-31.409,67.546a49.128,49.128,0,0,1,1.726,12.619c-.145.534-7.854,28.8-10.585,34.1-1.98,3.847,8,9.148,13.779,11.832,12.91,56.4,15.815,54.4,15.815,54.4,22.813,1.084,40.985-2.64,55.707-9.258,2.027,10.608,4.1,22.022,4.1,22.022,4.9,38.832-49.911,63.811-49.911,63.811L696.76,487.467l103.376-65.95S741.66,414.009,719.289,375.6Z" transform="translate(-157.701 -152.195)" fill="#fff" stroke="#01d866" stroke-miterlimit="10" stroke-width="1"/>
    <g id="Group_252" data-name="Group 252" transform="translate(0 337.413)">
      <g id="Group_251" data-name="Group 251">
        <path id="Path_925" data-name="Path 925" d="M394.6,438.1l347.774-31.6,202.042,56.43.933,14.368L597.578,508.9,395.536,452.466Z" transform="translate(-353.303 -205.704)" fill="#fff" stroke="#01d866" stroke-linejoin="round" stroke-width="1"/>
        <g id="Group_243" data-name="Group 243" transform="translate(6.303)">
          <path id="Path_926" data-name="Path 926" d="M423.371,550.366l340.734-19.991L712,316.658h0L378.945,332.2Z" transform="translate(-378.945 -316.658)" fill="#fff" stroke="#01d866" stroke-linejoin="round" stroke-width="1"/>
          <path id="Path_927" data-name="Path 927" d="M464.162,325.321c.534,2.34-.65,4.607-2.646,5.063s-4.048-1.073-4.582-3.413.65-4.606,2.646-5.062S463.628,322.981,464.162,325.321Z" transform="translate(-282.782 -310.272)" fill="#01d866"/>
        </g>
        <path id="Path_928" data-name="Path 928" d="M382.428,332.2l333.054-15.539L382.428,332.2l44.426,218.169-9.4-.944-41.325-210.6Z" transform="translate(-376.125 -316.658)" fill="#fff" stroke="#01d866" stroke-linejoin="round" stroke-width="1"/>
        <g id="Group_244" data-name="Group 244" transform="translate(32.081 19.191)">
          <path id="Path_929" data-name="Path 929" d="M390.479,338.978l291.276-13.734,38.786,168.9L428.11,520.38Z" transform="translate(-390.479 -325.244)" fill="#3cd684" stroke="#01d866" stroke-miterlimit="10" stroke-width="1"/>
        </g>
        <path id="Path_930" data-name="Path 930" d="M394.6,438.1l202.042,56.431,347.774-31.6-202.042-56.43Z" transform="translate(-353.303 -205.704)" fill="#fff" stroke="#01d866" stroke-linejoin="round" stroke-width="1"/>
        <path id="Path_931" data-name="Path 931" d="M517.379,465.718,416.673,437.59,714.3,410.544l97.82,27.321Z" transform="translate(-326.046 -200.702)" fill="#fff" stroke="#01d866" stroke-linejoin="round" stroke-width="1"/>
        <line id="Line_13" data-name="Line 13" y1="26.751" x2="298.678" transform="translate(112.086 216.13)" fill="#fff" stroke="#01d866" stroke-linejoin="round" stroke-width="1"/>
        <line id="Line_14" data-name="Line 14" y1="26.751" x2="298.678" transform="translate(137.171 223.2)" fill="#fff" stroke="#01d866" stroke-linejoin="round" stroke-width="1"/>
        <line id="Line_15" data-name="Line 15" y1="26.751" x2="298.678" transform="translate(162.257 230.27)" fill="#fff" stroke="#01d866" stroke-linejoin="round" stroke-width="1"/>
        <line id="Line_16" data-name="Line 16" x2="98.674" y2="27.443" transform="translate(126.628 233.988)" fill="#fff" stroke="#01d866" stroke-linejoin="round" stroke-width="1"/>
        <line id="Line_17" data-name="Line 17" x2="98.674" y2="27.443" transform="translate(160.004 231.085)" fill="#fff" stroke="#01d866" stroke-linecap="round" stroke-linejoin="round" stroke-width="1"/>
        <line id="Line_18" data-name="Line 18" x2="98.674" y2="27.443" transform="translate(188.667 228.293)" fill="#fff" stroke="#01d866" stroke-linecap="round" stroke-linejoin="round" stroke-width="1"/>
        <line id="Line_19" data-name="Line 19" x2="98.674" y2="27.443" transform="translate(217.331 225.501)" fill="#fff" stroke="#405391" stroke-linecap="round" stroke-linejoin="round" stroke-width="1"/>
        <line id="Line_20" data-name="Line 20" x2="98.674" y2="27.443" transform="translate(245.994 222.708)" fill="#fff" stroke="#405391" stroke-linecap="round" stroke-linejoin="round" stroke-width="1"/>
        <line id="Line_21" data-name="Line 21" x2="97.372" y2="27.081" transform="translate(275.96 220.278)" fill="#fff" stroke="#405391" stroke-linecap="round" stroke-linejoin="round" stroke-width="1"/>
        <line id="Line_22" data-name="Line 22" x2="98.356" y2="27.354" transform="translate(304.504 217.452)" fill="#fff" stroke="#405391" stroke-linecap="round" stroke-linejoin="round" stroke-width="1"/>
        <line id="Line_23" data-name="Line 23" x2="97.887" y2="27.224" transform="translate(333.676 214.801)" fill="#fff" stroke="#405391" stroke-linecap="round" stroke-linejoin="round" stroke-width="1"/>
        <line id="Line_24" data-name="Line 24" x2="96.871" y2="26.941" transform="translate(363.316 212.281)" fill="#fff" stroke="#405391" stroke-linecap="round" stroke-linejoin="round" stroke-width="1"/>
        <g id="Group_250" data-name="Group 250" transform="translate(73.648 49.135)">
          <g id="Group_245" data-name="Group 245" transform="translate(116.482)">
            <path id="Path_932" data-name="Path 932" d="M462.94,345.207l109.342-6.565a1.821,1.821,0,0,1,1.844,1.381l10.889,43.684a1.825,1.825,0,0,1-1.614,2.26l-90.031,6.6a1.842,1.842,0,0,0-1.07.467l-13.8,15.945a1.823,1.823,0,0,1-3.022-1.042l-14.255-60.568A1.822,1.822,0,0,1,462.94,345.207Z" transform="translate(-461.192 -338.641)" fill="#fff" stroke="#01d866" stroke-linejoin="round" stroke-width="1"/>
          </g>
          <g id="Group_246" data-name="Group 246" transform="translate(134.756 80.238)">
            <path id="Path_933" data-name="Path 933" d="M469.368,383.221l112.518-8.681,7.51,25.905-5.23.559-5.123.548-102.97,9.242Z" transform="translate(-469.368 -374.541)" fill="#fff" stroke="#01d866" stroke-linejoin="round" stroke-width="1"/>
          </g>
          <g id="Group_248" data-name="Group 248" transform="translate(0 7.361)">
            <path id="Path_934" data-name="Path 934" d="M523.7,450.885l-25.02-108.951-78.395,3.243-11.2,7.326,23.7,114.232,79.718-8.525Z" transform="translate(-409.076 -341.935)" fill="#fff" stroke="#01d866" stroke-linejoin="round" stroke-width="1"/>
            <g id="Group_247" data-name="Group 247" transform="translate(11.204)">
              <path id="Path_935" data-name="Path 935" d="M414.089,345.178l78.395-3.243L517.5,450.885l-79.718,8.525Z" transform="translate(-414.089 -341.935)" fill="#fff" stroke="#01d866" stroke-linejoin="round" stroke-width="1"/>
            </g>
            <line id="Line_25" data-name="Line 25" y1="7.326" x2="11.205" transform="translate(23.697 117.476)" fill="#fff" stroke="#01d866" stroke-miterlimit="10" stroke-width="1"/>
            <line id="Line_26" data-name="Line 26" y1="3.832" x2="49.181" transform="translate(37.686 46.265)" fill="#fff" stroke="#01d866" stroke-linecap="round" stroke-linejoin="round" stroke-width="1"/>
            <line id="Line_27" data-name="Line 27" y1="3.832" x2="49.18" transform="translate(39.307 56.822)" fill="#fff" stroke="#01d866" stroke-linecap="round" stroke-linejoin="round" stroke-width="1"/>
          </g>
          <g id="Group_249" data-name="Group 249" transform="translate(158.76 18.977)">
            <line id="Line_28" data-name="Line 28" y1="1.198" x2="16.548" fill="#fff" stroke="#01d866" stroke-linecap="round" stroke-linejoin="round" stroke-width="1"/>
            <line id="Line_29" data-name="Line 29" y1="3.206" x2="61.482" transform="translate(0.526 5.273)" fill="#fff" stroke="#01d866" stroke-linecap="round" stroke-linejoin="round" stroke-width="1"/>
            <line id="Line_30" data-name="Line 30" y1="3.206" x2="61.482" transform="translate(1.508 12.958)" fill="#fff" stroke="#01d866" stroke-linecap="round" stroke-linejoin="round" stroke-width="1"/>
          </g>
          <path id="Path_937" data-name="Path 937" d="M484.791,355.18c1.169,5.116-1.424,10.071-5.787,11.068s-8.849-2.342-10.018-7.458,1.424-10.069,5.787-11.066S483.625,350.067,484.791,355.18Z" transform="translate(-335.429 -327.641)" fill="#fff" stroke="#01d866" stroke-linejoin="round" stroke-width="1"/>
          <path id="Path_938" data-name="Path 938" d="M477.971,383.627a2.081,2.081,0,1,1-2.539-1.891A2.253,2.253,0,0,1,477.971,383.627Z" transform="translate(-329.024 -285.471)" fill="#01d866"/>
          <path id="Path_939" data-name="Path 939" d="M481.6,383.217a2.081,2.081,0,1,1-2.539-1.891A2.254,2.254,0,0,1,481.6,383.217Z" transform="translate(-324.546 -285.978)" fill="#01d866"/>
          <path id="Path_940" data-name="Path 940" d="M485.223,382.8a2.081,2.081,0,1,1-2.539-1.891A2.252,2.252,0,0,1,485.223,382.8Z" transform="translate(-320.067 -286.487)" fill="#01d866"/>
        </g>
      </g>
    </g>
    <path id="Path_941" data-name="Path 941" d="M734.192,296.444s-4.548-24.59-6.989,61.344c-2.282,80.44-3.183,164.852-3.183,164.852s-43.577,1.285-90.221,21.64l-30.191,12.545s78.377,43.414,134.167,60.743c51.373,15.956,56.194-23.258,50.07-118.575C787.845,498.993,758.626,303.23,734.192,296.444Z" transform="translate(-95.168 -8.234)" fill="#fff" stroke="#01d866" stroke-linejoin="round" stroke-width="1"/>
    <path id="Path_942" data-name="Path 942" d="M591.676,173.763s-65.492,34.93-28.006,70l44.5-44.471Z" transform="translate(-158.801 -155.73)" fill="#405391"/>
    <path id="Path_943" data-name="Path 943" d="M613.605,260.693s14.72-.389,23.524,19.548c0,0-9.662-22.637,7.193-41.364Z" transform="translate(-82.821 -75.311)" fill="#1a1a1a"/>
    <path id="Path_944" data-name="Path 944" d="M596,182.72s-80.1,78.44-32.093,56.46c100.3-45.922,95.16,69.808,95.16,69.808s13.815-12.588,8.71.588l26.132,40.493s55.845-21.117,58.834-91.468C753.754,234.844,730.386,125.9,596,182.72Z" transform="translate(-163.128 -164.687)" fill="#1a1a1a"/>
    <path id="Path_945" data-name="Path 945" d="M585.181,194.583c1.506,12.014,0,59.936,21.184,63.456s-3.641-60.2-3.641-60.2Z" transform="translate(-117.926 -130.016)" fill="#1a1a1a"/>
    <g id="Group_253" data-name="Group 253" transform="translate(140.171 310.321)">
      <path id="Path_946" data-name="Path 946" d="M698.639,316.39c-25.359,114.013-37.1,231.795-37.1,231.795s-50.1-14.22-97.657-21.9l-51.939-13.949c-1.678-.767-19.682-9.065-25.529-14.85-6.133-6.068-9.51,10.634.136,18.267a91.886,91.886,0,0,1,6.985,6.093l-12.514,1.949a11.1,11.1,0,0,0-5.764,2.745c-8.719,7.9-37.145,34.149-31.76,35.783a10.2,10.2,0,0,0,4.472.19c-9.716,8.026-10.492,16.4-7.767,16.678,4.066.42,9.211-2.492,14.329-6.638-4.495,5.2-10.069,16.7-3.84,16.41,8.366-.384,15.377-6.886,22.051-17.876,0,0-1.645,2.85-.916,2.2l-4.957,8.028s10.107,8.88,17.463,13.006c7.009,3.932,11.115-10.556,1.191-16.515,0,0,3.572-3.581,6.466-11.189,0,0,27.867,13.468,42.109,2.8l9.311.894c24.342,15.243,147.957,70.8,164.892,69.542,38.461-2.87,45.772-78.5,64.37-243.8C772.671,396.048,710.009,265.27,698.639,316.39Z" transform="translate(-438.839 -304.537)" fill="#fff" stroke="#01d866" stroke-linejoin="round" stroke-width="1"/>
      <path id="Path_947" data-name="Path 947" d="M546.43,413.548s-11.976,6.374-14.39,24.076" transform="translate(-323.73 -169.9)" fill="none" stroke="#01d866" stroke-miterlimit="10" stroke-width="1"/>
    </g>
    <path id="Path_948" data-name="Path 948" d="M849.711,521.949c19.82-3.286,51.831-14.235,51.858-14.354,0,0-12.273-154.651-51.284-200.441-1.983-4.258-8.549-13.086-29.474-16.175-6.211-.916-12.32-2.061-18.16-3.317h0c-20.471-4.4-37.142-10.523-41.905-13.545,0,0,.027.185.06.46-.11-.065-.257-.139-.356-.2a19.393,19.393,0,0,1-.53,8.965c-.136.429-.273.86-.445,1.3-.074.185-.156.373-.237.561a17.968,17.968,0,0,1-1.071,2.106h0c-6.4,10.543-48.787,14.805-91.164-7.59,0,0-72.8,41.284-92.19,55.6-29.775,63.429-42.562,206.67-42.562,200.019,0-1.813,60.671,29.972,100.089,31.7.212,11.238-8.985,140.982-8.985,140.982l246.335-.011s-29.544-119.1-26.022-146.925C844.088,557.793,848.868,530.072,849.711,521.949Z" transform="translate(-183.294 -31.785)" fill="#fff" stroke="#01d866" stroke-miterlimit="10" stroke-width="1"/>
    <path id="Path_949" data-name="Path 949" d="M616.541,177.845s-83.956-19.579-78.663,2.025,27,40.47,27,40.47-24.744-.619-11.756,11.942,23.846,11.625,23.846,11.625Z" transform="translate(-176.646 -160.731)" fill="#1a1a1a"/>
    <path id="Path_950" data-name="Path 950" d="M591.257,268.529s8.636-2.175,24.474-15.934" transform="translate(-110.422 -58.367)" fill="none" stroke="#01d866" stroke-miterlimit="10" stroke-width="1"/>
    <path id="Path_951" data-name="Path 951" d="M632.824,267.288s-5.838-108.171-62.687-94.9" transform="translate(-136.507 -158.82)" fill="none" stroke="#fff" stroke-miterlimit="10" stroke-width="2"/>
    <g id="Group_255" data-name="Group 255" transform="translate(456.923 98.659)">
      <g id="Group_254" data-name="Group 254" transform="translate(0 0)">
        <ellipse id="Ellipse_33" data-name="Ellipse 33" cx="36.427" cy="35.542" rx="36.427" ry="35.542" transform="translate(0 72.703) rotate(-86.313)" fill="#01d866" stroke="#01d866" stroke-miterlimit="10" stroke-width="1"/>
        <path id="Path_952" data-name="Path 952" d="M634.9,242.9c-.93,14.423-12.483,25.419-25.8,24.559s-23.368-13.247-22.438-27.668,12.483-25.419,25.8-24.559S635.826,228.477,634.9,242.9Z" transform="translate(-573.102 -203.233)" fill="#fff"/>
      </g>
    </g>
    <g id="Group_256" data-name="Group 256" transform="translate(414.246 102.618)">
      <path id="Path_953" data-name="Path 953" d="M562.572,225.379c.027,2.906,1.859,5.246,4.1,5.226s4.028-2.394,4-5.3-1.86-5.248-4.1-5.228S562.545,222.471,562.572,225.379Z" transform="translate(-560.096 -201.148)" fill="#01d866"/>
      <path id="Path_954" data-name="Path 954" d="M583.7,220.551c-3.265-4.479-7.9-6.055-11.58-7.253-4.088-1.33-8.111-2.637-9.834-.735a4.08,4.08,0,0,0-.2,4.631c1.234,1.891,4.005,1.822,6.585,2.09,10.038,1.044,15.775,7.058,16.913,5.581C586.233,224.02,584.583,221.758,583.7,220.551Z" transform="translate(-561.464 -211.608)" fill="#01d866"/>
    </g>
    <path id="Path_955" data-name="Path 955" d="M562.9,250.146s11.012-.454,18.189-7.8" transform="translate(-145.446 -71.032)" fill="none" stroke="#01d866" stroke-miterlimit="10" stroke-width="1"/>
    <path id="Path_956" data-name="Path 956" d="M544.213,167.13c.729-.094,33.823-9.1,58.865,19.193" transform="translate(-168.525 -165.695)" fill="none" stroke="#405391" stroke-miterlimit="10" stroke-width="1"/>
    <path id="Path_957" data-name="Path 957" d="M634.379,175.452l-2.546,25.793s6.645-12.785,19.807-4.148" transform="translate(-60.308 -153.644)" fill="none" stroke="#405391" stroke-miterlimit="10" stroke-width="1"/>
    <path id="Path_958" data-name="Path 958" d="M568.805,187.968S540.76,227.6,555.071,227.52c21.6-.121,42.976-28.207,39.06-29.666S568.805,187.968,568.805,187.968Z" transform="translate(-160.139 -138.186)" fill="#1a1a1a"/>
    <path id="Path_959" data-name="Path 959" d="M445.86,442.525l10.991-23.285,11.9-9.426" transform="translate(-289.997 135.809)" fill="#fff" stroke="#01d866" stroke-miterlimit="10" stroke-width="1"/>
    <line id="Line_31" data-name="Line 31" y1="14.417" x2="12.731" transform="translate(149.3 553.878)" fill="#fff" stroke="#01d866" stroke-miterlimit="10" stroke-width="1"/>
    <path id="Path_960" data-name="Path 960" d="M475.279,411.1l-14.214,10.084L453.6,441.669" transform="translate(-280.44 137.401)" fill="#fff" stroke="#01d866" stroke-linejoin="round" stroke-width="1"/>
    <g id="Group_257" data-name="Group 257" transform="translate(391.524 301.765)">
      <path id="Path_961" data-name="Path 961" d="M551.3,302.475s90.525-22.393,88.513,92.266L635.654,532.2a122.614,122.614,0,0,1-34.476,1.426" transform="translate(-551.298 -300.709)" fill="none" stroke="#01d866" stroke-miterlimit="10" stroke-width="1"/>
    </g>
    <path id="Path_962" data-name="Path 962" d="M672.775,314.371s18.978,45.911,19.311,86.263c.181,21.691-15.954,71.857-15.954,71.857" transform="translate(-9.742 17.93)" fill="none" stroke="#01d866" stroke-miterlimit="10" stroke-width="1"/>
    <line id="Line_32" data-name="Line 32" y1="2.23" x2="15.521" transform="translate(194.867 525.398)" fill="#fff" stroke="#01d866" stroke-linejoin="round" stroke-width="1"/>
  </g>
</svg>
