<svg xmlns="http://www.w3.org/2000/svg" width="910.027" height="666.496" viewBox="0 0 910.027 666.496">
  <g id="Group_259" data-name="Group 259" transform="translate(-222.221 -165.167)">
    <g id="Group_258" data-name="Group 258" transform="translate(453.62 165.695)">
      <path id="Path_924" data-name="Path 924" d="M709.992,364.479C692.66,334.722,699.309,272.1,699.309,272.1l-3.9,3.564c17.366-45.406,2.836-63.751,2.836-63.751C655.384,148.125,591.236,190.3,591.236,190.3s-47.067,7.518-29.654,63.77a46.381,46.381,0,0,1,1.629,11.914c-.137.5-7.415,27.187-9.994,32.19-1.87,3.632,7.552,8.637,13.009,11.171,12.188,53.249,14.931,51.356,14.931,51.356,21.538,1.023,38.693-2.492,52.593-8.74,1.914,10.015,3.874,20.791,3.874,20.791,4.63,36.661-47.121,60.244-47.121,60.244l98.218,37.1,97.6-62.264S731.113,400.74,709.992,364.479Z" transform="translate(-179.797 -153.561)" fill="#fff" stroke="#01d866" stroke-width="1"/>
      <g id="Group_252" data-name="Group 252" transform="translate(0 318.551)">
        <g id="Group_251" data-name="Group 251">
          <path id="Path_925" data-name="Path 925" d="M394.6,436.331l328.333-29.837L913.684,459.77l.881,13.565L586.232,503.172,395.484,449.9Z" transform="translate(-355.611 -216.928)" fill="#fff" stroke="#01d866" stroke-linejoin="round" stroke-width="1"/>
          <g id="Group_243" data-name="Group 243" transform="translate(5.951)">
            <path id="Path_926" data-name="Path 926" d="M420.888,537.3l321.687-18.873-49.193-201.77h0l-314.437,14.67Z" transform="translate(-378.945 -316.658)" fill="#fff" stroke="#01d866" stroke-linejoin="round" stroke-width="1"/>
            <path id="Path_927" data-name="Path 927" d="M463.751,325.126c.5,2.209-.614,4.349-2.5,4.78s-3.821-1.013-4.326-3.222.614-4.349,2.5-4.779S463.247,322.917,463.751,325.126Z" transform="translate(-292.51 -310.918)" fill="#01d866"/>
          </g>
          <path id="Path_928" data-name="Path 928" d="M382.076,331.328l314.436-14.67-314.436,14.67L424.018,537.3l-8.878-.891L376.125,337.582Z" transform="translate(-376.125 -316.658)" fill="#fff" stroke="#01d866" stroke-linejoin="round" stroke-width="1"/>
          <g id="Group_244" data-name="Group 244" transform="translate(30.288 18.118)">
            <path id="Path_929" data-name="Path 929" d="M390.479,338.211l274.993-12.966L702.09,484.7,426.006,509.472Z" transform="translate(-390.479 -325.244)" fill="#3cd684" stroke="#01d866" stroke-width="1"/>
          </g>
          <path id="Path_930" data-name="Path 930" d="M394.6,436.331l190.747,53.276L913.684,459.77,722.936,406.494Z" transform="translate(-355.611 -216.928)" fill="#fff" stroke="#01d866" stroke-linejoin="round" stroke-width="1"/>
          <path id="Path_931" data-name="Path 931" d="M511.749,462.634l-95.076-26.556,280.985-25.534,92.352,25.794Z" transform="translate(-331.112 -212.432)" fill="#fff" stroke="#01d866" stroke-linejoin="round" stroke-width="1"/>
          <line id="Line_13" data-name="Line 13" y1="25.256" x2="281.982" transform="translate(105.82 204.048)" fill="#fff" stroke="#01d866" stroke-linejoin="round" stroke-width="1"/>
          <line id="Line_14" data-name="Line 14" y1="25.256" x2="281.982" transform="translate(129.503 210.723)" fill="#fff" stroke="#01d866" stroke-linejoin="round" stroke-width="1"/>
          <line id="Line_15" data-name="Line 15" y1="25.256" x2="281.982" transform="translate(153.186 217.398)" fill="#fff" stroke="#01d866" stroke-linejoin="round" stroke-width="1"/>
          <line id="Line_16" data-name="Line 16" x2="93.158" y2="25.909" transform="translate(119.55 220.908)" fill="#fff" stroke="#01d866" stroke-linejoin="round" stroke-width="1"/>
          <line id="Line_17" data-name="Line 17" x2="93.158" y2="25.909" transform="translate(151.06 218.167)" fill="#fff" stroke="#01d866" stroke-linecap="round" stroke-linejoin="round" stroke-width="1"/>
          <line id="Line_18" data-name="Line 18" x2="93.158" y2="25.909" transform="translate(178.121 215.531)" fill="#fff" stroke="#01d866" stroke-linecap="round" stroke-linejoin="round" stroke-width="1"/>
          <line id="Line_19" data-name="Line 19" x2="93.158" y2="25.909" transform="translate(205.182 212.895)" fill="#fff" stroke="#405391" stroke-linecap="round" stroke-linejoin="round" stroke-width="1"/>
          <line id="Line_20" data-name="Line 20" x2="93.158" y2="25.909" transform="translate(232.243 210.259)" fill="#fff" stroke="#405391" stroke-linecap="round" stroke-linejoin="round" stroke-width="1"/>
          <line id="Line_21" data-name="Line 21" x2="91.929" y2="25.567" transform="translate(260.533 207.964)" fill="#fff" stroke="#405391" stroke-linecap="round" stroke-linejoin="round" stroke-width="1"/>
          <line id="Line_22" data-name="Line 22" x2="92.858" y2="25.825" transform="translate(287.482 205.296)" fill="#fff" stroke="#405391" stroke-linecap="round" stroke-linejoin="round" stroke-width="1"/>
          <line id="Line_23" data-name="Line 23" x2="92.415" y2="25.702" transform="translate(315.023 202.794)" fill="#fff" stroke="#405391" stroke-linecap="round" stroke-linejoin="round" stroke-width="1"/>
          <line id="Line_24" data-name="Line 24" x2="91.456" y2="25.435" transform="translate(343.007 200.414)" fill="#fff" stroke="#405391" stroke-linecap="round" stroke-linejoin="round" stroke-width="1"/>
          <g id="Group_250" data-name="Group 250" transform="translate(69.531 46.388)">
            <g id="Group_245" data-name="Group 245" transform="translate(109.971)">
              <path id="Path_932" data-name="Path 932" d="M462.842,344.84l103.23-6.2a1.719,1.719,0,0,1,1.741,1.3l10.281,41.242a1.723,1.723,0,0,1-1.524,2.133l-85,6.235a1.739,1.739,0,0,0-1.011.441l-13.026,15.054a1.721,1.721,0,0,1-2.853-.983l-13.458-57.182A1.721,1.721,0,0,1,462.842,344.84Z" transform="translate(-461.192 -338.641)" fill="#fff" stroke="#01d866" stroke-linejoin="round" stroke-width="1"/>
            </g>
            <g id="Group_246" data-name="Group 246" transform="translate(127.223 75.752)">
              <path id="Path_933" data-name="Path 933" d="M469.368,382.736l106.228-8.2L582.686,399l-4.937.528-4.837.517L475.7,408.768Z" transform="translate(-469.368 -374.541)" fill="#fff" stroke="#01d866" stroke-linejoin="round" stroke-width="1"/>
            </g>
            <g id="Group_248" data-name="Group 248" transform="translate(0 6.949)">
              <path id="Path_934" data-name="Path 934" d="M517.288,444.8l-23.622-102.86L419.654,345l-10.578,6.917L431.448,459.76l75.262-8.048Z" transform="translate(-409.076 -341.935)" fill="#fff" stroke="#01d866" stroke-linejoin="round" stroke-width="1"/>
              <g id="Group_247" data-name="Group 247" transform="translate(10.578)">
                <path id="Path_935" data-name="Path 935" d="M414.089,345l74.012-3.062L511.723,444.8l-75.262,8.048Z" transform="translate(-414.089 -341.935)" fill="#fff" stroke="#01d866" stroke-linejoin="round" stroke-width="1"/>
              </g>
              <line id="Line_25" data-name="Line 25" y1="6.917" x2="10.578" transform="translate(22.372 110.909)" fill="#fff" stroke="#01d866" stroke-width="1"/>
              <line id="Line_26" data-name="Line 26" y1="3.618" x2="46.431" transform="translate(35.579 43.678)" fill="#fff" stroke="#01d866" stroke-linecap="round" stroke-linejoin="round" stroke-width="1"/>
              <line id="Line_27" data-name="Line 27" y1="3.618" x2="46.431" transform="translate(37.11 53.645)" fill="#fff" stroke="#01d866" stroke-linecap="round" stroke-linejoin="round" stroke-width="1"/>
            </g>
            <g id="Group_249" data-name="Group 249" transform="translate(149.885 17.916)">
              <line id="Line_28" data-name="Line 28" y1="1.131" x2="15.623" fill="#fff" stroke="#01d866" stroke-linecap="round" stroke-linejoin="round" stroke-width="1"/>
              <line id="Line_29" data-name="Line 29" y1="3.026" x2="58.045" transform="translate(0.496 4.978)" fill="#fff" stroke="#01d866" stroke-linecap="round" stroke-linejoin="round" stroke-width="1"/>
              <line id="Line_30" data-name="Line 30" y1="3.026" x2="58.045" transform="translate(1.423 12.234)" fill="#fff" stroke="#01d866" stroke-linecap="round" stroke-linejoin="round" stroke-width="1"/>
            </g>
            <path id="Path_937" data-name="Path 937" d="M483.892,354.754c1.1,4.83-1.344,9.508-5.463,10.449s-8.354-2.211-9.458-7.042,1.344-9.506,5.463-10.447S482.791,349.926,483.892,354.754Z" transform="translate(-342.879 -328.753)" fill="#fff" stroke="#01d866" stroke-linejoin="round" stroke-width="1"/>
            <path id="Path_938" data-name="Path 938" d="M477.743,383.519a1.965,1.965,0,1,1-2.4-1.785A2.127,2.127,0,0,1,477.743,383.519Z" transform="translate(-337.122 -290.849)" fill="#01d866"/>
            <path id="Path_939" data-name="Path 939" d="M481.369,383.108a1.965,1.965,0,1,1-2.4-1.785A2.128,2.128,0,0,1,481.369,383.108Z" transform="translate(-333.097 -291.306)" fill="#01d866"/>
            <path id="Path_940" data-name="Path 940" d="M484.995,382.7a1.965,1.965,0,1,1-2.4-1.785A2.127,2.127,0,0,1,484.995,382.7Z" transform="translate(-329.072 -291.763)" fill="#01d866"/>
          </g>
        </g>
      </g>
      <path id="Path_941" data-name="Path 941" d="M726.892,296.262s-4.294-23.216-6.6,57.915c-2.154,75.944-3,155.637-3,155.637s-41.141,1.213-85.177,20.43l-28.5,11.844s74,40.987,126.667,57.347c48.5,15.064,53.053-21.958,47.271-111.947C777.546,487.488,749.96,302.669,726.892,296.262Z" transform="translate(-123.59 -24.163)" fill="#fff" stroke="#01d866" stroke-linejoin="round" stroke-width="1"/>
      <path id="Path_942" data-name="Path 942" d="M589.463,173.763s-61.831,32.977-26.44,66.087l42.015-41.985Z" transform="translate(-180.786 -156.738)" fill="#405391"/>
      <path id="Path_943" data-name="Path 943" d="M613.605,259.473s13.9-.367,22.209,18.455c0,0-9.122-21.371,6.791-39.052Z" transform="translate(-112.492 -84.455)" fill="#1a1a1a"/>
      <path id="Path_944" data-name="Path 944" d="M593.352,181.814s-75.621,74.055-30.3,53.3c94.7-43.355,89.841,65.906,89.841,65.906s13.043-11.884,8.223.555l24.671,38.229s52.724-19.936,55.545-86.355C742.285,231.024,720.224,128.172,593.352,181.814Z" transform="translate(-184.675 -164.789)" fill="#1a1a1a"/>
      <path id="Path_945" data-name="Path 945" d="M585.181,194.583c1.422,11.342,0,56.585,20,59.909s-3.437-56.834-3.437-56.834Z" transform="translate(-144.046 -133.626)" fill="#1a1a1a"/>
      <g id="Group_253" data-name="Group 253" transform="translate(132.335 292.974)">
        <path id="Path_946" data-name="Path 946" d="M684.116,315.728c-23.942,107.64-35.026,218.837-35.026,218.837s-47.3-13.425-92.2-20.677l-49.035-13.169c-1.585-.724-18.582-8.559-24.1-14.02-5.79-5.729-8.979,10.04.129,17.246a86.733,86.733,0,0,1,6.594,5.752l-11.815,1.84a10.478,10.478,0,0,0-5.442,2.591c-8.232,7.459-35.068,32.241-29.985,33.783a9.625,9.625,0,0,0,4.222.179c-9.173,7.577-9.905,15.482-7.333,15.746,3.838.4,8.7-2.353,13.528-6.267-4.243,4.906-9.506,15.763-3.625,15.493,7.9-.363,14.518-6.5,20.819-16.877,0,0-1.553,2.69-.865,2.076l-4.68,7.579s9.542,8.384,16.486,12.279c6.617,3.712,10.494-9.966,1.125-15.592,0,0,3.372-3.38,6.1-10.563,0,0,26.309,12.715,39.755,2.642l8.791.844c22.981,14.391,139.686,66.847,155.675,65.655C729.549,618.4,736.451,547,754.01,390.933,754.01,390.933,694.85,267.465,684.116,315.728Z" transform="translate(-438.839 -304.537)" fill="#fff" stroke="#01d866" stroke-linejoin="round" stroke-width="1"/>
        <path id="Path_947" data-name="Path 947" d="M545.625,413.548s-11.306,6.018-13.585,22.73" transform="translate(-335.375 -183.52)" fill="none" stroke="#01d866" stroke-width="1"/>
      </g>
      <path id="Path_948" data-name="Path 948" d="M831.965,508.1c18.713-3.1,48.934-13.439,48.959-13.551,0,0-11.587-146.006-48.417-189.236-1.872-4.02-8.071-12.355-27.826-15.271-5.864-.865-11.631-1.946-17.145-3.131h0c-19.327-4.157-35.066-9.935-39.563-12.787,0,0,.025.175.057.435-.1-.061-.243-.131-.336-.19a18.309,18.309,0,0,1-.5,8.464c-.129.405-.257.812-.42,1.224-.07.175-.148.352-.224.53a16.962,16.962,0,0,1-1.011,1.988h0c-6.046,9.953-46.06,13.977-86.068-7.166,0,0-68.727,38.976-87.037,52.494-28.111,59.883-40.183,195.117-40.183,188.837,0-1.711,57.28,28.3,94.494,29.93.2,10.61-8.483,160.1-8.483,160.1l232.565-15.011s-27.893-124.438-24.567-150.712C826.656,541.936,831.169,515.764,831.965,508.1Z" transform="translate(-202.801 -45.331)" fill="#fff" stroke="#01d866" stroke-width="1"/>
      <path id="Path_949" data-name="Path 949" d="M612.13,177.391s-79.263-18.485-74.266,1.912,25.488,38.208,25.488,38.208-23.361-.585-11.1,11.274,22.513,10.975,22.513,10.975Z" transform="translate(-196.825 -161.233)" fill="#1a1a1a"/>
      <path id="Path_950" data-name="Path 950" d="M591.257,267.638s8.153-2.053,23.106-15.043" transform="translate(-137.301 -69.225)" fill="none" stroke="#01d866" stroke-width="1"/>
      <path id="Path_951" data-name="Path 951" d="M629.32,261.92s-5.512-102.124-59.183-89.594" transform="translate(-160.747 -159.516)" fill="none" stroke="#fff" stroke-width="2"/>
      <g id="Group_255" data-name="Group 255" transform="translate(431.381 93.144)">
        <g id="Group_254" data-name="Group 254" transform="translate(0 0)">
          <ellipse id="Ellipse_33" data-name="Ellipse 33" cx="34.391" cy="33.555" rx="34.391" ry="33.555" transform="translate(0 68.639) rotate(-86.313)" fill="#01d866" stroke="#01d866" stroke-width="1"/>
          <path id="Path_952" data-name="Path 952" d="M632.2,241.349c-.878,13.617-11.785,24-24.361,23.186s-22.061-12.507-21.184-26.121,11.785-24,24.362-23.186S633.074,227.734,632.2,241.349Z" transform="translate(-573.856 -203.901)" fill="#fff"/>
        </g>
      </g>
      <g id="Group_256" data-name="Group 256" transform="translate(391.09 96.882)">
        <path id="Path_953" data-name="Path 953" d="M562.572,225.082c.025,2.743,1.756,4.952,3.868,4.933s3.8-2.26,3.777-5-1.756-4.955-3.868-4.936S562.547,222.337,562.572,225.082Z" transform="translate(-560.235 -202.206)" fill="#01d866"/>
        <path id="Path_954" data-name="Path 954" d="M582.459,220.051c-3.083-4.229-7.457-5.716-10.933-6.847-3.859-1.256-7.658-2.49-9.284-.694a3.852,3.852,0,0,0-.192,4.372c1.165,1.785,3.781,1.72,6.216,1.973,9.477.985,14.893,6.664,15.967,5.269C584.848,223.326,583.291,221.19,582.459,220.051Z" transform="translate(-561.464 -211.608)" fill="#01d866"/>
      </g>
      <path id="Path_955" data-name="Path 955" d="M562.9,249.71s10.4-.428,17.172-7.369" transform="translate(-168.782 -80.608)" fill="none" stroke="#01d866" stroke-width="1"/>
      <path id="Path_956" data-name="Path 956" d="M544.213,167.05c.688-.089,31.933-8.59,55.574,18.12" transform="translate(-189.526 -165.695)" fill="none" stroke="#405391" stroke-width="1"/>
      <path id="Path_957" data-name="Path 957" d="M634.237,175.452l-2.4,24.351s6.273-12.07,18.7-3.916" transform="translate(-92.256 -154.863)" fill="none" stroke="#405391" stroke-width="1"/>
      <path id="Path_958" data-name="Path 958" d="M567.81,187.968s-26.478,37.417-12.967,37.341c20.4-.114,40.574-26.63,36.877-28.008S567.81,187.968,567.81,187.968Z" transform="translate(-181.988 -140.969)" fill="#1a1a1a"/>
      <path id="Path_959" data-name="Path 959" d="M445.86,440.7l10.376-21.983,11.236-8.9" transform="translate(-298.71 105.309)" fill="#fff" stroke="#01d866" stroke-width="1"/>
      <line id="Line_31" data-name="Line 31" y1="13.611" x2="12.019" transform="translate(140.954 522.916)" fill="#fff" stroke="#01d866" stroke-width="1"/>
      <path id="Path_960" data-name="Path 960" d="M474.067,411.1l-13.42,9.521L453.6,439.96" transform="translate(-290.12 106.739)" fill="#fff" stroke="#01d866" stroke-linejoin="round" stroke-width="1"/>
      <g id="Group_257" data-name="Group 257" transform="translate(369.637 284.896)">
        <path id="Path_961" data-name="Path 961" d="M551.3,302.377s85.464-21.141,83.565,87.108l-3.925,129.773A115.759,115.759,0,0,1,598.39,520.6" transform="translate(-551.298 -300.709)" fill="none" stroke="#01d866" stroke-width="1"/>
      </g>
      <path id="Path_962" data-name="Path 962" d="M672.775,314.371s17.917,43.344,18.231,81.441c.171,20.479-15.062,67.841-15.062,67.841" transform="translate(-46.806 -0.645)" fill="none" stroke="#01d866" stroke-width="1"/>
      <line id="Line_32" data-name="Line 32" y1="2.106" x2="14.654" transform="translate(183.974 496.028)" fill="#fff" stroke="#01d866" stroke-linejoin="round" stroke-width="1"/>
    </g>
    <path id="Path_979" data-name="Path 979" d="M0,0H271.272" transform="translate(222.221 707.629)" fill="#fff" stroke="#fff" stroke-width="1"/>
  </g>
</svg>
