<svg id="calendar" xmlns="http://www.w3.org/2000/svg" width="17.078" height="17.078" viewBox="0 0 17.078 17.078">
  <g id="Group_423" data-name="Group 423">
    <g id="Group_422" data-name="Group 422">
      <path id="Path_1109" data-name="Path 1109" d="M15.076,1.334h-.8V0H12.942V1.334H4.136V0H2.8V1.334H2a2,2,0,0,0-2,2V15.076a2,2,0,0,0,2,2H15.076a2,2,0,0,0,2-2V3.336A2,2,0,0,0,15.076,1.334Zm.667,13.742a.668.668,0,0,1-.667.667H2a.668.668,0,0,1-.667-.667V6.271H15.744Zm0-10.14H1.334v-1.6A.668.668,0,0,1,2,2.668h.8V4H4.136V2.668h8.806V4h1.334V2.668h.8a.668.668,0,0,1,.667.667Z"/>
    </g>
  </g>
  <g id="Group_425" data-name="Group 425" transform="translate(2.521 7.732)">
    <g id="Group_424" data-name="Group 424" transform="translate(0 0)">
      <rect id="Rectangle_373" data-name="Rectangle 373" width="1.345" height="1.345"/>
    </g>
  </g>
  <g id="Group_427" data-name="Group 427" transform="translate(5.211 7.732)">
    <g id="Group_426" data-name="Group 426" transform="translate(0 0)">
      <rect id="Rectangle_374" data-name="Rectangle 374" width="1.345" height="1.345"/>
    </g>
  </g>
  <g id="Group_429" data-name="Group 429" transform="translate(7.9 7.732)">
    <g id="Group_428" data-name="Group 428" transform="translate(0 0)">
      <rect id="Rectangle_375" data-name="Rectangle 375" width="1.345" height="1.345"/>
    </g>
  </g>
  <g id="Group_431" data-name="Group 431" transform="translate(10.59 7.732)">
    <g id="Group_430" data-name="Group 430" transform="translate(0 0)">
      <rect id="Rectangle_376" data-name="Rectangle 376" width="1.345" height="1.345"/>
    </g>
  </g>
  <g id="Group_433" data-name="Group 433" transform="translate(13.279 7.732)">
    <g id="Group_432" data-name="Group 432" transform="translate(0 0)">
      <rect id="Rectangle_377" data-name="Rectangle 377" width="1.345" height="1.345"/>
    </g>
  </g>
  <g id="Group_435" data-name="Group 435" transform="translate(2.521 10.421)">
    <g id="Group_434" data-name="Group 434" transform="translate(0 0)">
      <rect id="Rectangle_378" data-name="Rectangle 378" width="1.345" height="1.177"/>
    </g>
  </g>
  <g id="Group_437" data-name="Group 437" transform="translate(5.211 10.421)">
    <g id="Group_436" data-name="Group 436" transform="translate(0 0)">
      <rect id="Rectangle_379" data-name="Rectangle 379" width="1.345" height="1.177"/>
    </g>
  </g>
  <g id="Group_439" data-name="Group 439" transform="translate(7.9 10.421)">
    <g id="Group_438" data-name="Group 438" transform="translate(0 0)">
      <rect id="Rectangle_380" data-name="Rectangle 380" width="1.345" height="1.177"/>
    </g>
  </g>
  <g id="Group_441" data-name="Group 441" transform="translate(10.59 10.421)">
    <g id="Group_440" data-name="Group 440" transform="translate(0 0)">
      <rect id="Rectangle_381" data-name="Rectangle 381" width="1.345" height="1.177"/>
    </g>
  </g>
  <g id="Group_443" data-name="Group 443" transform="translate(2.521 12.943)">
    <g id="Group_442" data-name="Group 442" transform="translate(0 0)">
      <rect id="Rectangle_382" data-name="Rectangle 382" width="1.345" height="1.345"/>
    </g>
  </g>
  <g id="Group_445" data-name="Group 445" transform="translate(5.211 12.943)">
    <g id="Group_444" data-name="Group 444" transform="translate(0 0)">
      <rect id="Rectangle_383" data-name="Rectangle 383" width="1.345" height="1.345"/>
    </g>
  </g>
  <g id="Group_447" data-name="Group 447" transform="translate(7.9 12.943)">
    <g id="Group_446" data-name="Group 446" transform="translate(0 0)">
      <rect id="Rectangle_384" data-name="Rectangle 384" width="1.345" height="1.345"/>
    </g>
  </g>
  <g id="Group_449" data-name="Group 449" transform="translate(10.59 12.943)">
    <g id="Group_448" data-name="Group 448" transform="translate(0 0)">
      <rect id="Rectangle_385" data-name="Rectangle 385" width="1.345" height="1.345"/>
    </g>
  </g>
  <g id="Group_451" data-name="Group 451" transform="translate(13.279 10.421)">
    <g id="Group_450" data-name="Group 450" transform="translate(0 0)">
      <rect id="Rectangle_386" data-name="Rectangle 386" width="1.345" height="1.177"/>
    </g>
  </g>
</svg>
