<svg xmlns="http://www.w3.org/2000/svg" width="21.887" height="26" viewBox="0 0 21.887 26">
  <path id="copy" d="M13.762,26h-9.7A4.067,4.067,0,0,1,0,21.938V8.176A4.067,4.067,0,0,1,4.062,4.113h9.7a4.067,4.067,0,0,1,4.063,4.063V21.938A4.067,4.067,0,0,1,13.762,26ZM4.062,6.145A2.034,2.034,0,0,0,2.031,8.176V21.938a2.034,2.034,0,0,0,2.031,2.031h9.7a2.034,2.034,0,0,0,2.031-2.031V8.176a2.034,2.034,0,0,0-2.031-2.031ZM21.887,19.4V4.063A4.067,4.067,0,0,0,17.824,0H6.551a1.016,1.016,0,0,0,0,2.031H17.824a2.034,2.034,0,0,1,2.031,2.031V19.4a1.016,1.016,0,1,0,2.031,0Zm0,0" fill="#01d866"/>
</svg>
