<svg xmlns="http://www.w3.org/2000/svg" width="18.14" height="20" viewBox="0 0 18.14 20">
  <g id="calendar" transform="translate(-2.25 -1.25)">
    <path id="Path_80" data-name="Path 80" d="M7.948,5.436a.7.7,0,0,1-.7-.7V1.948a.7.7,0,1,1,1.4,0V4.738A.7.7,0,0,1,7.948,5.436Z" transform="translate(-0.349 0)" fill="#aaa"/>
    <path id="Path_81" data-name="Path 81" d="M15.948,5.436a.7.7,0,0,1-.7-.7V1.948a.7.7,0,0,1,1.4,0V4.738A.7.7,0,0,1,15.948,5.436Z" transform="translate(-0.907 0)" fill="#aaa"/>
    <path id="Path_82" data-name="Path 82" d="M8.43,14.361a.926.926,0,0,1-.353-.074.893.893,0,0,1-.577-.856.926.926,0,0,1,.074-.353,1.074,1.074,0,0,1,.2-.307.96.96,0,0,1,.307-.2.95.95,0,0,1,1.014.2.978.978,0,0,1,.27.66,1.4,1.4,0,0,1-.019.186.591.591,0,0,1-.056.167.7.7,0,0,1-.084.167,1.466,1.466,0,0,1-.112.14.978.978,0,0,1-.66.27Z" transform="translate(-0.366 -0.785)" fill="#aaa"/>
    <path id="Path_83" data-name="Path 83" d="M11.93,14.36a.926.926,0,0,1-.353-.074A.893.893,0,0,1,11,13.43a.926.926,0,0,1,.074-.353,1.074,1.074,0,0,1,.2-.307.96.96,0,0,1,.307-.2.932.932,0,0,1,1.014.2.978.978,0,0,1,.27.66,1.4,1.4,0,0,1-.019.186.591.591,0,0,1-.056.167.7.7,0,0,1-.084.167,1.466,1.466,0,0,1-.112.14.978.978,0,0,1-.66.27Z" transform="translate(-0.61 -0.785)" fill="#aaa"/>
    <path id="Path_84" data-name="Path 84" d="M15.43,14.36a.926.926,0,0,1-.353-.074.96.96,0,0,1-.307-.2l-.112-.14a.7.7,0,0,1-.084-.167.591.591,0,0,1-.056-.167,1.4,1.4,0,0,1-.019-.186.978.978,0,0,1,.27-.66.96.96,0,0,1,.307-.2.929.929,0,0,1,1.014.2.978.978,0,0,1,.27.66,1.4,1.4,0,0,1-.019.186.591.591,0,0,1-.056.167.7.7,0,0,1-.084.167,1.466,1.466,0,0,1-.112.14.978.978,0,0,1-.66.27Z" transform="translate(-0.855 -0.785)" fill="#aaa"/>
    <path id="Path_85" data-name="Path 85" d="M8.43,17.861a.926.926,0,0,1-.353-.074,1.075,1.075,0,0,1-.307-.2.978.978,0,0,1-.27-.66.926.926,0,0,1,.074-.353.868.868,0,0,1,.2-.307.934.934,0,1,1,.66,1.591Z" transform="translate(-0.366 -1.03)" fill="#aaa"/>
    <path id="Path_86" data-name="Path 86" d="M11.93,17.861a.921.921,0,0,1-.93-.93.926.926,0,0,1,.074-.353.868.868,0,0,1,.2-.307.974.974,0,0,1,1.321,0,.868.868,0,0,1,.2.307.926.926,0,0,1,.074.353.921.921,0,0,1-.93.93Z" transform="translate(-0.61 -1.03)" fill="#aaa"/>
    <path id="Path_87" data-name="Path 87" d="M15.43,17.86a.978.978,0,0,1-.66-.27.868.868,0,0,1-.2-.307.877.877,0,0,1,0-.707.868.868,0,0,1,.2-.307.929.929,0,0,1,.837-.251.561.561,0,0,1,.177.056.7.7,0,0,1,.167.084,1.465,1.465,0,0,1,.14.112.93.93,0,0,1-.66,1.591Z" transform="translate(-0.855 -1.029)" fill="#aaa"/>
    <path id="Path_88" data-name="Path 88" d="M19.262,9.735H3.448a.7.7,0,1,1,0-1.4H19.262a.7.7,0,0,1,0,1.4Z" transform="translate(-0.035 -0.495)" fill="#aaa"/>
    <path id="Path_89" data-name="Path 89" d="M15.041,21.355H7.6c-3.4,0-5.349-1.953-5.349-5.349V8.1C2.25,4.7,4.2,2.75,7.6,2.75h7.442c3.4,0,5.349,1.953,5.349,5.349v7.907C20.39,19.4,18.436,21.355,15.041,21.355ZM7.6,4.145c-2.66,0-3.953,1.293-3.953,3.953v7.907c0,2.66,1.293,3.953,3.953,3.953h7.442c2.66,0,3.953-1.293,3.953-3.953V8.1c0-2.66-1.293-3.953-3.953-3.953Z" transform="translate(0 -0.105)" fill="#aaa"/>
  </g>
</svg>
