<svg xmlns="http://www.w3.org/2000/svg" width="13.09" height="16" viewBox="0 0 13.09 16">
  <g id="delete_1_" data-name="delete (1)" transform="translate(-3 -1)">
    <path id="Path_1075" data-name="Path 1075" d="M14.909,7a.727.727,0,0,0-.727.727v8.138a1.4,1.4,0,0,1-1.462,1.316h-5.8a1.4,1.4,0,0,1-1.462-1.316V7.727A.727.727,0,0,0,4,7.727v8.138a2.849,2.849,0,0,0,2.916,2.77h5.8a2.849,2.849,0,0,0,2.916-2.77V7.727A.727.727,0,0,0,14.909,7Z" transform="translate(-0.273 -1.637)" fill="#878787"/>
    <path id="Path_1076" data-name="Path 1076" d="M15.363,3.182H12.454V1.727A.727.727,0,0,0,11.727,1H7.363a.727.727,0,0,0-.727.727V3.182H3.727a.727.727,0,0,0,0,1.454H15.363a.727.727,0,0,0,0-1.454Zm-7.272,0V2.454H11v.727Z" fill="#878787"/>
    <path id="Path_1077" data-name="Path 1077" d="M10.454,14.818V9.727A.727.727,0,1,0,9,9.727v5.091a.727.727,0,0,0,1.454,0Z" transform="translate(-1.637 -2.182)" fill="#878787"/>
    <path id="Path_1078" data-name="Path 1078" d="M14.454,14.818V9.727a.727.727,0,0,0-1.454,0v5.091a.727.727,0,1,0,1.454,0Z" transform="translate(-2.728 -2.182)" fill="#878787"/>
  </g>
</svg>
