<svg xmlns="http://www.w3.org/2000/svg" width="94.457" height="63.012" viewBox="0 0 94.457 63.012">
  <g id="Group_128" data-name="Group 128" transform="translate(1.5 1.506)">
    <g id="g289" transform="translate(20.965 24.195)">
      <path id="path291" d="M-32.986-17.321a1.34,1.34,0,0,0,1.34-1.34A1.34,1.34,0,0,0-32.986-20H-36.75a1.34,1.34,0,0,0-1.34,1.34v8.931a1.34,1.34,0,0,0,1.34,1.34h3.763a1.34,1.34,0,0,0,1.34-1.34,1.34,1.34,0,0,0-1.34-1.34H-35.41v-1.786h2.146a1.34,1.34,0,0,0,1.34-1.34,1.34,1.34,0,0,0-1.34-1.34H-35.41v-1.786Z" transform="translate(38.089 20)" fill="#01d866"/>
    </g>
    <g id="g293" transform="translate(10.364 24.195)">
      <path id="path295" d="M-39.656-37.528c0,1.527-.685,3.08-2.216,3.107-.287.005-.762.009-1.227.012,0-1.038-.009-5.163-.011-6.245h1.188c2.1,0,2.267,2.393,2.267,3.126m-6.123,4.549a1.249,1.249,0,0,0,1.253,1.248c1.109,0,2.459-.006,2.7-.011,2.81-.049,4.849-2.482,4.849-5.786,0-3.472-1.988-5.805-4.946-5.805H-44.54a1.25,1.25,0,0,0-1.25,1.252c0,1.566.009,6.705.011,9.1" transform="translate(45.791 43.333)" fill="#01d866"/>
    </g>
    <g id="g297" transform="translate(29.193 24.194)">
      <path id="path299" d="M-52.445-.55A1.34,1.34,0,0,0-54.139.3L-56,5.9-57.952.265a1.34,1.34,0,0,0-1.7-.826,1.34,1.34,0,0,0-.826,1.7l3.057,8.807a1.543,1.543,0,0,0,1.452,1.025h.011a1.546,1.546,0,0,0,1.452-1.054L-51.6,1.143A1.34,1.34,0,0,0-52.445-.55" transform="translate(60.558 0.635)" fill="#01d866"/>
    </g>
    <g id="g301" transform="translate(64.869 24.195)">
      <path id="path303" d="M-24.737-17.321a1.222,1.222,0,0,1,1.23,1.181,1.222,1.222,0,0,1-1.23,1.181l-1.137,0c0-.449-.005-1.894-.006-2.365Zm-3.827,7.592A1.34,1.34,0,0,0-27.183-8.39a1.377,1.377,0,0,0,1.3-1.4v-2.491l1.147,0a3.89,3.89,0,0,0,3.909-3.86A3.89,3.89,0,0,0-24.737-20h-2.576a1.25,1.25,0,0,0-1.25,1.25Z" transform="translate(28.564 20)" fill="#01d866"/>
    </g>
    <g id="g305" transform="translate(51.471 24.195)">
      <path id="path307" d="M-37.528-17.321A3.13,3.13,0,0,1-34.4-14.195a3.13,3.13,0,0,1-3.126,3.126,3.13,3.13,0,0,1-3.126-3.126,3.13,3.13,0,0,1,3.126-3.126m0,8.931a5.812,5.812,0,0,0,5.805-5.805A5.812,5.812,0,0,0-37.528-20a5.812,5.812,0,0,0-5.805,5.805,5.812,5.812,0,0,0,5.805,5.805" transform="translate(43.333 20)" fill="#01d866"/>
    </g>
    <g id="g309" transform="translate(74.39 24.194)">
      <path id="path311" d="M-28.734-57.738a2.874,2.874,0,0,1-2.113-.881,1.34,1.34,0,0,0-1.892-.093,1.34,1.34,0,0,0-.093,1.892,5.516,5.516,0,0,0,4.1,1.761,3.9,3.9,0,0,0,3.972-3.036c.238-1.332-.356-3.069-2.735-3.946-1.055-.389-2.04-.812-2.383-.962A.394.394,0,0,1-30-63.357c.016-.115.1-.395.55-.53a2.369,2.369,0,0,1,2.052.331,1.34,1.34,0,0,0,1.677.344,1.34,1.34,0,0,0,.55-1.813c-.474-.887-2.627-2.159-5.053-1.427a3.358,3.358,0,0,0-2.43,2.714,3.056,3.056,0,0,0,1.364,3.025,1.343,1.343,0,0,0,.186.1c.052.023,1.286.572,2.674,1.085.542.2,1.1.558,1.024.962a1.291,1.291,0,0,1-1.335.827" transform="translate(33.18 66.67)" fill="#01d866"/>
    </g>
    <g id="g313" transform="translate(0 0)">
      <path id="path315" d="M-480.094-44.177l2.8-1.96a2.679,2.679,0,0,0,.658-3.732,2.679,2.679,0,0,0-3.732-.658l-8.277,5.8A2.679,2.679,0,0,0-489.3-41l5.8,8.277a2.679,2.679,0,0,0,3.731.658,2.679,2.679,0,0,0,.658-3.732l-2.207-3.152a18.874,18.874,0,0,1,13.046,18.7A18.9,18.9,0,0,1-486.826-2.168a18.866,18.866,0,0,1-19.128-18.843,24.231,24.231,0,0,0-24.394-24.2,24.275,24.275,0,0,0-24.014,24.293A24.246,24.246,0,0,0-537.174,2.155l-2.8,1.96a2.679,2.679,0,0,0-.658,3.732A2.679,2.679,0,0,0-536.9,8.5l8.277-5.8a2.679,2.679,0,0,0,.658-3.732l-5.8-8.277a2.679,2.679,0,0,0-3.732-.658,2.679,2.679,0,0,0-.658,3.732l2.207,3.152a18.874,18.874,0,0,1-13.046-18.7,18.9,18.9,0,0,1,18.546-18.076,18.866,18.866,0,0,1,19.128,18.843,24.231,24.231,0,0,0,24.394,24.2A24.276,24.276,0,0,0-462.906-21.1a24.247,24.247,0,0,0-17.188-23.077" transform="translate(554.362 51.011)" fill="#01d866" stroke="#fff" stroke-width="3"/>
    </g>
  </g>
</svg>
