<svg id="Layer_2" data-name="Layer 2" xmlns="http://www.w3.org/2000/svg" width="40" height="40" viewBox="0 0 40 40">
  <g id="Filled">
    <g id="_28.Laugh-Beam" data-name="28.Laugh-Beam">
      <circle id="Background" cx="20" cy="20" r="20" fill="#ffdd67"/>
      <g id="Face" transform="translate(8.062 10.574)">
        <path id="Mouth" d="M59.143,102.273c-.03,1.7-1.346,5.851-6.039,8.4a12.091,12.091,0,0,1-11.79,0c-4.693-2.553-6.009-6.7-6.039-8.4A1.45,1.45,0,0,1,36.8,100.54H57.61C58.814,100.54,59.2,101.317,59.143,102.273Z" transform="translate(-35.272 -88.133)" fill="#b26d3c"/>
        <path id="Eye_02" data-name="Eye 02" d="M101.156,49.436c-2.514,0-4.546,3.8-4.546,2.35s2.034-5.115,4.546-5.115,4.549,3.657,4.549,5.115-2.037-2.35-4.549-2.35Z" transform="translate(-82.59 -46.576)" fill="#b26d3c"/>
        <path id="Eye_01" data-name="Eye 01" d="M43.149,49.023c-2.514,0-4.549,3.8-4.549,2.352s2.037-5.115,4.549-5.115,4.546,3.657,4.546,5.115S45.661,49.023,43.149,49.023Z" transform="translate(-37.839 -46.26)" fill="#b26d3c"/>
      </g>
    </g>
  </g>
</svg>
