<svg id="Layer_2" data-name="Layer 2" xmlns="http://www.w3.org/2000/svg" width="40" height="40" viewBox="0 0 40 40">
  <g id="stroke_copy_4" data-name="stroke copy 4">
    <g id="_70" data-name="70">
      <circle id="Ellipse_24" data-name="Ellipse 24" cx="20" cy="20" r="20" fill="#ffdd67"/>
      <g id="Group_146" data-name="Group 146" transform="translate(6.057 9.371)">
        <path id="Path_566" data-name="Path 566" d="M174.25,328.22H161.672a1.172,1.172,0,0,0-1.172,1.172,7.461,7.461,0,0,0,14.922,0A1.172,1.172,0,0,0,174.25,328.22Zm-6.289,6.289a5.127,5.127,0,0,1-4.982-3.945h9.964A5.127,5.127,0,0,1,167.961,334.509Z" transform="translate(-154.018 -311.949)" fill="#b26d3c" stroke="#ffdd67" stroke-width="1"/>
        <path id="Path_567" data-name="Path 567" d="M288.715,123.57l-2.818-.412-1.26-2.553a1.172,1.172,0,0,0-2.1,0l-1.26,2.553-2.818.41a1.172,1.172,0,0,0-.651,2l2.04,1.988-.477,2.806a1.172,1.172,0,0,0,1.7,1.236l2.52-1.328,2.521,1.328a1.172,1.172,0,0,0,1.7-1.236l-.481-2.806,2.044-1.988a1.172,1.172,0,0,0-.649-2Zm-3.467,2.738a1.172,1.172,0,0,0-.333,1.037l.184,1.074-.966-.507a1.172,1.172,0,0,0-1.094,0l-.964.507.183-1.074a1.172,1.172,0,0,0-.337-1.037l-.781-.761,1.078-.156a1.172,1.172,0,0,0,.882-.641l.482-.977.483.977a1.172,1.172,0,0,0,.882.641l1.078.156Z" transform="translate(-261.831 -119.95)" fill="#b26d3c" stroke="#ffdd67" stroke-width="1"/>
        <path id="Path_568" data-name="Path 568" d="M86.722,131.733a1.172,1.172,0,0,0,1.152-1.37l-.481-2.806,2.044-1.988a1.172,1.172,0,0,0-.65-2l-2.819-.412-1.26-2.553a1.172,1.172,0,0,0-2.1,0l-1.26,2.553-2.818.41a1.172,1.172,0,0,0-.649,2l2.039,1.988-.48,2.809a1.172,1.172,0,0,0,1.7,1.236l2.521-1.328,2.52,1.328A1.172,1.172,0,0,0,86.722,131.733Zm-1.406-5.425a1.172,1.172,0,0,0-.333,1.037l.184,1.074-.966-.507a1.172,1.172,0,0,0-1.094,0l-.965.507.184-1.074a1.172,1.172,0,0,0-.337-1.037l-.781-.761,1.078-.156a1.172,1.172,0,0,0,.882-.641l.483-.977.482.977a1.172,1.172,0,0,0,.882.641l1.078.156Z" transform="translate(-77.524 -119.95)" fill="#b26d3c" stroke="#ffdd67" stroke-width="1"/>
      </g>
    </g>
  </g>
</svg>
