<svg xmlns="http://www.w3.org/2000/svg" xmlns:xlink="http://www.w3.org/1999/xlink" width="114" height="114" viewBox="0 0 114 114">
  <defs>
    <clipPath id="clip-path">
      <path id="Path_244" data-name="Path 244" d="M2052.895,1366.091a55,55,0,1,1,55,55A55,55,0,0,1,2052.895,1366.091Z" transform="translate(-2052.895 -1311.091)" fill="#5d394b"/>
    </clipPath>
  </defs>
  <g id="Group_327" data-name="Group 327" transform="translate(2 2)">
    <g id="Path_189" data-name="Path 189" transform="translate(-2052.895 -1311.091)" fill="#bef2d5">
      <path d="M 2107.89453125 1422.0908203125 C 2100.334716796875 1422.0908203125 2093.000732421875 1420.610107421875 2086.095947265625 1417.689697265625 C 2082.777587890625 1416.2861328125 2079.576904296875 1414.548950195312 2076.583251953125 1412.5263671875 C 2073.6181640625 1410.523193359375 2070.829833984375 1408.222778320312 2068.296142578125 1405.68896484375 C 2065.76220703125 1403.155029296875 2063.4619140625 1400.366821289062 2061.458740234375 1397.401733398438 C 2059.436279296875 1394.407958984375 2057.698974609375 1391.207397460938 2056.29541015625 1387.889038085938 C 2053.375244140625 1380.984375 2051.89453125 1373.650390625 2051.89453125 1366.0908203125 C 2051.89453125 1358.53125 2053.375244140625 1351.197265625 2056.29541015625 1344.292602539062 C 2057.698974609375 1340.974243164062 2059.436279296875 1337.773681640625 2061.458740234375 1334.779907226562 C 2063.4619140625 1331.814819335938 2065.76220703125 1329.026611328125 2068.296142578125 1326.49267578125 C 2070.829833984375 1323.958862304688 2073.6181640625 1321.658447265625 2076.583251953125 1319.6552734375 C 2079.576904296875 1317.632690429688 2082.777587890625 1315.8955078125 2086.095947265625 1314.491943359375 C 2093.000732421875 1311.571533203125 2100.334716796875 1310.0908203125 2107.89453125 1310.0908203125 C 2115.453857421875 1310.0908203125 2122.78759765625 1311.571533203125 2129.6923828125 1314.491943359375 C 2133.0107421875 1315.8955078125 2136.211181640625 1317.632690429688 2139.205078125 1319.6552734375 C 2142.170166015625 1321.658447265625 2144.95849609375 1323.958862304688 2147.4921875 1326.49267578125 C 2150.026123046875 1329.026611328125 2152.32666015625 1331.814819335938 2154.329833984375 1334.779907226562 C 2156.3525390625 1337.773681640625 2158.089599609375 1340.974243164062 2159.4931640625 1344.292602539062 C 2162.413818359375 1351.197265625 2163.89453125 1358.53125 2163.89453125 1366.0908203125 C 2163.89453125 1373.650390625 2162.413818359375 1380.984375 2159.4931640625 1387.889038085938 C 2158.089599609375 1391.207397460938 2156.3525390625 1394.407958984375 2154.329833984375 1397.401733398438 C 2152.32666015625 1400.366821289062 2150.026123046875 1403.155029296875 2147.4921875 1405.68896484375 C 2144.95849609375 1408.222778320312 2142.170166015625 1410.523193359375 2139.205078125 1412.5263671875 C 2136.211181640625 1414.548950195312 2133.0107421875 1416.2861328125 2129.6923828125 1417.689697265625 C 2122.78759765625 1420.610107421875 2115.453857421875 1422.0908203125 2107.89453125 1422.0908203125 Z" stroke="none"/>
      <path d="M 2107.89453125 1311.0908203125 C 2077.517578125 1311.0908203125 2052.89453125 1335.71484375 2052.89453125 1366.0908203125 C 2052.89453125 1396.466796875 2077.517578125 1421.0908203125 2107.89453125 1421.0908203125 C 2138.26953125 1421.0908203125 2162.89453125 1396.466796875 2162.89453125 1366.0908203125 C 2162.89453125 1335.71484375 2138.26953125 1311.0908203125 2107.89453125 1311.0908203125 M 2107.89453125 1309.0908203125 C 2115.58837890625 1309.0908203125 2123.053466796875 1310.59814453125 2130.081787109375 1313.570922851562 C 2133.459716796875 1314.999633789062 2136.717529296875 1316.767944335938 2139.764892578125 1318.82666015625 C 2142.78271484375 1320.865356445312 2145.620361328125 1323.206787109375 2148.199462890625 1325.78564453125 C 2150.7783203125 1328.364501953125 2153.11962890625 1331.202270507812 2155.158447265625 1334.220092773438 C 2157.21728515625 1337.267333984375 2158.985595703125 1340.525146484375 2160.414306640625 1343.903076171875 C 2163.38720703125 1350.931640625 2164.89453125 1358.396728515625 2164.89453125 1366.0908203125 C 2164.89453125 1373.784912109375 2163.38720703125 1381.25 2160.414306640625 1388.278564453125 C 2158.985595703125 1391.656494140625 2157.21728515625 1394.914306640625 2155.158447265625 1397.961547851562 C 2153.11962890625 1400.979370117188 2150.7783203125 1403.817138671875 2148.199462890625 1406.39599609375 C 2145.620361328125 1408.974853515625 2142.78271484375 1411.316162109375 2139.764892578125 1413.35498046875 C 2136.717529296875 1415.413696289062 2133.459716796875 1417.182006835938 2130.081787109375 1418.610717773438 C 2123.053466796875 1421.58349609375 2115.58837890625 1423.0908203125 2107.89453125 1423.0908203125 C 2100.2001953125 1423.0908203125 2092.735107421875 1421.58349609375 2085.706298828125 1418.610717773438 C 2082.328369140625 1417.182006835938 2079.070556640625 1415.413696289062 2076.0234375 1413.35498046875 C 2073.005615234375 1411.316162109375 2070.167724609375 1408.974853515625 2067.5888671875 1406.39599609375 C 2065.010009765625 1403.817138671875 2062.6689453125 1400.979370117188 2060.630126953125 1397.961547851562 C 2058.571533203125 1394.914306640625 2056.80322265625 1391.656494140625 2055.37451171875 1388.278564453125 C 2052.40185546875 1381.25 2050.89453125 1373.785034179688 2050.89453125 1366.0908203125 C 2050.89453125 1358.396606445312 2052.40185546875 1350.931640625 2055.37451171875 1343.903076171875 C 2056.80322265625 1340.525146484375 2058.571533203125 1337.267333984375 2060.630126953125 1334.220092773438 C 2062.6689453125 1331.202270507812 2065.010009765625 1328.364501953125 2067.5888671875 1325.78564453125 C 2070.167724609375 1323.206787109375 2073.005615234375 1320.865356445312 2076.0234375 1318.82666015625 C 2079.070556640625 1316.767944335938 2082.328369140625 1314.999633789062 2085.706298828125 1313.570922851562 C 2092.735107421875 1310.59814453125 2100.2001953125 1309.0908203125 2107.89453125 1309.0908203125 Z" stroke="none" fill="#fff"/>
    </g>
    <g id="Group_87" data-name="Group 87" transform="translate(0 0)" clip-path="url(#clip-path)">
      <g id="Group_129" data-name="Group 129" transform="translate(16.223 20.174)">
        <path id="Path_483" data-name="Path 483" d="M656.323,1005.109c-5.689,6.809-12.922,9.087-15.759,9.087-2.9,0-10.74-2-16.588-9.087-3.314-4.015-5.642-15.528-6.513-21.049-.5-3.17-.907-9.9,1.315-13.281,3.49-5.3,10.025-9.031,20.942-9.031,4.13,0,9.938-.138,10.632,2.608,5.581-.195,8.407,2.7,9.784,5.182,2.01,3.617,2.758,8.684,2.242,13.511C661.7,989.415,659.737,1001.026,656.323,1005.109Z" transform="translate(-602.759 -961.747)" fill="#341e13"/>
        <path id="Path_484" data-name="Path 484" d="M621.625,1055.612s.677-5.272-3.894-3.982c-3.519.991.1,10.764,2.413,11.6,1.983.716,2.413-.8,2.413-.8Z" transform="translate(-602.189 -1025.116)" fill="#f9ab78"/>
        <path id="Path_485" data-name="Path 485" d="M755.276,1055.612s-.678-5.272,3.893-3.982c3.519.991-.1,10.764-2.415,11.6-1.983.716-2.413-.8-2.413-.8Z" transform="translate(-699.758 -1025.116)" fill="#f9ab78"/>
        <path id="Path_486" data-name="Path 486" d="M664.763,1187.9c1.011-14.635,1.077-26.854,1.077-26.854s-9.571-4.2-15.069-5.515a65.494,65.494,0,0,0-23.744,0c-5.5,1.319-14.91,5.515-14.91,5.515a219,219,0,0,0,.941,26.854Z" transform="translate(-599.201 -1097.902)" fill="#e8e8e8"/>
        <path id="Path_487" data-name="Path 487" d="M673.109,1142.63s10.569-8.939,9.9-9.507c-3.09-2.627-2.224-9.435-2.224-9.435H665.564s1.411,8.25-2.446,10.119C662.791,1133.966,673.109,1142.63,673.109,1142.63Z" transform="translate(-635.292 -1076.177)" fill="#f9ab78"/>
        <path id="Path_488" data-name="Path 488" d="M667.521,999.387c-.777,5.784-1.352,8.865-4.357,13.214-5,7.247-11.366,9.672-13.863,9.672-2.55,0-9.448-2.124-14.593-9.672-2.914-4.277-3.4-7.968-4.191-13.214-.949-6.305-1.025-4.08-1.025-10.031,0-12.116,4.677-20.867,18.263-20.867s20.529,7.614,20.736,20.053C668.6,995.357,668.369,993.048,667.521,999.387Z" transform="translate(-611.537 -966.511)" fill="#f9ab78"/>
        <path id="Path_489" data-name="Path 489" d="M632.681,988.31c1.823-1.9,6.322-1.817,8.876-1.894,2.405-.072,8.192-.024,9.966-2.092,1.572-1.833,4.456-4.5,7.054-4.5,6.021,0,7.026,8.97,7.978,13.808.255,1.3.584,2.626.937,3.967.009-.068.018-.132.029-.2.848-6.34,1.083-4.031.97-10.846-.206-12.438-6.755-20.881-20.352-20.881s-18.647,9.579-18.647,21.7c0,5.675.07,3.932.9,9.225C631.554,994.133,630.526,990.553,632.681,988.31Z" transform="translate(-611.537 -964.516)" fill="#e2d3cd" style="mix-blend-mode: multiply;isolation: isolate"/>
        <path id="Path_490" data-name="Path 490" d="M633.807,1079.226c.678,4.427.74,7.615,3.348,11.443,5.147,7.547,12.645,9.852,15.2,9.852,2.5,0,9.51-2.4,14.515-9.645,2.714-3.93,2.8-6.859,3.482-11.65l-5.55,9.1s-3.891,5-8.882,6.851c-1.071.4-2.778-3.4-3.861-3.4-1.362,0-2.736,3.89-4.111,3.3-4.8-2.078-9.134-6.744-9.134-6.744Z" transform="translate(-614.586 -1044.759)" fill="#341e13"/>
        <path id="Path_491" data-name="Path 491" d="M629.046,986.438c4.5-3.4,20.494,1.1,26.286-8.915,6.905.089,8.364,6.893,9.466,9.374s1.078,10.711,1.109,10.5c.848-6.34,1.853-3.864,1.74-10.679-.208-12.44-7.526-21.048-21.122-21.048s-19.317,9.573-19.317,21.691c0,5.951.745,3.73,1.695,10.036C628.937,997.609,627.383,987.693,629.046,986.438Z" transform="translate(-609.923 -964.516)" fill="#341e13"/>
        <path id="Path_492" data-name="Path 492" d="M786.112,1203.37H798.52c-2.885-11.772-7.433-25.213-12.916-26.854-9.368-2.806.332,26.053.332,26.053Z" transform="translate(-718.966 -1113.37)" fill="#e8e8e8"/>
        <path id="Path_493" data-name="Path 493" d="M791.152,1247.4H795.5a28.872,28.872,0,0,0-6.841-8.765c1.14,4.453,2.319,7.964,2.319,7.964Z" transform="translate(-724.006 -1157.4)" fill="#e8e8e8" style="mix-blend-mode: multiply;isolation: isolate"/>
        <path id="Path_494" data-name="Path 494" d="M580.7,1203.37l.173-.8s9.7-28.859.334-26.053c-5.484,1.642-10.032,15.082-12.916,26.854Z" transform="translate(-568.293 -1113.37)" fill="#e8e8e8"/>
        <path id="Path_495" data-name="Path 495" d="M600.114,1247.4l.173-.8s1.179-3.511,2.319-7.964a28.886,28.886,0,0,0-6.841,8.765Z" transform="translate(-587.705 -1157.4)" fill="#e8e8e8" style="mix-blend-mode: multiply;isolation: isolate"/>
        <path id="Path_496" data-name="Path 496" d="M715.5,1163.981c-3.318-5.09-9.513-2.755-9.513-2.755s6.384-6,7.32-7.256,7.341-1.184,8.929,1.672C723.042,1157.094,717.139,1161.762,715.5,1163.981Z" transform="translate(-665.589 -1097.025)" fill="#d2d1d1"/>
        <path id="Path_497" data-name="Path 497" d="M641.387,1165.221c3.319-5.089,9.513-2.754,9.513-2.754s-6.384-5.995-7.32-7.256-7.341-1.184-8.927,1.672C633.846,1158.334,639.749,1163,641.387,1165.221Z" transform="translate(-615.13 -1097.901)" fill="#d2d1d1"/>
        <path id="Path_498" data-name="Path 498" d="M690.55,1187.257h-5.008s-2.867-5.495-1.93-6.755,7.168-1.241,8.272,0S690.55,1187.257,690.55,1187.257Z" transform="translate(-649.646 -1115.66)" fill="#a5442a"/>
        <path id="Path_499" data-name="Path 499" d="M687.245,1179.6c-1.654.044-3.2.349-3.632.929-.937,1.26,1.93,6.755,1.93,6.755h5.008s.087-.2.219-.521C687.552,1185.911,686.377,1182.4,687.245,1179.6Z" transform="translate(-649.646 -1115.682)" fill="#e2d3cd" style="mix-blend-mode: multiply;isolation: isolate"/>
        <path id="Path_500" data-name="Path 500" d="M693.141,1224.189l-1.524-18.4h-5.008l-1.676,18.4Z" transform="translate(-650.713 -1134.189)" fill="#c64626"/>
        <path id="Path_501" data-name="Path 501" d="M688.522,1224.189q.1-.69.206-1.38c.825-5.658.387-11.323,1.616-16.972,0-.018.01-.034.014-.05h-3.75l-1.676,18.4Z" transform="translate(-650.713 -1134.189)" fill="#e2d3cd" style="mix-blend-mode: multiply;isolation: isolate"/>
        <g id="Group_129-2" data-name="Group 129" transform="translate(43.017 29.061)">
          <path id="Path_502" data-name="Path 502" d="M722.839,1061.776a3.734,3.734,0,0,1-1.088,1.874c-.687.648-4.874,1.085-5.316.886-.659-.3-1.518-1.709-1.518-1.709s1.475-2.026,3.292-2.026A18.411,18.411,0,0,1,722.839,1061.776Z" transform="translate(-714.917 -1060.8)" fill="#fff"/>
          <path id="Path_503" data-name="Path 503" d="M718.209,1061.2a16.073,16.073,0,0,1,4.057.79c.211.065.1.782-.247,1.379a2.657,2.657,0,0,0,.82-1.592,18.411,18.411,0,0,0-4.629-.976c-1.817,0-3.292,2.026-3.292,2.026a.741.741,0,0,0,.212.325C715.454,1062.744,716.634,1061.2,718.209,1061.2Z" transform="translate(-714.917 -1060.8)" fill="#341e13"/>
          <path id="Path_504" data-name="Path 504" d="M724.093,1062.644a1.845,1.845,0,1,1-1.845-1.844A1.845,1.845,0,0,1,724.093,1062.644Z" transform="translate(-718.793 -1060.8)" fill="#341e13"/>
          <path id="Path_505" data-name="Path 505" d="M728.272,1063.69c0,.78-2.193-1.413-1.413-1.413A1.412,1.412,0,0,1,728.272,1063.69Z" transform="translate(-723.237 -1061.844)" fill="#fff"/>
        </g>
        <path id="Path_506" data-name="Path 506" d="M644.317,1046.08a13.993,13.993,0,0,1,3.2-1.387c2.405-.785,5.7.417,5.826.417.223,0,.555-.063.555-.682s-.182-1.12-.408-1.12c-.122,0-3.384-.81-5.827-.048A7.741,7.741,0,0,0,644.317,1046.08Z" transform="translate(-622.013 -1019.115)" fill="#341e13"/>
        <path id="Path_507" data-name="Path 507" d="M724.494,1046.08a13.937,13.937,0,0,0-3.2-1.387c-2.405-.785-5.7.417-5.824.417-.224,0-.556-.063-.556-.682s.181-1.12.407-1.12c.125,0,3.384-.81,5.828-.048A7.735,7.735,0,0,1,724.494,1046.08Z" transform="translate(-671.9 -1019.115)" fill="#341e13"/>
        <g id="Group_130" data-name="Group 130" transform="translate(23.961 29.061)">
          <path id="Path_508" data-name="Path 508" d="M649.963,1061.776a3.732,3.732,0,0,0,1.087,1.874c.686.648,4.874,1.085,5.315.886.66-.3,1.519-1.709,1.519-1.709s-1.474-2.026-3.291-2.026A18.412,18.412,0,0,0,649.963,1061.776Z" transform="translate(-649.963 -1060.8)" fill="#fff"/>
          <path id="Path_509" data-name="Path 509" d="M654.594,1061.2a16.09,16.09,0,0,0-4.06.79c-.209.065-.1.782.248,1.379a2.657,2.657,0,0,1-.82-1.592,18.412,18.412,0,0,1,4.631-.976c1.817,0,3.291,2.026,3.291,2.026a.733.733,0,0,1-.211.325C657.349,1062.744,656.168,1061.2,654.594,1061.2Z" transform="translate(-649.963 -1060.8)" fill="#341e13"/>
          <path id="Path_510" data-name="Path 510" d="M658.9,1062.644a1.844,1.844,0,1,0,1.845-1.844A1.844,1.844,0,0,0,658.9,1062.644Z" transform="translate(-656.279 -1060.8)" fill="#341e13"/>
          <path id="Path_511" data-name="Path 511" d="M659.806,1063.69c0,.78,2.192-1.413,1.411-1.413A1.412,1.412,0,0,0,659.806,1063.69Z" transform="translate(-656.918 -1061.844)" fill="#fff"/>
        </g>
        <path id="Path_512" data-name="Path 512" d="M689.7,1080.019l-1.654-1.309,1.654-3.861Z" transform="translate(-652.91 -1041.666)" fill="#da895d"/>
        <path id="Path_513" data-name="Path 513" d="M676.9,1108.242l-.619-.6,11.134-.6-2,1.2Z" transform="translate(-644.602 -1064.411)" fill="#da895d"/>
      </g>
    </g>
  </g>
</svg>
