<svg xmlns="http://www.w3.org/2000/svg" xmlns:xlink="http://www.w3.org/1999/xlink" width="85" height="85" viewBox="0 0 85 85">
  <defs>
    <filter id="Rectangle_373" x="0" y="0" width="85" height="85" filterUnits="userSpaceOnUse">
      <feOffset dy="3" input="SourceAlpha"/>
      <feGaussianBlur stdDeviation="5" result="blur"/>
      <feFlood flood-opacity="0.078"/>
      <feComposite operator="in" in2="blur"/>
      <feComposite in="SourceGraphic"/>
    </filter>
  </defs>
  <g id="Group_406" data-name="Group 406" transform="translate(-880 -608)">
    <g transform="matrix(1, 0, 0, 1, 880, 608)" filter="url(#Rectangle_373)">
      <g id="Rectangle_373-2" data-name="Rectangle 373" transform="translate(15 12)" fill="#fff" stroke="#ececec" stroke-width="1">
        <rect width="55" height="55" rx="15" stroke="none"/>
        <rect x="0.5" y="0.5" width="54" height="54" rx="14.5" fill="none"/>
      </g>
    </g>
    <g id="_x30_1._Facebook" transform="translate(887.625 625.002)">
      <path id="Icon_11_" d="M32.248,24.5H29.056c-.5,0-.681-.181-.681-.686q0-1.948,0-3.9c0-.5.19-.689.686-.69h3.188c0-.089,0-1.963,0-2.827a7.048,7.048,0,0,1,.877-3.616,5.324,5.324,0,0,1,2.868-2.383A7.089,7.089,0,0,1,38.45,10q1.579,0,3.158,0c.452,0,.653.2.654.656q0,1.832,0,3.664c0,.461-.193.646-.656.651-.863.009-1.726,0-2.588.038a1.173,1.173,0,0,0-1.329,1.326c-.021.953-.009,1.907-.009,2.9H41.4c.526,0,.706.181.706.71q0,1.937,0,3.874c0,.521-.169.688-.7.688H37.671V34.956c0,.557-.175.735-.725.735H32.924c-.486,0-.675-.189-.675-.675C32.248,31.612,32.248,24.624,32.248,24.5Z" transform="translate(0 0)" fill="#3d6ad6"/>
    </g>
  </g>
</svg>
