<svg xmlns="http://www.w3.org/2000/svg" width="57" height="57" viewBox="0 0 57 57">
  <g id="female-icon" transform="translate(-744 -557)">
    <rect id="Rectangle_89" data-name="Rectangle 89" width="57" height="57" rx="12" transform="translate(744 557)" fill="#bef2d5"/>
    <g id="Group_295" data-name="Group 295" transform="translate(756.436 566.661)">
      <path id="Path_287" data-name="Path 287" d="M1774.254,1078.862c-1.618,3.384,2.724,8.3.312,10.185a19.05,19.05,0,0,0,9.509,2.316,18.278,18.278,0,0,0,10.373-4.245c-2.276-2.316.136-3.425-1.164-7.914" transform="translate(-1767.683 -1060.982)" fill="#261513"/>
      <path id="Path_288" data-name="Path 288" d="M1809.354,1119.316l-.5,6.514-3.864,3.312-3.473-2.315-3.865-6.775s2.3-1.45,2.348-2.091a15.394,15.394,0,0,0,.261-3.146c-.224-2.107,7.955-2.249,7.6-.063a15.736,15.736,0,0,0,.183,3.338C1808.1,1118.765,1809.354,1119.316,1809.354,1119.316Z" transform="translate(-1787.944 -1090.226)" fill="#d59666"/>
      <path id="Path_289" data-name="Path 289" d="M1799.834,989.828a42.029,42.029,0,0,1-.95,6.31,8.579,8.579,0,0,1-.7,2.295c-.839,1.525-4.544,5.5-5.927,5.745a7.934,7.934,0,0,1-3.092-.265,17.038,17.038,0,0,1-5.167-5.48,11.675,11.675,0,0,1-.751-2.283,43.956,43.956,0,0,1-.94-6.322c-.55-6.753,3.924-9.745,8.764-9.745S1800.38,983.074,1799.834,989.828Z" transform="translate(-1774.825 -976.787)" fill="#dfa577"/>
      <path id="Path_290" data-name="Path 290" d="M1893.8,1052.085a10.08,10.08,0,0,1-1.056,2.546,2.7,2.7,0,0,1-1.605.92c-.435-.041-.27-1.216-.43-1.615a6.637,6.637,0,0,1-.206-2.159c.036-1.488.938-2.065,1.849-1.98S1894.038,1050.616,1893.8,1052.085Z" transform="translate(-1867.078 -1036.202)" fill="#dfa577"/>
      <path id="Path_291" data-name="Path 291" d="M1770.984,1052.085a10.084,10.084,0,0,0,1.055,2.546,2.711,2.711,0,0,0,1.605.92c.436-.041.271-1.216.431-1.615a6.663,6.663,0,0,0,.205-2.159c-.035-1.488-.938-2.065-1.849-1.98S1770.742,1050.616,1770.984,1052.085Z" transform="translate(-1765.174 -1036.202)" fill="#dfa577"/>
      <path id="Path_292" data-name="Path 292" d="M1787.36,1041.043a1.515,1.515,0,0,1,.76-.956c1.375-.619,3.984.048,4.313.2.878.42.986.88.986.88l-.1.745a4,4,0,0,0-1.1-.79,7.373,7.373,0,0,0-3.9-.62A2.068,2.068,0,0,0,1787.36,1041.043Z" transform="translate(-1779.17 -1027.711)" fill="#261513"/>
      <path id="Path_293" data-name="Path 293" d="M1859.758,1041.043a1.517,1.517,0,0,0-.759-.956c-1.376-.619-3.986.048-4.313.2-.88.42-.986.88-.986.88l.094.745a4.028,4.028,0,0,1,1.1-.79,7.381,7.381,0,0,1,3.9-.62A2.061,2.061,0,0,1,1859.758,1041.043Z" transform="translate(-1835.715 -1027.711)" fill="#261513"/>
      <path id="Path_294" data-name="Path 294" d="M1773.076,971.352s-.021,1.986.308,1.959.384-1.185-.15-3.162,1.514-.736,5.137-2.022c3.96-1.406,5.252-5.917,7.3-3.574,2.653.218,3.732,1.677,4.2,4.487s-.473,4.748,0,4.737.234-1.967.813-2.253a.82.82,0,0,1,.943.07s1.231-6.125-.682-9.731c-1.428-2.693-5.644-4.1-10.033-4.1-3.7,0-7.518,3.681-8.51,5.729-1.425,2.943-.877,8.811-.511,8.312A1.51,1.51,0,0,1,1773.076,971.352Z" transform="translate(-1765.638 -957.763)" fill="#261513"/>
      <path id="Path_295" data-name="Path 295" d="M1764.165,1171.879c-.6-6.462-1.482-13.743-2.448-14.887-.829-.982-3.732-2.015-5.609-2.82-2.178-.934-2.947-.721-2.947-.721s-1.047,6.057-5.133,7.217c-4.085-1.16-5.132-7.217-5.132-7.217s-.768-.213-2.947.721c-1.877.8-4.78,1.838-5.608,2.82-.967,1.144-1.845,8.425-2.449,14.887Z" transform="translate(-1731.893 -1124.54)" fill="#dbd9d1"/>
      <path id="Path_296" data-name="Path 296" d="M1782.849,1081.467a.289.289,0,1,1-.29-.29A.291.291,0,0,1,1782.849,1081.467Z" transform="translate(-1774.832 -1062.955)" fill="#fff"/>
      <path id="Path_297" data-name="Path 297" d="M1895.3,1081.467a.289.289,0,1,1-.29-.29A.29.29,0,0,1,1895.3,1081.467Z" transform="translate(-1870.683 -1062.955)" fill="#fff"/>
      <rect id="Rectangle_83" data-name="Rectangle 83" width="1.69" height="8.007" transform="translate(15.56 36.675)" fill="#ccc8b7"/>
      <path id="Path_298" data-name="Path 298" d="M1852.431,1221.873a.544.544,0,1,1-.544-.544A.543.543,0,0,1,1852.431,1221.873Z" transform="translate(-1833.707 -1182.413)" fill="#272228"/>
      <path id="Path_299" data-name="Path 299" d="M1852.431,1241.948a.544.544,0,1,1-.544-.544A.543.543,0,0,1,1852.431,1241.948Z" transform="translate(-1833.707 -1199.524)" fill="#272228"/>
      <path id="Path_300" data-name="Path 300" d="M1805.686,1153.755a3.753,3.753,0,0,0-1.851-.3s-2.822,7.217-5.133,7.217-5.132-7.217-5.132-7.217a4.316,4.316,0,0,0-2.225.433c.61,4.146,6.027,8.133,7.338,8.133S1805.461,1157.9,1805.686,1153.755Z" transform="translate(-1782.566 -1124.541)" fill="#00a8c5"/>
      <g id="Group_96" data-name="Group 96" transform="translate(9.149 13.992)">
        <path id="Path_301" data-name="Path 301" d="M1795.509,1053.038a1.957,1.957,0,0,0,.568.979,6.407,6.407,0,0,0,2.774.462c.344-.154.792-.891.792-.891a2.594,2.594,0,0,0-1.718-1.059A9.591,9.591,0,0,0,1795.509,1053.038Z" transform="translate(-1795.265 -1052.528)" fill="#fff"/>
        <path id="Path_302" data-name="Path 302" d="M1796.516,1052.735a7.6,7.6,0,0,0-2.03.463c-.11.034-.141.359.041.671a3.5,3.5,0,0,1-.672-1.068,1.722,1.722,0,0,0,.621.116,7.594,7.594,0,0,1,2.039-.389,2.594,2.594,0,0,1,1.718,1.059.388.388,0,0,1-.11.17A2.322,2.322,0,0,0,1796.516,1052.735Z" transform="translate(-1793.856 -1052.528)" fill="#341e13"/>
        <path id="Path_303" data-name="Path 303" d="M1804.779,1053.491a.962.962,0,1,0,.963-.963A.962.962,0,0,0,1804.779,1053.491Z" transform="translate(-1803.167 -1052.528)" fill="#341e13"/>
        <path id="Path_304" data-name="Path 304" d="M1805.712,1054.8c0,.407,1.144-.738.737-.738A.737.737,0,0,0,1805.712,1054.8Z" transform="translate(-1803.962 -1053.835)" fill="#fff"/>
      </g>
      <path id="Path_305" data-name="Path 305" d="M1837.5,1066.151l-.864-.684.9-2.2Z" transform="translate(-1821.167 -1047.693)" fill="#da895d"/>
      <g id="Group_97" data-name="Group 97" transform="translate(13.897 20.9)">
        <path id="Path_306" data-name="Path 306" d="M1828.443,1101.745a2.835,2.835,0,0,1-2.43-1.858.965.965,0,0,0,.507.009c.464-.153,1.078-.534,1.235-.577.233-.066.69.26.69.26s.4-.32.591-.26c.129.04.727.34,1.229.495a2.528,2.528,0,0,0,.612.073S1830.077,1101.745,1828.443,1101.745Z" transform="translate(-1826.012 -1099.311)" fill="#cc3446"/>
        <path id="Path_307" data-name="Path 307" d="M1829.795,1104.756a3.062,3.062,0,0,1-2.171-.789,13.845,13.845,0,0,0,2.194.174,13.236,13.236,0,0,0,2.258-.2A3.664,3.664,0,0,1,1829.795,1104.756Z" transform="translate(-1827.386 -1103.256)" fill="#fff"/>
      </g>
      <path id="Path_308" data-name="Path 308" d="M1798.611,1071.957c0,.841-1.064,1.522-2.377,1.522s-2.378-.681-2.378-1.522,1.066-1.523,2.378-1.523S1798.611,1071.115,1798.611,1071.957Z" transform="translate(-1784.707 -1053.798)" fill="#eb6c60" opacity="0.2"/>
      <g id="Group_98" data-name="Group 98" transform="translate(18.745 13.992)">
        <path id="Path_309" data-name="Path 309" d="M1862.981,1053.038a1.938,1.938,0,0,1-.566.979,6.416,6.416,0,0,1-2.774.462c-.345-.154-.794-.891-.794-.891a2.594,2.594,0,0,1,1.718-1.059A9.6,9.6,0,0,1,1862.981,1053.038Z" transform="translate(-1858.847 -1052.528)" fill="#fff"/>
        <path id="Path_310" data-name="Path 310" d="M1860.565,1052.735a7.621,7.621,0,0,1,2.031.463c.109.034.14.359-.042.671a3.494,3.494,0,0,0,.672-1.068,1.723,1.723,0,0,1-.621.116,7.59,7.59,0,0,0-2.039-.389,2.594,2.594,0,0,0-1.718,1.059.391.391,0,0,0,.11.17A2.318,2.318,0,0,1,1860.565,1052.735Z" transform="translate(-1858.847 -1052.528)" fill="#341e13"/>
        <path id="Path_311" data-name="Path 311" d="M1866.465,1053.491a.962.962,0,1,1-.963-.963A.963.963,0,0,1,1866.465,1053.491Z" transform="translate(-1863.7 -1052.528)" fill="#341e13"/>
        <path id="Path_312" data-name="Path 312" d="M1871.883,1054.8c0,.407-1.144-.738-.737-.738A.737.737,0,0,1,1871.883,1054.8Z" transform="translate(-1869.256 -1053.835)" fill="#fff"/>
      </g>
      <path id="Path_313" data-name="Path 313" d="M1856.294,1071.957c0,.841,1.064,1.522,2.378,1.522s2.378-.681,2.378-1.522-1.065-1.523-2.378-1.523S1856.294,1071.115,1856.294,1071.957Z" transform="translate(-1837.926 -1053.798)" fill="#eb6c60" opacity="0.2"/>
    </g>
  </g>
</svg>
