<svg xmlns="http://www.w3.org/2000/svg" width="54" height="54" viewBox="0 0 54 54">
  <g id="Group_259" data-name="Group 259" transform="translate(-346 -127)">
    <rect id="Rectangle_21" data-name="Rectangle 21" width="54" height="54" rx="15" transform="translate(346 127)" fill="#f1f1f1"/>
    <path id="filter" d="M3.1,6.635a.846.846,0,0,0,0,1.692Zm0,11.282a.846.846,0,0,0,0,1.692Zm6.769,1.692a.846.846,0,1,0,0-1.692Zm13.538,0a.846.846,0,1,0,0-1.692ZM16.635,6.635a.846.846,0,1,0,0,1.692ZM23.4,8.327a.846.846,0,1,0,0-1.692ZM3.1,8.327H6.481V6.635H3.1Zm0,11.282H9.865V17.917H3.1Zm16.923,0H23.4V17.917H20.019ZM16.635,8.327H23.4V6.635H16.635Zm2.538,10.436A2.539,2.539,0,0,1,16.635,21.3v1.692a4.231,4.231,0,0,0,4.231-4.231ZM16.635,21.3A2.539,2.539,0,0,1,14.1,18.763H12.4a4.231,4.231,0,0,0,4.231,4.231ZM14.1,18.763a2.539,2.539,0,0,1,2.538-2.538V14.532A4.231,4.231,0,0,0,12.4,18.763Zm2.538-2.538a2.539,2.539,0,0,1,2.538,2.538h1.692a4.231,4.231,0,0,0-4.231-4.231ZM12.4,7.481a2.538,2.538,0,0,1-2.538,2.538v1.692A4.231,4.231,0,0,0,14.1,7.481ZM9.865,10.019A2.538,2.538,0,0,1,7.327,7.481H5.635a4.231,4.231,0,0,0,4.231,4.231ZM7.327,7.481A2.538,2.538,0,0,1,9.865,4.942V3.25A4.231,4.231,0,0,0,5.635,7.481ZM9.865,4.942A2.538,2.538,0,0,1,12.4,7.481H14.1A4.231,4.231,0,0,0,9.865,3.25Z" transform="translate(359.75 140.75)"/>
  </g>
</svg>
