<svg id="coding-language" xmlns="http://www.w3.org/2000/svg" width="83.16" height="80" viewBox="0 0 83.16 80">
  <path id="Path_449" data-name="Path 449" d="M340.313,81.884v9.053a1.075,1.075,0,0,1-.538.947c-.631.35-1.332-.3-1.377-.345a1.219,1.219,0,0,0-1.721,1.726,4,4,0,0,0,2.7,1.17,3.219,3.219,0,0,0,1.581-.42,3.513,3.513,0,0,0,1.792-3.078V81.884a1.219,1.219,0,1,0-2.437,0Z" transform="translate(-281.696 -69.143)" fill="#01d866"/>
  <path id="Path_450" data-name="Path 450" d="M397.983,93.212a4.042,4.042,0,0,1-2.97-1.247,1.219,1.219,0,0,0-1.806,1.637,6.514,6.514,0,0,0,4.776,2.048,4.414,4.414,0,0,0,4.509-3.413c.265-1.482-.417-3.42-3.122-4.418-1.392-.514-2.687-1.073-3.055-1.235a.938.938,0,0,1-.353-.9,1.28,1.28,0,0,1,1-1.03,3.875,3.875,0,0,1,3.216.739,1.219,1.219,0,0,0,1.563-1.87,6.3,6.3,0,0,0-5.482-1.2,3.741,3.741,0,0,0-2.714,3.017,3.364,3.364,0,0,0,1.5,3.33,1.215,1.215,0,0,0,.169.092c.064.029,1.59.708,3.308,1.341.528.195,1.736.75,1.566,1.7A2.045,2.045,0,0,1,397.983,93.212Z" transform="translate(-329.077 -70.343)" fill="#01d866"/>
  <path id="Path_451" data-name="Path 451" d="M148.446,211.163a1.219,1.219,0,0,0-1.219,1.219V223.42a1.219,1.219,0,0,0,2.437,0v-4.49h5.2v4.49a1.219,1.219,0,1,0,2.437,0V212.382a1.219,1.219,0,1,0-2.437,0v4.111h-5.2v-4.111A1.219,1.219,0,0,0,148.446,211.163Z" transform="translate(-123.314 -178.446)" fill="#01d866"/>
  <path id="Path_452" data-name="Path 452" d="M82.966,223.418v-3.583c.658,0,1.426-.007,1.855-.007a4.334,4.334,0,1,0,0-8.667H81.748a1.227,1.227,0,0,0-1.219,1.219v11.038a1.219,1.219,0,1,0,2.437,0Zm1.855-9.819a1.9,1.9,0,1,1,0,3.793c-.425,0-1.185,0-1.84.007,0-.676-.009-3.092-.011-3.8Z" transform="translate(-67.449 -178.444)" fill="#01d866"/>
  <path id="Path_453" data-name="Path 453" d="M231.6,223.418v-3.583c.658,0,1.426-.007,1.855-.007a4.334,4.334,0,1,0,0-8.667h-3.074a1.227,1.227,0,0,0-1.219,1.219v11.038a1.219,1.219,0,1,0,2.437,0Zm1.855-9.819a1.9,1.9,0,1,1,0,3.793c-.425,0-1.185,0-1.84.007,0-.676-.009-3.092-.011-3.8Z" transform="translate(-191.938 -178.444)" fill="#01d866"/>
  <path id="Path_454" data-name="Path 454" d="M64.709,52.825H57.817a18.5,18.5,0,0,0,.016-7.2,18.6,18.6,0,0,0,15.966-1.2,1.219,1.219,0,0,0-1.214-2.114,16.165,16.165,0,0,1-15.548.277c-.031-.017-.063-.031-.1-.044a18.558,18.558,0,0,0-7.708-9.168,16.141,16.141,0,1,1,27.512,5.512,1.219,1.219,0,1,0,1.839,1.6,18.572,18.572,0,1,0-32.24-8.526,18.356,18.356,0,0,0-6.617-1.228H18.451a18.416,18.416,0,0,0-9.607,2.7,1.219,1.219,0,1,0,1.271,2.08,15.981,15.981,0,0,1,8.337-2.338H39.728a16.02,16.02,0,0,1,15.6,19.656H52.5A18.482,18.482,0,0,0,35.075,65.2H18.451a16.015,16.015,0,0,1-12.3-26.269A1.219,1.219,0,0,0,4.28,37.366,18.452,18.452,0,0,0,18.451,67.634H34.406A18.457,18.457,0,0,0,52.5,89.728h.928a1.219,1.219,0,1,0,0-2.437H52.5a16.014,16.014,0,0,1,0-32.028H64.709a16.014,16.014,0,0,1,0,32.028h-5.2a1.219,1.219,0,1,0,0,2.437h5.2a18.451,18.451,0,0,0,0-36.9Z" transform="translate(0 -9.728)" fill="#01d866"/>
  <path id="Path_455" data-name="Path 455" d="M360.126,334.184a1.219,1.219,0,0,0,0,2.437H362.3L361.179,342a1.219,1.219,0,1,0,2.386.5l1.221-5.873h2.358L366.026,342a1.219,1.219,0,1,0,2.386.5l1.221-5.873h2.7a1.219,1.219,0,0,0,0-2.437H370.14l.974-4.683h2.691a1.219,1.219,0,0,0,0-2.437H371.62l1.094-5.263a1.219,1.219,0,1,0-2.386-.5l-1.2,5.759h-2.358l1.094-5.263a1.219,1.219,0,1,0-2.386-.5l-1.2,5.759H361.6a1.219,1.219,0,0,0,0,2.437h2.179l-.974,4.683Zm6.141-4.683h2.358l-.974,4.683h-2.358Z" transform="translate(-300.613 -269.884)" fill="#01d866"/>
  <path id="Path_456" data-name="Path 456" d="M285.769,359.79a1.219,1.219,0,0,0-1.717.151,3.136,3.136,0,0,1-2.548,1.124,4.308,4.308,0,1,1,2.408-7.881,1.219,1.219,0,0,0,1.365-2.02A6.745,6.745,0,1,0,281.5,363.5a5.569,5.569,0,0,0,4.415-2A1.218,1.218,0,0,0,285.769,359.79Z" transform="translate(-230.132 -294.742)" fill="#01d866"/>
</svg>
