<svg xmlns="http://www.w3.org/2000/svg" xmlns:xlink="http://www.w3.org/1999/xlink" width="85" height="85" viewBox="0 0 85 85">
  <defs>
    <filter id="Rectangle_372" x="0" y="0" width="85" height="85" filterUnits="userSpaceOnUse">
      <feOffset dy="3" input="SourceAlpha"/>
      <feGaussianBlur stdDeviation="5" result="blur"/>
      <feFlood flood-opacity="0.078"/>
      <feComposite operator="in" in2="blur"/>
      <feComposite in="SourceGraphic"/>
    </filter>
  </defs>
  <g id="Group_405" data-name="Group 405" transform="translate(-805 -608)">
    <g transform="matrix(1, 0, 0, 1, 805, 608)" filter="url(#Rectangle_372)">
      <g id="Rectangle_372-2" data-name="Rectangle 372" transform="translate(15 12)" fill="#fff" stroke="#ececec" stroke-width="1">
        <rect width="55" height="55" rx="15" stroke="none"/>
        <rect x="0.5" y="0.5" width="54" height="54" rx="14.5" fill="none"/>
      </g>
    </g>
    <path id="mail" d="M28.162,79.143,36.7,87.689a4.808,4.808,0,0,0,6.773,0l8.542-8.546a.194.194,0,0,0-.026-.3,5.359,5.359,0,0,0-3.073-.968H31.261a5.359,5.359,0,0,0-3.073.968A.194.194,0,0,0,28.162,79.143ZM25.879,83.26a5.341,5.341,0,0,1,.615-2.492.194.194,0,0,1,.31-.047l8.434,8.434a6.871,6.871,0,0,0,9.705,0l8.434-8.434a.194.194,0,0,1,.31.047A5.342,5.342,0,0,1,54.3,83.26V94.5a5.388,5.388,0,0,1-5.382,5.382H31.261A5.388,5.388,0,0,1,25.879,94.5Z" transform="translate(807.121 559.122)" fill="#6e6e6e" fill-rule="evenodd"/>
  </g>
</svg>
