<svg xmlns="http://www.w3.org/2000/svg" width="44" height="44" viewBox="0 0 44 44">
  <g id="in-new" transform="translate(-1522 -6368)">
    <circle id="Ellipse_67" data-name="Ellipse 67" cx="22" cy="22" r="22" transform="translate(1522 6368)" fill="#3a434e"/>
    <g id="_x31_0.Linkedin" transform="translate(1526.797 6373)">
      <path id="Path_85068" data-name="Path 85068" d="M47.61,45.15V39.874c0-2.593-.558-4.574-3.584-4.574A3.127,3.127,0,0,0,41.2,36.849h-.036V35.534H38.3V45.15h2.989V40.378c0-1.261.234-2.467,1.783-2.467,1.531,0,1.549,1.423,1.549,2.539v4.682H47.61Z" transform="translate(-23.204 -20.744)" fill="#fff"/>
      <path id="Path_85069" data-name="Path 85069" d="M11.3,36.6h2.989v9.616H11.3Z" transform="translate(-1.066 -21.81)" fill="#fff"/>
      <path id="Path_85070" data-name="Path 85070" d="M11.729,10a1.738,1.738,0,1,0,1.729,1.729A1.729,1.729,0,0,0,11.729,10Z" fill="#fff"/>
    </g>
  </g>
</svg>
