<svg xmlns="http://www.w3.org/2000/svg" width="16" height="16" viewBox="0 0 16 16">
  <path id="logout" d="M7.444,3a.821.821,0,0,1,.624.265.821.821,0,0,1,.265.624.854.854,0,0,1-.265.624.821.821,0,0,1-.624.265H6.556A1.943,1.943,0,0,0,5.62,5,1.411,1.411,0,0,0,5,5.6a1.977,1.977,0,0,0-.218.951v8.889A1.943,1.943,0,0,0,5,16.38,1.5,1.5,0,0,0,5.62,17a1.943,1.943,0,0,0,.936.218h.889a.906.906,0,0,1,.889.889.854.854,0,0,1-.265.624A.821.821,0,0,1,7.444,19H6.556a3.462,3.462,0,0,1-1.778-.483,3.674,3.674,0,0,1-1.294-1.294A3.462,3.462,0,0,1,3,15.444V6.556a3.408,3.408,0,0,1,.483-1.778A3.513,3.513,0,0,1,4.778,3.483,3.462,3.462,0,0,1,6.556,3Zm7.735,12.179a.791.791,0,0,1-.624.265.906.906,0,0,1-.889-.889.791.791,0,0,1,.265-.624l3.462-3.462q.078-.078.109.234a2.971,2.971,0,0,1,0,.608q-.031.3-.109.218L13.932,8.068a.867.867,0,0,1,0-1.248.854.854,0,0,1,.624-.265.791.791,0,0,1,.624.265l3.462,3.462a.945.945,0,0,1,.3.717.977.977,0,0,1-.3.717Zm2.932-5.068A.906.906,0,0,1,19,11a.854.854,0,0,1-.265.624.821.821,0,0,1-.624.265H7.444A.906.906,0,0,1,6.556,11a.821.821,0,0,1,.265-.624.854.854,0,0,1,.624-.265Z" transform="translate(-3 -3)" fill="#01d866"/>
</svg>
