<svg xmlns="http://www.w3.org/2000/svg" xmlns:xlink="http://www.w3.org/1999/xlink" width="56" height="57" viewBox="0 0 56 57">
  <defs>
    <clipPath id="clip-path">
      <rect id="Rectangle_90" data-name="Rectangle 90" width="56" height="57" rx="12" transform="translate(0.349)" fill="#bef2d6"/>
    </clipPath>
  </defs>
  <g id="man-icon" transform="translate(-0.349)">
    <rect id="Rectangle_89" data-name="Rectangle 89" width="56" height="57" rx="12" transform="translate(0.349)" fill="#bef2d5"/>
    <g id="Mask_Group_13" data-name="Mask Group 13" transform="translate(0 0)" clip-path="url(#clip-path)">
      <g id="Group_107" data-name="Group 107" transform="translate(8.089 9.437)">
        <path id="Path_348" data-name="Path 348" d="M230.8,1367.55c-2.987,3.546-6.77,4.722-8.252,4.715a12.769,12.769,0,0,1-8.647-4.781c-1.723-2.1-2.421-6.24-2.865-9.127-.255-1.659-.475-6.826.221-8.82a4.443,4.443,0,0,1-1.059-4.608s.854,2.192,6.033.964c1.535-.364,4.27-.735,5.986-1.031,2.526-.436,5.193-.052,5.55,1.385a5.237,5.237,0,0,1,5.1,2.727,12.387,12.387,0,0,1,1.143,7.062C233.641,1359.363,232.591,1365.424,230.8,1367.55Z" transform="translate(-202.821 -1344.692)" fill="#241412"/>
        <path id="Path_349" data-name="Path 349" d="M214.452,1442.736s.365-2.753-2.027-2.089c-1.84.511.028,5.625,1.238,6.066,1.033.379,1.262-.414,1.262-.414Z" transform="translate(-204.278 -1426.67)" fill="#f9ab78"/>
        <path id="Path_350" data-name="Path 350" d="M358.273,1443.312s-.344-2.756,2.042-2.075c1.837.527-.072,5.625-1.285,6.056-1.037.37-1.259-.423-1.259-.423Z" transform="translate(-329.248 -1427.17)" fill="#f9ab78"/>
        <path id="Path_351" data-name="Path 351" d="M230.794,1567.413l1.357-13.962a64.194,64.194,0,0,0-7.861-2.913,34.206,34.206,0,0,0-12.405-.048,61.071,61.071,0,0,0-7.8,2.85s.942,6.518,1.859,14.073Z" transform="translate(-197.804 -1520.23)" fill="#f9ab78"/>
        <path id="Path_352" data-name="Path 352" d="M259.632,1525.91s6.6-4.49,6.2-4.712c-2.328-1.29-2.052-4.94-2.052-4.94l-8.446-.474s.514,5.163-1.99,5.792C253.156,1521.622,259.632,1525.91,259.632,1525.91Z" transform="translate(-239.929 -1491.019)" fill="#f9ab78"/>
        <path id="Path_353" data-name="Path 353" d="M266.242,1518.869a3.048,3.048,0,0,1,1.025.587c1.11.95,3.688,2.376,5.234,1.9a6.3,6.3,0,0,0,2.738-2.159,7.546,7.546,0,0,1-.426-2.937l-8.446-.474A12.634,12.634,0,0,1,266.242,1518.869Z" transform="translate(-250.967 -1491.019)" fill="#da895d"/>
        <path id="Path_354" data-name="Path 354" d="M245.6,1369.171c-.416,3.02-.545,4.765-2.3,6.894a20.64,20.64,0,0,1-5.838,4.62,5.911,5.911,0,0,1-2.858.07c-2.132-.824-5.128-3-6.172-4.748a16.549,16.549,0,0,1-2.162-6.912c-.484-3.3-.527-2.134-.515-5.243.024-6.331,2.486-10.893,9.583-10.865s10.711,4.021,10.793,10.52C246.176,1367.067,246.058,1365.86,245.6,1369.171Z" transform="translate(-216.338 -1351.786)" fill="#f9ab78"/>
        <path id="Path_355" data-name="Path 355" d="M263.3,1494.715a5.759,5.759,0,0,0,.7,4.073,14.087,14.087,0,0,0,2.6,1.394,5.9,5.9,0,0,0,2.858-.07,13.387,13.387,0,0,0,1.972-1.175,7.657,7.657,0,0,0,1.159-4.222c-.172-1.513-2.729-2.125-4.746-2.089S263.757,1493.167,263.3,1494.715Z" transform="translate(-248.334 -1471.213)" fill="#241412"/>
        <path id="Path_356" data-name="Path 356" d="M269.116,1503.232c-.3,1,1.129,2.985,1.32,3.112a9.11,9.11,0,0,0,1.676.9c.156.06.563-2.025.887-2.025.414,0,.757,2.071.956,1.98a8.679,8.679,0,0,0,1.27-.758c.213-.148,1.744-2.561,1.634-3.536s-2.125-.17-4.1-.17C271.454,1502.734,269.413,1502.233,269.116,1503.232Z" transform="translate(-253.39 -1479.591)" fill="#f9ab78"/>
        <path id="Path_357" data-name="Path 357" d="M229.337,1358.975c.957-.987,8.228,2.651,9.637,2.455,2.059-.288,2.055-2.022,3.413-2.017,3.145.012,2.246,3.88,2.732,6.41.131.68.295.2.477.9l.014-.106c.458-3.311.575-2.1.531-5.665-.082-6.5-3.487-10.923-10.59-10.951s-9.762,4.966-9.786,11.3c-.011,2.965.83,2.038,1.253,4.8C227.63,1364.827,228.206,1360.142,229.337,1358.975Z" transform="translate(-216.348 -1349.235)" fill="#e2d3cd" style="mix-blend-mode: multiply;isolation: isolate"/>
        <path id="Path_358" data-name="Path 358" d="M226.541,1358.044c2.085-2.085,9.531,5.742,12.577.52,3.607.061,3.106,1.7,3.677,2.994a43.524,43.524,0,0,1,.255,5.565,4.559,4.559,0,0,0,.484-.5c.458-3.311.977-2.014.933-5.575-.082-6.5-3.889-11.012-10.992-11.041s-10.113,4.962-10.137,11.293c-.012,3.109.382,1.95.866,5.246a3.694,3.694,0,0,0,.715-.219S223.876,1360.708,226.541,1358.044Z" transform="translate(-214.272 -1349.235)" fill="#241412"/>
        <path id="Path_359" data-name="Path 359" d="M167.164,1586.8l1.235-3.693s3.486-11.826-1.415-10.379c-3.04.9-5.089,8.114-6.278,14.072Z" transform="translate(-160.705 -1539.615)" fill="#f9ab78"/>
        <path id="Path_360" data-name="Path 360" d="M383.639,1587.42H390.1c-1.146-5.934-3.13-13.049-6.135-13.962-4.889-1.485-1.5,10.369-1.5,10.369Z" transform="translate(-349.392 -1540.237)" fill="#f9ab78"/>
        <g id="Group_103" data-name="Group 103" transform="translate(22.627 15.574)">
          <path id="Path_361" data-name="Path 361" d="M321.173,1452.811a1.952,1.952,0,0,1-.573.976,6.423,6.423,0,0,1-2.779.453c-.344-.156-.79-.9-.79-.9a2.6,2.6,0,0,1,1.726-1.052A9.609,9.609,0,0,1,321.173,1452.811Z" transform="translate(-317.032 -1452.29)" fill="#fff"/>
          <path id="Path_362" data-name="Path 362" d="M318.755,1452.5a8.391,8.391,0,0,1,2.119.422c.109.034.052.409-.133.72a1.386,1.386,0,0,0,.432-.829,9.609,9.609,0,0,0-2.416-.52,2.6,2.6,0,0,0-1.726,1.052.377.377,0,0,0,.11.171A2.327,2.327,0,0,1,318.755,1452.5Z" transform="translate(-317.032 -1452.29)" fill="#341e13"/>
          <path id="Path_363" data-name="Path 363" d="M324.777,1453.266a.963.963,0,1,1-.959-.968A.963.963,0,0,1,324.777,1453.266Z" transform="translate(-322.008 -1452.297)" fill="#341e13"/>
          <path id="Path_364" data-name="Path 364" d="M330.344,1454.6c0,.407-1.143-.743-.734-.742A.738.738,0,0,1,330.344,1454.6Z" transform="translate(-327.714 -1453.634)" fill="#fff"/>
        </g>
        <path id="Path_365" data-name="Path 365" d="M240.579,1434.746a7.934,7.934,0,0,1,1.759-.719,6.48,6.48,0,0,1,3.2.232c.123,0,.306-.031.307-.354s-.1-.586-.22-.587a7.723,7.723,0,0,0-3.2-.038A4.193,4.193,0,0,0,240.579,1434.746Z" transform="translate(-229.018 -1420.317)" fill="#241412"/>
        <path id="Path_366" data-name="Path 366" d="M322.3,1435.043a7.694,7.694,0,0,0-1.728-.731,6.29,6.29,0,0,0-3.154.206c-.121,0-.3-.034-.3-.357s.1-.585.222-.584a7.5,7.5,0,0,1,3.155-.013A4.151,4.151,0,0,1,322.3,1435.043Z" transform="translate(-294.476 -1420.55)" fill="#241412"/>
        <g id="Group_104" data-name="Group 104" transform="translate(12.673 15.537)">
          <path id="Path_367" data-name="Path 367" d="M248.262,1452.544a1.953,1.953,0,0,0,.564.981,6.429,6.429,0,0,0,2.775.474c.346-.153.8-.891.8-.891a2.594,2.594,0,0,0-1.716-1.065A9.586,9.586,0,0,0,248.262,1452.544Z" transform="translate(-248.262 -1452.042)" fill="#fff"/>
          <path id="Path_368" data-name="Path 368" d="M250.682,1452.251a8.43,8.43,0,0,0-2.122.4c-.11.033-.054.409.127.72a1.382,1.382,0,0,1-.425-.832,9.586,9.586,0,0,1,2.421-.5,2.594,2.594,0,0,1,1.716,1.065.4.4,0,0,1-.112.17A2.324,2.324,0,0,0,250.682,1452.251Z" transform="translate(-248.262 -1452.042)" fill="#341e13"/>
          <path id="Path_369" data-name="Path 369" d="M257.716,1453a.963.963,0,1,0,.967-.96A.965.965,0,0,0,257.716,1453Z" transform="translate(-256.347 -1452.036)" fill="#341e13"/>
          <path id="Path_370" data-name="Path 370" d="M258.67,1454.338c0,.407,1.149-.734.74-.735A.737.737,0,0,0,258.67,1454.338Z" transform="translate(-257.164 -1453.376)" fill="#fff"/>
        </g>
        <path id="Path_371" data-name="Path 371" d="M291.015,1470.983l-.861-.687.872-2.014Z" transform="translate(-271.418 -1450.393)" fill="#da895d"/>
        <path id="Path_372" data-name="Path 372" d="M276.843,1508.676l-.639-.577,1.068.278,3.717-.027,1.042-.327-.808.655Z" transform="translate(-259.486 -1484.382)" fill="#da895d"/>
        <g id="Group_105" data-name="Group 105" transform="translate(11.322 14.067)">
          <path id="Path_373" data-name="Path 373" d="M245.166,1446.965a5.343,5.343,0,0,1-4.609,0c-1.056-.715-2.3-3.478-1.2-4.4s5.81-.9,6.579,0S246.031,1446.288,245.166,1446.965Z" transform="translate(-238.926 -1441.879)" fill="none" stroke="#241412" stroke-miterlimit="10" stroke-width="1"/>
          <path id="Path_374" data-name="Path 374" d="M305.371,1446.965a5.344,5.344,0,0,0,4.61,0c1.056-.715,2.305-3.478,1.2-4.4s-5.811-.9-6.579,0S304.508,1446.288,305.371,1446.965Z" transform="translate(-294.81 -1441.879)" fill="none" stroke="#241412" stroke-miterlimit="10" stroke-width="1"/>
          <line id="Line_3" data-name="Line 3" x2="2.113" transform="translate(7.345 1.532)" fill="none" stroke="#241412" stroke-miterlimit="10" stroke-width="1"/>
        </g>
        <g id="Group_106" data-name="Group 106" transform="translate(0 29.499)">
          <path id="Path_375" data-name="Path 375" d="M230.794,1570.064l1.357-13.962a64.18,64.18,0,0,0-7.861-2.913,6.468,6.468,0,0,1-6.568,6.014,6.184,6.184,0,0,1-6.038-6.167,50.24,50.24,0,0,0-7.6,2.955s.942,6.518,1.859,14.073Z" transform="translate(-197.804 -1552.379)" fill="#fcfcfd"/>
          <path id="Path_376" data-name="Path 376" d="M379.149,1641.61l.478-4.919c-.021.011-.044.02-.066.031-2.077,1.137-1.934,2.854-2.016,4.889Z" transform="translate(-346.159 -1623.925)" fill="#e4e3e3" style="mix-blend-mode: multiply;isolation: isolate"/>
          <path id="Path_377" data-name="Path 377" d="M214.134,1640.644c-.735-2.507-1.338-4.522-1.62-5.083.206,1.59.422,3.31.638,5.083Z" transform="translate(-205.015 -1622.959)" fill="#e4e3e3" style="mix-blend-mode: multiply;isolation: isolate"/>
          <path id="Path_378" data-name="Path 378" d="M167.164,1586.8l1.235-3.693s3.486-11.826-1.415-10.379c-3.04.9-5.089,8.114-6.278,14.072Z" transform="translate(-160.705 -1569.114)" fill="#003b62"/>
          <path id="Path_379" data-name="Path 379" d="M193.721,1626.053l1.235-3.694a38.084,38.084,0,0,0,.876-3.859c-1.3,2.045-3.128,3.539-3.705,6.115-.109.483-.236.962-.371,1.438Z" transform="translate(-187.262 -1608.368)" fill="#e4e3e3" style="mix-blend-mode: multiply;isolation: isolate"/>
          <path id="Path_380" data-name="Path 380" d="M383.639,1587.42H390.1c-1.146-5.934-3.13-13.049-6.135-13.962-4.889-1.485-1.5,10.369-1.5,10.369Z" transform="translate(-349.392 -1569.735)" fill="#003b62"/>
          <path id="Path_381" data-name="Path 381" d="M387.05,1635.48h2.316c-.159-.637-.333-1.266-.535-1.877-.638-1.927-2.1-2.871-3.518-4.08.285,1.371.568,2.365.568,2.365Z" transform="translate(-352.803 -1617.795)" fill="#e4e3e3" style="mix-blend-mode: multiply;isolation: isolate"/>
          <path id="Path_382" data-name="Path 382" d="M268.328,1548.823s-1.054,5.362-5.708,5.236c-4.671-.126-5.312-5.564-5.312-5.564l-.737.657s-.377,6.885,6.14,6.742,6.466-6.589,6.466-6.589Z" transform="translate(-242.692 -1548.495)" fill="#e4e3e3"/>
          <path id="Path_383" data-name="Path 383" d="M213.566,1570.064v-3.755a48.808,48.808,0,0,1-1.884-13.273,50.24,50.24,0,0,0-7.6,2.955s.676,6.3,1.256,14.073Z" transform="translate(-197.804 -1552.379)" fill="#003b62"/>
          <path id="Path_384" data-name="Path 384" d="M338.692,1570.967c.535-7.761,1.138-13.962,1.138-13.962a64.151,64.151,0,0,0-7.861-2.913,50.754,50.754,0,0,1-1.984,13.071l.044,3.8Z" transform="translate(-305.483 -1553.282)" fill="#003b62"/>
          <path id="Path_385" data-name="Path 385" d="M379.965,1644.1c.109-1.576.22-3.09.328-4.5-.036.059-.07.12-.113.181a14.379,14.379,0,0,0-1.937,4.317Z" transform="translate(-346.757 -1626.416)" fill="#e4e3e3" style="mix-blend-mode: multiply;isolation: isolate"/>
          <path id="Path_386" data-name="Path 386" d="M331.576,1570.967l1.507-3.994-1.945-.624,3.41-.864,1.633-10.324-4.211-1.068a59.11,59.11,0,0,1-1.984,13.071c.012,1.024.029,2.451.044,3.8Z" transform="translate(-305.483 -1553.282)" fill="#00263e"/>
          <path id="Path_387" data-name="Path 387" d="M232.529,1565.292l-1.945.624,1.565,4.148h1.487c.016-1.4.033-2.894.045-3.957a59.147,59.147,0,0,1-1.984-13.071l-4.21,1.069,1.633,10.323Z" transform="translate(-217.821 -1552.379)" fill="#00263e"/>
        </g>
      </g>
    </g>
  </g>
</svg>
