<svg xmlns="http://www.w3.org/2000/svg" width="19.944" height="20" viewBox="0 0 19.944 20">
  <g id="message" transform="translate(-1.25 -1.25)">
    <path id="Path_15" data-name="Path 15" d="M11.222,21.25a2.1,2.1,0,0,1-1.67-.891L8.161,18.5a.438.438,0,0,0-.186-.093H7.512c-3.868,0-6.262-1.048-6.262-6.262V7.512c0-4.1,2.161-6.262,6.262-6.262h7.421c4.1,0,6.262,2.161,6.262,6.262V12.15c0,4.1-2.161,6.262-6.262,6.262h-.464a.242.242,0,0,0-.186.093l-1.391,1.855A2.1,2.1,0,0,1,11.222,21.25ZM7.512,2.641c-3.321,0-4.87,1.549-4.87,4.87V12.15c0,4.193,1.438,4.87,4.87,4.87h.464a1.74,1.74,0,0,1,1.3.649l1.391,1.855a.644.644,0,0,0,1.113,0l1.391-1.855a1.626,1.626,0,0,1,1.3-.649h.464c3.321,0,4.87-1.549,4.87-4.87V7.512c0-3.321-1.549-4.87-4.87-4.87Z" transform="translate(0 0)" fill="#01d866"/>
    <path id="Path_16" data-name="Path 16" d="M11.928,11.855a.928.928,0,1,1,.928-.928A.924.924,0,0,1,11.928,11.855Z" transform="translate(-0.705 -0.633)" fill="#01d866"/>
    <path id="Path_17" data-name="Path 17" d="M15.928,11.855a.928.928,0,1,1,.928-.928A.924.924,0,0,1,15.928,11.855Z" transform="translate(-0.995 -0.633)" fill="#01d866"/>
    <path id="Path_18" data-name="Path 18" d="M7.928,11.855a.928.928,0,1,1,.928-.928A.924.924,0,0,1,7.928,11.855Z" transform="translate(-0.416 -0.633)" fill="#01d866"/>
  </g>
</svg>
