<svg xmlns="http://www.w3.org/2000/svg" width="20.942" height="21" viewBox="0 0 20.942 21">
  <g id="message" transform="translate(-1.25 -1.25)">
    <path id="Path_15" data-name="Path 15" d="M11.721,22.25a2.206,2.206,0,0,1-1.753-.935L8.506,19.367a.46.46,0,0,0-.195-.1H7.825c-4.062,0-6.575-1.1-6.575-6.575V7.825c0-4.305,2.269-6.575,6.575-6.575h7.792c4.305,0,6.575,2.269,6.575,6.575v4.87c0,4.305-2.269,6.575-6.575,6.575H15.13a.254.254,0,0,0-.195.1l-1.461,1.948A2.206,2.206,0,0,1,11.721,22.25ZM7.825,2.711c-3.487,0-5.114,1.627-5.114,5.114v4.87c0,4.4,1.51,5.114,5.114,5.114h.487a1.827,1.827,0,0,1,1.364.682l1.461,1.948a.676.676,0,0,0,1.169,0l1.461-1.948a1.707,1.707,0,0,1,1.364-.682h.487c3.487,0,5.114-1.627,5.114-5.114V7.825c0-3.487-1.627-5.114-5.114-5.114Z" transform="translate(0 0)" fill="#01d866"/>
    <path id="Path_16" data-name="Path 16" d="M11.974,11.948a.974.974,0,1,1,.974-.974A.971.971,0,0,1,11.974,11.948Z" transform="translate(-0.253 -0.227)" fill="#01d866"/>
    <path id="Path_17" data-name="Path 17" d="M15.974,11.948a.974.974,0,1,1,.974-.974A.971.971,0,0,1,15.974,11.948Z" transform="translate(-0.357 -0.227)" fill="#01d866"/>
    <path id="Path_18" data-name="Path 18" d="M7.974,11.948a.974.974,0,1,1,.974-.974A.971.971,0,0,1,7.974,11.948Z" transform="translate(-0.149 -0.227)" fill="#01d866"/>
  </g>
</svg>
