<svg xmlns="http://www.w3.org/2000/svg" width="20" height="13.75" viewBox="0 0 20 13.75">
  <g id="Money" transform="translate(0 -10)">
    <path id="Path_88939" data-name="Path 88939" d="M15.938,22H.313A.313.313,0,0,0,0,22.313v9.375A.313.313,0,0,0,.313,32H15.938a.313.313,0,0,0,.313-.312V22.313A.313.313,0,0,0,15.938,22Zm-.312,9.375h-15v-8.75h15Z" transform="translate(0 -8.25)" fill="#01d866"/>
    <path id="Path_88940" data-name="Path 88940" d="M4.313,32.25a.939.939,0,0,1,.938.938.312.312,0,0,0,.312.313H16.188a.313.313,0,0,0,.313-.312.939.939,0,0,1,.938-.937.313.313,0,0,0,.313-.312V27.563a.313.313,0,0,0-.312-.312.939.939,0,0,1-.937-.937A.313.313,0,0,0,16.188,26H5.563a.313.313,0,0,0-.312.313.939.939,0,0,1-.937.938A.313.313,0,0,0,4,27.563v4.375A.313.313,0,0,0,4.313,32.25Zm.313-4.406a1.567,1.567,0,0,0,1.219-1.219H15.906a1.567,1.567,0,0,0,1.219,1.219v3.813a1.567,1.567,0,0,0-1.219,1.219H5.844a1.567,1.567,0,0,0-1.219-1.219Z" transform="translate(-2.75 -11)" fill="#01d866"/>
    <path id="Path_88941" data-name="Path 88941" d="M21.938,16H6.313A.313.313,0,0,0,6,16.313v.938h.625v-.625h15v8.75H21V26h.938a.313.313,0,0,0,.313-.312V16.313A.313.313,0,0,0,21.938,16Z" transform="translate(-4.125 -4.125)" fill="#01d866"/>
    <path id="Path_88942" data-name="Path 88942" d="M27.938,10H12.313a.313.313,0,0,0-.312.313v.938h.625v-.625h15v8.75H27V20h.938a.313.313,0,0,0,.313-.312V10.313A.313.313,0,0,0,27.938,10Z" transform="translate(-8.25)" fill="#01d866"/>
    <path id="Path_88943" data-name="Path 88943" d="M35.313,37.625h.313a.313.313,0,0,0,0-.625h-.312a.313.313,0,0,0,0,.625Z" transform="translate(-24.063 -18.563)" fill="#01d866"/>
    <path id="Path_88944" data-name="Path 88944" d="M14.313,37.625h.313a.313.313,0,0,0,0-.625h-.312a.313.313,0,0,0,0,.625Z" transform="translate(-9.625 -18.563)" fill="#01d866"/>
    <path id="Path_88945" data-name="Path 88945" d="M23.219,32.276V31.209a.539.539,0,0,1,.469.483.312.312,0,1,0,.625,0,1.17,1.17,0,0,0-1.094-1.122v-.258a.313.313,0,0,0-.625,0v.259a1.218,1.218,0,0,0-1.033.69.927.927,0,0,0,.264,1.028,2.434,2.434,0,0,0,.769.434v1.067a.54.54,0,0,1-.469-.487.313.313,0,1,0-.625,0,1.17,1.17,0,0,0,1.094,1.122v.258a.312.312,0,0,0,.625,0v-.259a1.218,1.218,0,0,0,1.033-.69.927.927,0,0,0-.264-1.028,2.434,2.434,0,0,0-.769-.434Zm-.967-.444a.31.31,0,0,1-.109-.342.574.574,0,0,1,.451-.289v.844a1.392,1.392,0,0,1-.342-.213ZM23.67,33.51a.574.574,0,0,1-.451.289v-.844a1.392,1.392,0,0,1,.342.213.31.31,0,0,1,.109.342Z" transform="translate(-14.781 -13.75)" fill="#01d866"/>
  </g>
</svg>
