<svg xmlns="http://www.w3.org/2000/svg" width="22.338" height="28" viewBox="0 0 22.338 28">
  <g id="notification" transform="translate(-3.25 -1.25)">
    <path id="Path_20" data-name="Path 20" d="M14.419,3.2a6.95,6.95,0,0,0-6.95,6.95v2.725a5.52,5.52,0,0,1-.656,2.471c-.25.5-.563,1.008-.843,1.461-.105.17-.206.333-.3.485a3.326,3.326,0,0,0-.47,1.711A3.187,3.187,0,0,0,7.92,22.2a51.847,51.847,0,0,0,6.5.562,51.848,51.848,0,0,0,6.5-.562,3.187,3.187,0,0,0,2.716-3.2,3.326,3.326,0,0,0-.47-1.711c-.091-.152-.191-.315-.3-.485-.28-.453-.593-.961-.843-1.461a5.52,5.52,0,0,1-.656-2.471V10.154a6.95,6.95,0,0,0-6.95-6.95Zm-8.9,6.95a8.9,8.9,0,0,1,17.808,0v2.725a3.6,3.6,0,0,0,.451,1.6c.209.418.448.805.709,1.228.116.188.236.383.36.591a5.28,5.28,0,0,1,.745,2.711,5.14,5.14,0,0,1-4.4,5.133,53.668,53.668,0,0,1-6.767.58,53.667,53.667,0,0,1-6.767-.58,5.14,5.14,0,0,1-4.4-5.133A5.28,5.28,0,0,1,4,16.3c.124-.208.244-.4.36-.591.261-.423.5-.81.709-1.228a3.6,3.6,0,0,0,.451-1.6Z" transform="translate(0 0)" fill-rule="evenodd"/>
    <path id="Path_21" data-name="Path 21" d="M16.082,20.247a.977.977,0,0,0-1.354.273,2.422,2.422,0,0,1-4.036,0A.977.977,0,1,0,9.066,21.6a4.375,4.375,0,0,0,7.289,0A.977.977,0,0,0,16.082,20.247Z" transform="translate(1.709 5.694)" fill-rule="evenodd"/>
  </g>
</svg>
