<svg xmlns="http://www.w3.org/2000/svg" width="19.417" height="22.19" viewBox="0 0 19.417 22.19">
  <g id="password" transform="translate(-32)">
    <g id="Group_5911" data-name="Group 5911" transform="translate(32)">
      <g id="Group_5910" data-name="Group 5910" transform="translate(0)">
        <circle id="Ellipse_228" data-name="Ellipse 228" cx="0.867" cy="0.867" r="0.867" transform="translate(13.782 14.129)" fill="#01d866"/>
        <path id="Path_88938" data-name="Path 88938" d="M50.55,15.689a.867.867,0,0,0,.867-.867V11.615a3.471,3.471,0,0,0-3.467-3.467H46.908V5.091a5.2,5.2,0,0,0-10.4,0V8.148H35.467A3.471,3.471,0,0,0,32,11.615v7.108a3.471,3.471,0,0,0,3.467,3.467H47.949a3.471,3.471,0,0,0,3.467-3.467.867.867,0,1,0-1.734,0,1.736,1.736,0,0,1-1.734,1.734H35.467a1.736,1.736,0,0,1-1.734-1.734V11.615a1.736,1.736,0,0,1,1.734-1.734H47.949a1.736,1.736,0,0,1,1.734,1.734v3.207A.867.867,0,0,0,50.55,15.689ZM45.174,8.148H38.239V5.091a3.469,3.469,0,0,1,6.935,0Z" transform="translate(-32)" fill="#01d866"/>
        <circle id="Ellipse_229" data-name="Ellipse 229" cx="0.867" cy="0.867" r="0.867" transform="translate(7.238 14.129)" fill="#01d866"/>
        <circle id="Ellipse_230" data-name="Ellipse 230" cx="0.867" cy="0.867" r="0.867" transform="translate(3.987 14.129)" fill="#01d866"/>
        <circle id="Ellipse_231" data-name="Ellipse 231" cx="0.867" cy="0.867" r="0.867" transform="translate(10.488 14.129)" fill="#01d866"/>
      </g>
    </g>
  </g>
</svg>
