<svg xmlns="http://www.w3.org/2000/svg" width="168.871" height="209.333" viewBox="0 0 168.871 209.333">
  <g id="Group_283" data-name="Group 283" transform="translate(-275.304 -324.362)">
    <g id="Group_282" data-name="Group 282" transform="translate(320.448 452.459)">
      <ellipse id="Ellipse_34" data-name="Ellipse 34" cx="39.995" cy="6.22" rx="39.995" ry="6.22" fill="#01d866"/>
      <path id="Path_969" data-name="Path 969" d="M327.318,465.819h19.937a85.764,85.764,0,0,0,17.511-2.417l11.085-71.858h-.121c0,3.3-17.213,5.979-38.443,5.979s-38.445-2.676-38.445-5.979h-.121L309.807,463.4A85.764,85.764,0,0,0,327.318,465.819Z" transform="translate(-297.292 -385.083)" fill="#fff" stroke="#01d866" stroke-linejoin="round" stroke-width="1"/>
    </g>
    <path id="Path_970" data-name="Path 970" d="M304.483,348.831a28.591,28.591,0,0,0-27.653,36.179,6.641,6.641,0,0,1,2.929-.7,6.71,6.71,0,0,1,3.5,12.442,28.666,28.666,0,1,0,21.222-47.922Z" transform="translate(0 24.219)" fill="#fff" stroke="#01d866" stroke-width="1"/>
    <path id="Path_971" data-name="Path 971" d="M304.665,361.15a3.956,3.956,0,1,1-3.955-3.957A3.956,3.956,0,0,1,304.665,361.15Z" transform="translate(21.168 32.668)" fill="#fff" stroke="#01d866" stroke-linejoin="round" stroke-width="1"/>
    <circle id="Ellipse_35" data-name="Ellipse 35" cx="28.679" cy="28.679" r="28.679" transform="translate(363.718 390.329) rotate(-55.49)" fill="#fff" stroke="#01d866" stroke-width="1"/>
    <path id="Path_972" data-name="Path 972" d="M357.615,353.925s-41.254,23.974-37.826,71.84" transform="translate(44.238 29.366)" fill="none" stroke="#01d866" stroke-linejoin="round" stroke-width="1"/>
    <path id="Path_973" data-name="Path 973" d="M315.592,373.956a28.68,28.68,0,1,0-.271-40.558A28.677,28.677,0,0,0,315.592,373.956Z" transform="translate(31.577 0)" fill="#fff" stroke="#01d866" stroke-width="1"/>
    <path id="Path_974" data-name="Path 974" d="M327.454,339.758s-28.683,70.917-2.24,106.52" transform="translate(38.61 15.051)" fill="none" stroke="#01d866" stroke-linejoin="round" stroke-width="1"/>
    <path id="Path_975" data-name="Path 975" d="M290.561,363.1s45.12,15.518,51.04,63.141" transform="translate(14.911 38.632)" fill="none" stroke="#01d866" stroke-linejoin="round" stroke-width="1"/>
    <path id="Path_976" data-name="Path 976" d="M348.6,359.817A28.591,28.591,0,0,1,376.254,396a6.641,6.641,0,0,0-2.929-.7,6.71,6.71,0,0,0-3.5,12.442A28.666,28.666,0,1,1,348.6,359.817Z" transform="translate(44.575 35.319)" fill="#fff" stroke="#01d866" stroke-width="1"/>
    <path id="Path_977" data-name="Path 977" d="M323.565,372.136a3.957,3.957,0,1,0,3.956-3.957A3.956,3.956,0,0,0,323.565,372.136Z" transform="translate(48.258 43.768)" fill="#fff" stroke="#01d866" stroke-linejoin="round" stroke-width="1"/>
    <path id="Path_978" data-name="Path 978" d="M357.022,370.967s-31.847,12.658-39.664,45.886" transform="translate(41.987 46.585)" fill="none" stroke="#01d866" stroke-linejoin="round" stroke-width="1"/>
  </g>
</svg>
