<svg xmlns="http://www.w3.org/2000/svg" width="16.923" height="20" viewBox="0 0 16.923 20">
  <g id="user_account_people_man" data-name="user, account, people, man" transform="translate(-5 -3)">
    <path id="Path_595" data-name="Path 595" d="M19.413,16.114a.769.769,0,1,0-1.082,1.094,6.875,6.875,0,0,1,2.053,4.921c0,.941-2.7,2.308-6.923,2.308s-6.923-1.368-6.923-2.309a6.876,6.876,0,0,1,2.027-4.894.769.769,0,1,0-1.088-1.088A8.4,8.4,0,0,0,5,22.129c0,2.5,4.359,3.846,8.462,3.846s8.462-1.348,8.462-3.846A8.4,8.4,0,0,0,19.413,16.114Z" transform="translate(0 -2.975)" fill="#01d866"/>
    <path id="Path_596" data-name="Path 596" d="M14.385,13.769A5.385,5.385,0,1,0,9,8.385,5.385,5.385,0,0,0,14.385,13.769Zm0-9.231a3.846,3.846,0,1,1-3.846,3.846,3.846,3.846,0,0,1,3.846-3.846Z" transform="translate(-0.923)" fill="#01d866"/>
  </g>
</svg>
