<svg xmlns="http://www.w3.org/2000/svg" width="105.391" height="93.026" viewBox="0 0 105.391 93.026">
  <g id="right-quote" transform="translate(0.001 -57.197)">
    <path id="Path_1110" data-name="Path 1110" d="M596.067,57.2H563.208a5.406,5.406,0,0,0-5.4,5.4V95.46a5.406,5.406,0,0,0,5.4,5.4h15.727q-.308,12.906-5.988,20.667-4.475,6.129-13.544,10.139a5.4,5.4,0,0,0-2.681,7.253l3.891,8.215a5.4,5.4,0,0,0,7.037,2.637,60.087,60.087,0,0,0,18.126-11.76,45.629,45.629,0,0,0,12.354-19.661q3.34-10.96,3.34-29.919V62.6A5.407,5.407,0,0,0,596.067,57.2Z" transform="translate(-496.082 0)" fill="#f9fafd"/>
    <path id="Path_1111" data-name="Path 1111" d="M11.46,149.753A61.1,61.1,0,0,0,29.5,138.015a45.387,45.387,0,0,0,12.43-19.586q3.34-10.879,3.34-29.995V62.6a5.406,5.406,0,0,0-5.4-5.4H7.007a5.406,5.406,0,0,0-5.4,5.4V95.46a5.406,5.406,0,0,0,5.4,5.4H22.734q-.308,12.906-5.988,20.667Q12.271,127.66,3.2,131.67a5.4,5.4,0,0,0-2.681,7.253l3.88,8.193A5.419,5.419,0,0,0,11.46,149.753Z" transform="translate(0 0)" fill="#f9fafd"/>
  </g>
</svg>
