<svg xmlns="http://www.w3.org/2000/svg" width="75" height="75" viewBox="0 0 75 75">
  <g id="Group_374" data-name="Group 374" transform="translate(-923 -447)">
    <g id="Ellipse_47" data-name="Ellipse 47" transform="translate(923 447)" fill="#c2ffdd" stroke="#8df3bd" stroke-width="1">
      <circle cx="37.5" cy="37.5" r="37.5" stroke="none"/>
      <circle cx="37.5" cy="37.5" r="37" fill="none"/>
    </g>
    <g id="_6-Check" data-name="6-Check" transform="translate(910 409.842)">
      <path id="Path_516" data-name="Path 516" d="M48.569,91.158a.8.8,0,0,1-.585-.256L32.212,73.841A.8.8,0,0,1,32.8,72.5h7.592a.8.8,0,0,1,.6.274l5.271,6.064a30.2,30.2,0,0,1,3.608-5.716c2.861-3.653,8.182-9.024,17.287-13.874a.8.8,0,0,1,.864,1.331,52.1,52.1,0,0,0-7.585,7.855A58.576,58.576,0,0,0,49.342,90.553a.8.8,0,0,1-.773.605Z" transform="translate(0 0)" fill="#01d866"/>
    </g>
  </g>
</svg>
