<svg xmlns="http://www.w3.org/2000/svg" width="288.757" height="211.817" viewBox="0 0 288.757 211.817">
  <g id="tild3761-6537-4330-a239-633464663163__ind-main-ill-12" transform="translate(-61.706 -0.734)">
    <circle id="Ellipse_37" data-name="Ellipse 37" cx="9.711" cy="9.711" r="9.711" transform="translate(219.175 60.2) rotate(180)" fill="#d9d9d9"/>
    <circle id="Ellipse_38" data-name="Ellipse 38" cx="5.549" cy="5.549" r="5.549" transform="translate(305.185 128.179) rotate(180)" fill="#d9d9d9"/>
    <circle id="Ellipse_39" data-name="Ellipse 39" cx="5.549" cy="5.549" r="5.549" transform="translate(289.929 46.327) rotate(180)" fill="#d9d9d9"/>
    <path id="Path_983" data-name="Path 983" d="M294.9,54.29c-1.765,7.594-6.18,9.017-6.18,9.017s2.649,2.373,3.532,9.017c2.648-7.594,6.179-7.594,6.179-7.594A16.942,16.942,0,0,1,294.9,54.29Z" transform="translate(37.265 8.685)" fill="none" stroke="#01d866" stroke-linecap="round" stroke-linejoin="round" stroke-width="1.5"/>
    <path id="Path_984" data-name="Path 984" d="M202.083,72.743c.962-10.538-5.3-68.254-14.271-57.393s21.717,30.064,49.3,24.317S273.177,6.79,264.692,1.934,252.417,34.1,277.363,45.415s44.6,2.852,38.937-5.748-28.276,9.642-23.7,37.875,47.169,45.024,44.394,30.142-45.087-14.188-55.9,0-11.509,48.75,0,42.577-33.607-42.577-56.705-42.577S183,144.088,183,144.088s20.692-30.656,4.812-45.984-49.085,13.412-49.085,13.412S201.12,83.281,202.083,72.743Z" transform="translate(12.587 0)" fill="none" stroke="#262626" stroke-linecap="round" stroke-linejoin="round" stroke-width="1.5"/>
    <path id="Path_985" data-name="Path 985" d="M89.467,45.085H269.736A16.885,16.885,0,0,1,286.521,63.8L276.16,159.031a16.885,16.885,0,0,1-16.787,15.06H79.106A16.886,16.886,0,0,1,62.32,155.378L72.681,60.144A16.886,16.886,0,0,1,89.467,45.085Z" transform="translate(0 7.171)" fill="#01d866" stroke="#fff" stroke-width="1"/>
    <path id="Path_986" data-name="Path 986" d="M97.463,64.284a2.329,2.329,0,0,1,2.31-2.03h66.3a2.329,2.329,0,0,1,2.309,2.628l-.433,3.346a2.329,2.329,0,0,1-2.309,2.03h-66.3a2.329,2.329,0,0,1-2.31-2.628Z" transform="translate(5.724 9.996)" fill="#fff"/>
    <path id="Path_987" data-name="Path 987" d="M91.189,101.75a2.329,2.329,0,0,1,2.325-2.186h29.141a2.329,2.329,0,0,1,2.324,2.472l-.206,3.346a2.329,2.329,0,0,1-2.324,2.186H93.308a2.329,2.329,0,0,1-2.325-2.472Z" transform="translate(4.732 16.134)" fill="#fff"/>
    <path id="Path_988" data-name="Path 988" d="M94.1,62.254l-9.147,4,9.147,4" transform="translate(3.74 9.996)" fill="none" stroke="#262626" stroke-linecap="round" stroke-linejoin="round" stroke-width="1"/>
    <path id="Path_989" data-name="Path 989" d="M88.21,99.564l-9.147,4,9.147,4" transform="translate(2.771 16.134)" fill="none" stroke="#262626" stroke-linecap="round" stroke-linejoin="round" stroke-width="1"/>
    <path id="Path_990" data-name="Path 990" d="M162.523,62.254l6.86,4-6.86,4" transform="translate(16.502 9.996)" fill="none" stroke="#262626" stroke-linecap="round" stroke-linejoin="round" stroke-width="1"/>
    <path id="Path_991" data-name="Path 991" d="M125.21,100.546l6.861,4-6.861,4" transform="translate(10.363 16.296)" fill="none" stroke="#262626" stroke-linecap="round" stroke-linejoin="round" stroke-width="1"/>
    <path id="Path_992" data-name="Path 992" d="M88.023,77.139s-3.07,5.368-3.07,8.128c0,2.925,2.961,2.05,5.97.594a25.14,25.14,0,0,0,6.695-4.774c3.065-3.339-.424,2.071,1.535,3.019,2.471,1.2,6.26-.1,8.23-1.29,4.78-2.893,1.374,1.29,5.585,1.29,1.344,0,3.513-1.234,5.757-2.787-.785,3.866,6.854,1.322,9.21.568,1.834-.588,5.231-2.2,5.769-3.339,1.1-2.325-2.627-1.747-4.4.449a5.5,5.5,0,0,0-1.68,4.643c.229,3.875,5.021,3.432,6.882,2.789a23.344,23.344,0,0,0,6.284-2.981c.413-.281,2.6-3.12,1.677-4.333a1.428,1.428,0,0,0-1.528-.566c-2.6.449-.68,5.834,2.351,6.487s4.724-3.959,10.27-3.148" transform="translate(3.74 12.431)" fill="none" stroke="#fff" stroke-linecap="round" stroke-linejoin="round" stroke-width="1"/>
    <path id="Path_993" data-name="Path 993" d="M153.373,78.579A13.984,13.984,0,0,0,151.367,90.9" transform="translate(14.563 12.682)" fill="none" stroke="#fff" stroke-linecap="round" stroke-width="1"/>
    <path id="Path_994" data-name="Path 994" d="M159.864,77.964a4.064,4.064,0,0,0,.259,1.042,16.4,16.4,0,0,1,.585,2.554,14.363,14.363,0,0,1,.08,5.188,8.376,8.376,0,0,1-.851,2.427,1.733,1.733,0,0,1-.462.6c-.277.159-.412.651-.628.875-.313.325-.542.767-.988.915" transform="translate(15.735 12.58)" fill="none" stroke="#fff" stroke-linecap="round" stroke-width="1"/>
    <path id="Path_995" data-name="Path 995" d="M233.625,190.559s32.25-40.847,13.334-57.881-72.409,26.054-65.207,42.533,35.933-9.093,35.933-9.093" transform="translate(19.557 20.938)" fill="none" stroke="#1a1a1a" stroke-linecap="round" stroke-linejoin="round" stroke-width="1.5"/>
    <path id="Path_996" data-name="Path 996" d="M232.053,136.253S205.068,76.348,187.3,85.09s3.6,68.756,13.776,59.277-16.971-41.143-29.441-33.008,4.206,47.737,10.377,39.756-13.731-28.582-24.25-21.721.878,36.763,9.017,30.52-18.035-11.1-18.035-11.1" transform="translate(14.236 13.609)" fill="none" stroke="#1a1a1a" stroke-linecap="round" stroke-linejoin="round" stroke-width="1.5"/>
  </g>
</svg>
