<svg xmlns="http://www.w3.org/2000/svg" width="321.695" height="200" viewBox="0 0 321.695 200">
  <g id="tild3139-3437-4034-b961-336138653331__ind-main-ill-13" transform="translate(11.344 15.343)">
    <rect id="Rectangle_217" data-name="Rectangle 217" width="95.836" height="95.836" rx="14.782" transform="translate(205.126 38.609)" fill="#d9d9d9"/>
    <rect id="Rectangle_218" data-name="Rectangle 218" width="95.485" height="95.485" rx="14.782" transform="translate(119.498 67.131) rotate(11.953)" fill="#01d866"/>
    <path id="Path_997" data-name="Path 997" d="M163.1,162.6a20.248,20.248,0,0,0,14.48-3.05" transform="translate(-22.164 -22.221)" fill="none" stroke="rgba(0,0,0,0.85)" stroke-linecap="round" stroke-width="1.971"/>
    <path id="Path_998" data-name="Path 998" d="M152.773,114.751c2.35,3.7,2.612,5.194,3.008,9.034" transform="translate(-20.851 -16.529)" fill="none" stroke="rgba(0,0,0,0.85)" stroke-linecap="round" stroke-width="1.971"/>
    <path id="Path_999" data-name="Path 999" d="M276.078,119.758c2.481,2,10.68,2,14.062-3.906" transform="translate(-36.518 -16.669)" fill="none" stroke="rgba(0,0,0,0.85)" stroke-linecap="round" stroke-width="1.478"/>
    <path id="Path_1000" data-name="Path 1000" d="M297.847,65.715c-1.929,1.447-2.894,4.823-2.894,6.752" transform="translate(-38.916 -10.299)" fill="none" stroke="rgba(0,0,0,0.85)" stroke-linecap="round" stroke-width="1.971"/>
    <path id="Path_1001" data-name="Path 1001" d="M168.423,103.7c13.022-4.341,41.478,7.234,39.549,22.186s-31.35,17.363-30.867,6.752,34.243,9.163,16.88,42.443" transform="translate(-22.84 -15.008)" fill="none" stroke="#000" stroke-linecap="round" stroke-linejoin="round" stroke-width="1.478"/>
    <path id="Path_1002" data-name="Path 1002" d="M280.6,51.35c-26.044,24.6-29.421,31.832-24.6,40.032s37.218,3.376,25.563-6.27-31.832,38.1,0,51.607" transform="translate(-33.731 -8.474)" fill="none" stroke="#000" stroke-linecap="round" stroke-linejoin="round" stroke-width="1.478"/>
    <path id="Path_1003" data-name="Path 1003" d="M301.023,46.377c2.894,22.186,23.151,18.81,23.151,18.81s-13.5,30.868,25.081,28.456" transform="translate(-39.687 -7.842)" fill="none" stroke="#000" stroke-linecap="round" stroke-linejoin="round" stroke-width="1.478"/>
    <path id="Path_1004" data-name="Path 1004" d="M170.632,69.955S182.207,41.5,221.757,52.11" transform="translate(-23.121 -8.269)" fill="none" stroke="#000" stroke-linecap="round" stroke-linejoin="round" stroke-width="1.478"/>
    <path id="Path_1005" data-name="Path 1005" d="M335.221,135.33c-.965,77.169-99.837,45.818-86.815,34.243s22.187,31.833-23.632,29.9" transform="translate(-29.999 -19.143)" fill="none" stroke="#000" stroke-linecap="round" stroke-linejoin="round" stroke-width="1.478"/>
    <path id="Path_1006" data-name="Path 1006" d="M104.061,201.538c-22.669-6.752-32.836-53.179-16.9-55.456,11.953-1.707,13.091,23.906,7.4,25.613s0-39.127,9.5-39.127,4.823,16.4,4.823,16.4" transform="translate(-11.532 -18.793)" fill="none" stroke="#000" stroke-linecap="round" stroke-linejoin="round" stroke-width="1.478"/>
    <path id="Path_1007" data-name="Path 1007" d="M112.8,172.6c-9.2-15.916,9.553-30.425,16.4-22.669s-7.384,12.31-7.384,12.31,1.257,10.84,6.42,9.394,1.929-14.469,7.717-14.952,10.611,28.938-6.752,35.69" transform="translate(-15.457 -20.725)" fill="none" stroke="#000" stroke-linecap="round" stroke-linejoin="round" stroke-width="1.478"/>
    <path id="Path_1008" data-name="Path 1008" d="M225.877,53.214a.645.645,0,1,0,.963.859Zm5.89-1.456.038.644a.645.645,0,0,0,.163-1.257Zm-3.892-4.779a.645.645,0,0,0-1.254.3Zm-1.034,7.094a5.8,5.8,0,0,1,2.921-1.366,14.492,14.492,0,0,1,1.446-.247c.188-.023.339-.037.443-.046l.118-.009.029,0h.008l-.038-.644-.037-.644h-.015l-.038,0-.137.011c-.117.01-.284.026-.487.05a15.794,15.794,0,0,0-1.577.27,6.992,6.992,0,0,0-3.6,1.765Zm4.927-2.315.2-.613h0l-.023-.008-.1-.038c-.091-.035-.225-.09-.391-.167a8.085,8.085,0,0,1-1.258-.73,5.613,5.613,0,0,1-2.316-3.222l-1.254.3a6.9,6.9,0,0,0,2.823,3.971,9.356,9.356,0,0,0,1.462.849c.194.09.354.156.469.2l.135.05.039.014.011,0h.006S231.567,52.372,231.767,51.759Z" transform="translate(-30.119 -7.855)"/>
    <path id="Path_1009" data-name="Path 1009" d="M227.606,205.834a.645.645,0,1,0-1.006-.809Zm-5.808,1.755-.07-.642a.645.645,0,0,0-.1,1.264Zm4.132,4.574a.645.645,0,0,0,1.237-.367Zm.67-7.138a5.8,5.8,0,0,1-2.847,1.514c-.549.154-1.06.257-1.433.321-.186.031-.337.054-.44.068l-.117.015-.029,0h-.008s0,0,.071.642.07.642.07.642h.015l.038,0,.135-.018c.116-.016.282-.04.484-.075a15.539,15.539,0,0,0,1.562-.35,7,7,0,0,0,3.5-1.947Zm-4.8,2.564-.169.622h0l.024.007.1.033c.093.031.23.079.4.147a8.123,8.123,0,0,1,1.295.664,5.616,5.616,0,0,1,2.477,3.1l1.237-.367a6.9,6.9,0,0,0-3.022-3.822,9.256,9.256,0,0,0-1.5-.773c-.2-.08-.361-.138-.478-.175l-.138-.044-.039-.011-.012,0,0,0h0S221.967,206.966,221.8,207.589Z" transform="translate(-29.539 -27.968)"/>
    <path id="Path_1010" data-name="Path 1010" d="M63.617,57.849C87.046,77.974,132.1,109.664,132.1,134.9c0,13.415-5.106,20.576-6.758,22.528" transform="translate(-9.524 -9.299)" fill="none" stroke="#000" stroke-width="1.548"/>
    <circle id="Ellipse_40" data-name="Ellipse 40" cx="42.409" cy="42.409" r="42.409" transform="translate(-11.344 47.249) rotate(-47.559)" fill="#01d866"/>
    <path id="Path_1011" data-name="Path 1011" d="M27.627,71.267s-2.836-10.522,5.687-8.874,7.4,21.981,7.4,21.981l9.059-9.026" transform="translate(-4.894 -9.854)" fill="none" stroke="#fff" stroke-linecap="round" stroke-linejoin="round" stroke-width="1.585"/>
    <path id="Path_1012" data-name="Path 1012" d="M62.593,63.259,46.406,44.011l.955,18.642,9.226-11.671" transform="translate(-7.337 -7.541)" fill="none" stroke="#fff" stroke-linecap="round" stroke-linejoin="round" stroke-width="1.585"/>
    <path id="Path_1013" data-name="Path 1013" d="M83.3,39.1,76.945,28.245m-14.858-.423,8.5-10.427,6.355,10.851m0,0-2.51,2.744m2.51-2.744,2.51-2.744" transform="translate(-9.33 -4.159)" fill="none" stroke="#fff" stroke-linecap="round" stroke-linejoin="round" stroke-width="1.585"/>
    <path id="Path_1014" data-name="Path 1014" d="M73.675,54.674l-21.8-24.382" transform="translate(-8.032 -5.798)" fill="none" stroke="#fff" stroke-linecap="round" stroke-linejoin="round" stroke-width="1.585"/>
    <path id="Path_1015" data-name="Path 1015" d="M94.088,93.874l-3-9.5L93.04,80l11.338.173Z" transform="translate(-13.014 -12.113)" fill="#01d866" stroke="#01d866" stroke-width="1.369"/>
  </g>
</svg>
