<svg id="time_1_" data-name="time (1)" xmlns="http://www.w3.org/2000/svg" width="20" height="20" viewBox="0 0 20 20">
  <g id="Group_45" data-name="Group 45">
    <path id="Path_90" data-name="Path 90" d="M10,20A10,10,0,1,0,0,10,10.012,10.012,0,0,0,10,20ZM10,1.333A8.667,8.667,0,1,1,1.333,10,8.675,8.675,0,0,1,10,1.333Z" fill="#aaa"/>
    <path id="Path_91" data-name="Path 91" d="M171.25,81.045a.656.656,0,0,0,.417.147A.667.667,0,0,0,172.084,80L169,77.538V72.525a.667.667,0,0,0-1.333,0v5.333a.669.669,0,0,0,.25.52Z" transform="translate(-158.334 -67.858)" fill="#aaa"/>
  </g>
</svg>
