<svg id="time_1_" data-name="time (1)" xmlns="http://www.w3.org/2000/svg" width="18" height="18" viewBox="0 0 18 18">
  <g id="Group_45" data-name="Group 45">
    <path id="Path_90" data-name="Path 90" d="M9,18A9,9,0,1,0,0,9,9.011,9.011,0,0,0,9,18ZM9,1.2A7.8,7.8,0,1,1,1.2,9,7.807,7.807,0,0,1,9,1.2Z"/>
    <path id="Path_91" data-name="Path 91" d="M170.892,80.126a.591.591,0,0,0,.375.132.6.6,0,0,0,.375-1.068l-2.775-2.22V72.458a.6.6,0,1,0-1.2,0v4.8a.6.6,0,0,0,.225.468Z" transform="translate(-159.267 -68.258)"/>
  </g>
</svg>
