<svg xmlns="http://www.w3.org/2000/svg" width="44" height="44" viewBox="0 0 44 44">
  <g id="twitter-new" transform="translate(-1576 -6368)">
    <circle id="Ellipse_68" data-name="Ellipse 68" cx="22" cy="22" r="22" transform="translate(1576 6368)" fill="#3a434e"/>
    <path id="twitter" d="M17.73,49.705a7.579,7.579,0,0,1-2.094.574,3.614,3.614,0,0,0,1.6-2.009,7.264,7.264,0,0,1-2.3.88,3.635,3.635,0,0,0-6.288,2.486,3.743,3.743,0,0,0,.084.829,10.289,10.289,0,0,1-7.492-3.8,3.636,3.636,0,0,0,1.117,4.858,3.59,3.59,0,0,1-1.642-.448v.04a3.652,3.652,0,0,0,2.912,3.572,3.628,3.628,0,0,1-.953.12,3.214,3.214,0,0,1-.688-.062,3.67,3.67,0,0,0,3.4,2.532A7.3,7.3,0,0,1,.87,60.825a6.809,6.809,0,0,1-.87-.05,10.233,10.233,0,0,0,5.576,1.631A10.274,10.274,0,0,0,15.922,52.063c0-.161-.006-.316-.013-.47A7.251,7.251,0,0,0,17.73,49.705Z" transform="translate(1589 6335)" fill="#fff"/>
  </g>
</svg>
