<svg xmlns="http://www.w3.org/2000/svg" xmlns:xlink="http://www.w3.org/1999/xlink" width="85" height="85" viewBox="0 0 85 85">
  <defs>
    <filter id="Rectangle_374" x="0" y="0" width="85" height="85" filterUnits="userSpaceOnUse">
      <feOffset dy="3" input="SourceAlpha"/>
      <feGaussianBlur stdDeviation="5" result="blur"/>
      <feFlood flood-opacity="0.078"/>
      <feComposite operator="in" in2="blur"/>
      <feComposite in="SourceGraphic"/>
    </filter>
  </defs>
  <g id="Group_407" data-name="Group 407" transform="translate(-955 -608)">
    <g transform="matrix(1, 0, 0, 1, 955, 608)" filter="url(#Rectangle_374)">
      <g id="Rectangle_374-2" data-name="Rectangle 374" transform="translate(15 12)" fill="#fff" stroke="#ececec" stroke-width="1">
        <rect width="55" height="55" rx="15" stroke="none"/>
        <rect x="0.5" y="0.5" width="54" height="54" rx="14.5" fill="none"/>
      </g>
    </g>
    <path id="twitter" d="M29.538,50.841a12.625,12.625,0,0,1-3.489.956,6.022,6.022,0,0,0,2.664-3.347,12.1,12.1,0,0,1-3.84,1.466A6.055,6.055,0,0,0,14.4,54.057a6.235,6.235,0,0,0,.14,1.381A17.141,17.141,0,0,1,2.057,49.1,6.057,6.057,0,0,0,3.918,57.2a5.98,5.98,0,0,1-2.736-.746v.066a6.083,6.083,0,0,0,4.852,5.95,6.044,6.044,0,0,1-1.588.2,5.354,5.354,0,0,1-1.146-.1,6.113,6.113,0,0,0,5.658,4.218,12.168,12.168,0,0,1-7.508,2.583A11.343,11.343,0,0,1,0,69.282,17.048,17.048,0,0,0,9.29,72c11.143,0,17.236-9.231,17.236-17.232,0-.268-.009-.526-.022-.783A12.081,12.081,0,0,0,29.538,50.841Z" transform="translate(983 588)" fill="#03a9f4"/>
  </g>
</svg>
