<svg xmlns="http://www.w3.org/2000/svg" width="50.722" height="14" viewBox="0 0 50.722 14">
  <g id="upi-ar21" transform="translate(-10.001 -16.199)">
    <path id="Path_942" data-name="Path 942" d="M95.678,29.8l7.264-6.627L99.5,16.319Z" transform="translate(-42.219 -0.059)" fill="#097939" fill-rule="evenodd"/>
    <path id="Path_943" data-name="Path 943" d="M90.854,29.8l7.264-6.627-3.441-6.856Z" transform="translate(-39.842 -0.059)" fill="#ed752e" fill-rule="evenodd"/>
    <path id="Path_944" data-name="Path 944" d="M16.3,16.336,13.237,27.229l10.858.076,2.982-10.969H29.83L26.254,29.088a1.279,1.279,0,0,1-1.164.883H11.172A1.1,1.1,0,0,1,10.056,28.5l3.411-12.163Zm33.569-.076h2.753l-3.823,13.71h-2.83ZM30.136,21.973,43.9,21.9,44.819,19H30.824l.841-2.666L46.578,16.2a1.2,1.2,0,0,1,1.237,1.606L46.409,22.94a2.326,2.326,0,0,1-2.125,1.622H31.972L30.52,30.2H27.842Z" transform="translate(0 0)" fill="#747474" fill-rule="evenodd"/>
  </g>
</svg>
