<svg xmlns="http://www.w3.org/2000/svg" xmlns:xlink="http://www.w3.org/1999/xlink" width="1320" height="742" viewBox="0 0 1320 742">
  <defs>
    <clipPath id="clip-path">
      <rect id="Rectangle_365" data-name="Rectangle 365" width="1320" height="742" rx="25" transform="translate(1120 0.316)" fill="#fff" stroke="#707070" stroke-width="1"/>
    </clipPath>
  </defs>
  <g id="video-bg" transform="translate(-1120 -0.316)" clip-path="url(#clip-path)">
    <g id="Group_421" data-name="Group 421" transform="translate(1120 -40.736)">
      <rect id="Rectangle_364" data-name="Rectangle 364" width="1320" height="742" transform="translate(0 41.052)" fill="#01d866"/>
      <g id="Ellipse_54" data-name="Ellipse 54" transform="translate(891.22)" fill="#77ff01" stroke="#707070" stroke-width="1" opacity="0.42">
        <circle cx="92.195" cy="92.195" r="92.195" stroke="none"/>
        <circle cx="92.195" cy="92.195" r="91.695" fill="none"/>
      </g>
      <g id="Group_398" data-name="Group 398" transform="translate(160.645 62.54)">
        <g id="Group_397" data-name="Group 397" transform="translate(268.845 0)">
          <path id="Path_1064" data-name="Path 1064" d="M735.4,394.879c-20.138-34.572-12.413-107.326-12.413-107.326l-4.526,4.141c20.176-52.754,3.295-74.068,3.295-74.068-49.8-74.112-124.33-25.117-124.33-25.117s-54.683,8.735-34.452,74.09a53.9,53.9,0,0,1,1.893,13.842c-.16.586-8.615,31.586-11.611,37.4-2.172,4.219,8.774,10.034,15.114,12.979,14.16,61.866,17.348,59.667,17.348,59.667,25.023,1.189,44.955-2.9,61.1-10.154,2.224,11.635,4.5,24.156,4.5,24.156,5.379,42.594-54.747,69.993-54.747,69.993l114.112,43.1,113.392-72.34S759.939,437.007,735.4,394.879Z" transform="translate(-119.407 -149.829)" fill="#fff" stroke="#01d866" stroke-miterlimit="10" stroke-width="1"/>
          <g id="Group_391" data-name="Group 391" transform="translate(0 370.101)">
            <g id="Group_390" data-name="Group 390">
              <path id="Path_1065" data-name="Path 1065" d="M394.6,441.159l381.466-34.665,221.616,61.9,1.023,15.76L617.242,518.817l-221.615-61.9Z" transform="translate(-349.301 -186.252)" fill="#fff" stroke="#01d866" stroke-linejoin="round" stroke-width="1"/>
              <g id="Group_382" data-name="Group 382" transform="translate(6.914)">
                <path id="Path_1066" data-name="Path 1066" d="M427.675,573.007,801.419,551.08,744.265,316.658h0L378.945,333.7Z" transform="translate(-378.945 -316.658)" fill="#fff" stroke="#01d866" stroke-linejoin="round" stroke-width="1"/>
                <path id="Path_1067" data-name="Path 1067" d="M464.874,325.66c.586,2.567-.713,5.053-2.9,5.553s-4.44-1.177-5.026-3.744.713-5.053,2.9-5.553S464.289,323.093,464.874,325.66Z" transform="translate(-265.922 -309.153)" fill="#01d866"/>
              </g>
              <path id="Path_1068" data-name="Path 1068" d="M383.039,333.7l365.32-17.044L383.039,333.7l48.73,239.3-10.315-1.035-45.329-231Z" transform="translate(-376.125 -316.658)" fill="#fff" stroke="#01d866" stroke-linejoin="round" stroke-width="1"/>
              <g id="Group_383" data-name="Group 383" transform="translate(35.189 21.05)">
                <path id="Path_1069" data-name="Path 1069" d="M390.478,340.309l319.494-15.065L752.516,510.5,431.755,539.285Z" transform="translate(-390.478 -325.244)" fill="#3cd684" stroke="#01d866" stroke-miterlimit="10" stroke-width="1"/>
              </g>
              <path id="Path_1070" data-name="Path 1070" d="M394.6,441.159l221.615,61.9,381.466-34.666-221.615-61.9Z" transform="translate(-349.301 -186.252)" fill="#fff" stroke="#01d866" stroke-linejoin="round" stroke-width="1"/>
              <path id="Path_1071" data-name="Path 1071" d="M527.135,471.063,416.673,440.21l326.455-29.666,107.3,29.968Z" transform="translate(-317.266 -180.373)" fill="#fff" stroke="#01d866" stroke-linejoin="round" stroke-width="1"/>
              <line id="Line_4557" data-name="Line 4557" y1="29.343" x2="327.613" transform="translate(122.944 237.069)" fill="#fff" stroke="#01d866" stroke-linejoin="round" stroke-width="1"/>
              <line id="Line_4558" data-name="Line 4558" y1="29.343" x2="327.613" transform="translate(150.46 244.824)" fill="#fff" stroke="#01d866" stroke-linejoin="round" stroke-width="1"/>
              <line id="Line_4559" data-name="Line 4559" y1="29.343" x2="327.613" transform="translate(177.976 252.578)" fill="#fff" stroke="#01d866" stroke-linejoin="round" stroke-width="1"/>
              <line id="Line_4560" data-name="Line 4560" x2="108.234" y2="30.101" transform="translate(138.896 256.656)" fill="#fff" stroke="#01d866" stroke-linejoin="round" stroke-width="1"/>
              <line id="Line_4561" data-name="Line 4561" x2="108.234" y2="30.101" transform="translate(175.505 253.473)" fill="#fff" stroke="#01d866" stroke-linecap="round" stroke-linejoin="round" stroke-width="1"/>
              <line id="Line_4562" data-name="Line 4562" x2="108.234" y2="30.101" transform="translate(206.945 250.41)" fill="#fff" stroke="#01d866" stroke-linecap="round" stroke-linejoin="round" stroke-width="1"/>
              <line id="Line_4563" data-name="Line 4563" x2="108.234" y2="30.101" transform="translate(238.386 247.347)" fill="#fff" stroke="#405391" stroke-linecap="round" stroke-linejoin="round" stroke-width="1"/>
              <line id="Line_4564" data-name="Line 4564" x2="108.234" y2="30.101" transform="translate(269.826 244.284)" fill="#fff" stroke="#405391" stroke-linecap="round" stroke-linejoin="round" stroke-width="1"/>
              <line id="Line_4565" data-name="Line 4565" x2="106.805" y2="29.704" transform="translate(302.694 241.618)" fill="#fff" stroke="#405391" stroke-linecap="round" stroke-linejoin="round" stroke-width="1"/>
              <line id="Line_4566" data-name="Line 4566" x2="107.885" y2="30.004" transform="translate(334.004 238.519)" fill="#fff" stroke="#405391" stroke-linecap="round" stroke-linejoin="round" stroke-width="1"/>
              <line id="Line_4567" data-name="Line 4567" x2="107.37" y2="29.861" transform="translate(366.002 235.611)" fill="#fff" stroke="#405391" stroke-linecap="round" stroke-linejoin="round" stroke-width="1"/>
              <line id="Line_4568" data-name="Line 4568" x2="106.256" y2="29.551" transform="translate(398.514 232.846)" fill="#fff" stroke="#405391" stroke-linecap="round" stroke-linejoin="round" stroke-width="1"/>
              <g id="Group_389" data-name="Group 389" transform="translate(80.783 53.895)">
                <g id="Group_384" data-name="Group 384" transform="translate(127.767)">
                  <path id="Path_1072" data-name="Path 1072" d="M463.109,345.843l119.935-7.2a2,2,0,0,1,2.023,1.515l11.944,47.916a2,2,0,0,1-1.77,2.479L496.488,397.8a2.018,2.018,0,0,0-1.174.512L480.18,415.8a2,2,0,0,1-3.315-1.142l-15.636-66.436A2,2,0,0,1,463.109,345.843Z" transform="translate(-461.192 -338.641)" fill="#fff" stroke="#01d866" stroke-linejoin="round" stroke-width="1"/>
                </g>
                <g id="Group_385" data-name="Group 385" transform="translate(147.811 88.011)">
                  <path id="Path_1073" data-name="Path 1073" d="M469.368,384.062l123.418-9.521,8.238,28.415-5.736.613-5.62.6L476.722,414.306Z" transform="translate(-469.368 -374.541)" fill="#fff" stroke="#01d866" stroke-linejoin="round" stroke-width="1"/>
                </g>
                <g id="Group_387" data-name="Group 387" transform="translate(0 8.074)">
                  <path id="Path_1074" data-name="Path 1074" d="M534.8,461.44,507.356,341.935l-85.99,3.558-12.29,8.036,25.993,125.3,87.441-9.351Z" transform="translate(-409.076 -341.935)" fill="#fff" stroke="#01d866" stroke-linejoin="round" stroke-width="1"/>
                  <g id="Group_386" data-name="Group 386" transform="translate(12.29)">
                    <path id="Path_1075" data-name="Path 1075" d="M414.089,345.492l85.99-3.558L527.523,461.44l-87.441,9.351Z" transform="translate(-414.089 -341.935)" fill="#fff" stroke="#01d866" stroke-linejoin="round" stroke-width="1"/>
                  </g>
                  <line id="Line_4569" data-name="Line 4569" y1="8.036" x2="12.29" transform="translate(25.993 128.857)" fill="#fff" stroke="#01d866" stroke-miterlimit="10" stroke-width="1"/>
                  <line id="Line_4570" data-name="Line 4570" y1="4.204" x2="53.945" transform="translate(41.337 50.747)" fill="#fff" stroke="#01d866" stroke-linecap="round" stroke-linejoin="round" stroke-width="1"/>
                  <line id="Line_4571" data-name="Line 4571" y1="4.204" x2="53.945" transform="translate(43.115 62.327)" fill="#fff" stroke="#01d866" stroke-linecap="round" stroke-linejoin="round" stroke-width="1"/>
                </g>
                <g id="Group_388" data-name="Group 388" transform="translate(174.141 20.816)">
                  <line id="Line_4572" data-name="Line 4572" y1="1.314" x2="18.151" fill="#fff" stroke="#01d866" stroke-linecap="round" stroke-linejoin="round" stroke-width="1"/>
                  <line id="Line_4573" data-name="Line 4573" y1="3.516" x2="67.438" transform="translate(0.577 5.784)" fill="#fff" stroke="#01d866" stroke-linecap="round" stroke-linejoin="round" stroke-width="1"/>
                  <line id="Line_4574" data-name="Line 4574" y1="3.516" x2="67.438" transform="translate(1.654 14.213)" fill="#fff" stroke="#01d866" stroke-linecap="round" stroke-linejoin="round" stroke-width="1"/>
                </g>
                <path id="Path_1076" data-name="Path 1076" d="M486.349,355.92c1.282,5.612-1.562,11.047-6.347,12.141s-9.706-2.57-10.988-8.181,1.562-11.045,6.347-12.138S485.07,350.311,486.349,355.92Z" transform="translate(-322.517 -325.712)" fill="#fff" stroke="#01d866" stroke-linejoin="round" stroke-width="1"/>
                <path id="Path_1077" data-name="Path 1077" d="M478.365,383.815a2.283,2.283,0,1,1-2.785-2.074A2.471,2.471,0,0,1,478.365,383.815Z" transform="translate(-314.989 -276.149)" fill="#01d866"/>
                <path id="Path_1078" data-name="Path 1078" d="M481.992,383.4a2.283,2.283,0,1,1-2.785-2.074A2.472,2.472,0,0,1,481.992,383.4Z" transform="translate(-309.726 -276.746)" fill="#01d866"/>
                <path id="Path_1079" data-name="Path 1079" d="M485.618,382.992a2.283,2.283,0,1,1-2.785-2.074A2.471,2.471,0,0,1,485.618,382.992Z" transform="translate(-304.463 -277.343)" fill="#01d866"/>
              </g>
            </g>
          </g>
          <path id="Path_1080" data-name="Path 1080" d="M746.843,296.76s-4.989-26.973-7.666,67.287c-2.5,88.233-3.491,180.823-3.491,180.823s-47.8,1.41-98.961,23.736l-33.116,13.761s85.97,47.62,147.165,66.627c56.35,17.5,61.638-25.512,54.921-130.062C805.694,518.931,773.644,304.2,746.843,296.76Z" transform="translate(-45.911 19.372)" fill="#fff" stroke="#01d866" stroke-linejoin="round" stroke-width="1"/>
          <path id="Path_1081" data-name="Path 1081" d="M595.511,173.763s-71.837,38.314-30.719,76.782l48.814-48.779Z" transform="translate(-120.7 -153.983)" fill="#405391"/>
          <path id="Path_1082" data-name="Path 1082" d="M613.605,262.806s16.146-.427,25.8,21.442c0,0-10.6-24.83,7.89-45.372Z" transform="translate(-31.399 -59.465)" fill="#1a1a1a"/>
          <path id="Path_1083" data-name="Path 1083" d="M600.6,184.29s-87.858,86.039-35.2,61.93c110.021-50.371,104.379,76.571,104.379,76.571s15.153-13.807,9.554.645l28.664,44.416s61.256-23.163,64.534-100.329C773.631,241.464,748,121.968,600.6,184.29Z" transform="translate(-125.786 -164.511)" fill="#1a1a1a"/>
          <path id="Path_1084" data-name="Path 1084" d="M585.181,194.583c1.652,13.177,0,65.742,23.236,69.6s-3.993-66.031-3.993-66.031Z" transform="translate(-72.659 -123.761)" fill="#1a1a1a"/>
          <g id="Group_392" data-name="Group 392" transform="translate(153.75 340.384)">
            <path id="Path_1085" data-name="Path 1085" d="M723.808,317.538c-27.816,125.059-40.694,254.25-40.694,254.25S628.159,556.192,576,547.766l-56.971-15.3c-1.841-.841-21.589-9.944-28-16.288-6.727-6.656-10.432,11.665.15,20.037a100.865,100.865,0,0,1,7.661,6.683l-13.727,2.138a12.173,12.173,0,0,0-6.323,3.011c-9.564,8.666-40.743,37.458-34.837,39.25a11.18,11.18,0,0,0,4.906.208c-10.657,8.8-11.508,17.988-8.519,18.294,4.46.461,10.1-2.734,15.717-7.281-4.93,5.7-11.044,18.313-4.212,18,9.176-.422,16.867-7.553,24.187-19.608,0,0-1.8,3.126-1.005,2.413l-5.437,8.806s11.086,9.74,19.154,14.266c7.688,4.312,12.192-11.579,1.307-18.115,0,0,3.918-3.927,7.092-12.273,0,0,30.567,14.773,46.188,3.069l10.213.981c26.7,16.72,162.291,77.664,180.867,76.279,42.187-3.148,50.206-86.1,70.606-267.42C805.012,404.914,736.279,261.465,723.808,317.538Z" transform="translate(-438.839 -304.537)" fill="#fff" stroke="#01d866" stroke-linejoin="round" stroke-width="1"/>
            <path id="Path_1086" data-name="Path 1086" d="M547.824,413.548s-13.136,6.992-15.784,26.409" transform="translate(-303.549 -146.296)" fill="none" stroke="#01d866" stroke-miterlimit="10" stroke-width="1"/>
          </g>
          <path id="Path_1087" data-name="Path 1087" d="M880.466,545.959c21.741-3.6,56.853-15.614,56.882-15.744,0,0-13.462-169.634-56.252-219.859-2.174-4.67-9.378-14.354-32.329-17.742-6.813-1.005-13.514-2.26-19.92-3.638h0c-22.454-4.83-40.741-11.542-45.965-14.857,0,0,.03.2.066.505-.12-.071-.282-.152-.39-.221a21.271,21.271,0,0,1-.581,9.833c-.149.471-.3.944-.488,1.422-.081.2-.172.409-.26.615a19.675,19.675,0,0,1-1.174,2.309h0c-7.024,11.564-53.514,16.239-100-8.326,0,0-79.849,45.283-101.121,60.989-32.66,69.574-46.686,226.692-46.686,219.4,0-1.988,66.549,32.876,109.785,34.773.233,12.327-10.581,168.079-10.581,168.079s188.038,9.6,271.356-34.717c0,0-32.837-109.368-28.973-139.893C874.3,585.275,879.541,554.868,880.466,545.959Z" transform="translate(-149.486 -8.308)" fill="#fff" stroke="#01d866" stroke-miterlimit="10" stroke-width="1"/>
          <path id="Path_1088" data-name="Path 1088" d="M624.185,178.633S532.1,157.157,537.9,180.854s29.613,44.391,29.613,44.391-27.142-.679-12.9,13.1S580.774,251.1,580.774,251.1Z" transform="translate(-141.673 -159.861)" fill="#1a1a1a"/>
          <path id="Path_1089" data-name="Path 1089" d="M591.257,270.073s9.473-2.386,26.845-17.478" transform="translate(-63.839 -39.551)" fill="none" stroke="#01d866" stroke-miterlimit="10" stroke-width="1"/>
          <path id="Path_1090" data-name="Path 1090" d="M638.9,276.591s-6.4-118.65-68.76-104.093" transform="translate(-94.497 -157.615)" fill="none" stroke="#fff" stroke-miterlimit="10" stroke-width="2"/>
          <g id="Group_394" data-name="Group 394" transform="translate(501.189 108.217)">
            <g id="Group_393" data-name="Group 393" transform="translate(0 0)">
              <ellipse id="Ellipse_55" data-name="Ellipse 55" cx="39.956" cy="38.985" rx="39.956" ry="38.985" transform="translate(0 79.747) rotate(-86.313)" fill="#01d866" stroke="#01d866" stroke-miterlimit="10" stroke-width="1"/>
              <path id="Path_1091" data-name="Path 1091" d="M639.576,245.583c-1.02,15.82-13.692,27.882-28.3,26.938s-25.632-14.531-24.612-30.348,13.692-27.882,28.3-26.938S640.6,229.765,639.576,245.583Z" transform="translate(-571.795 -202.076)" fill="#fff"/>
            </g>
          </g>
          <g id="Group_395" data-name="Group 395" transform="translate(454.378 112.56)">
            <path id="Path_1092" data-name="Path 1092" d="M562.572,225.892c.03,3.187,2.04,5.754,4.494,5.732s4.417-2.626,4.388-5.813-2.04-5.756-4.494-5.734S562.543,222.7,562.572,225.892Z" transform="translate(-559.856 -199.314)" fill="#01d866"/>
            <path id="Path_1093" data-name="Path 1093" d="M585.857,221.417c-3.582-4.913-8.664-6.641-12.7-7.955-4.484-1.459-8.9-2.893-10.787-.807a4.476,4.476,0,0,0-.223,5.08c1.353,2.074,4.393,2,7.222,2.292,11.01,1.145,17.3,7.742,18.551,6.122C588.633,225.222,586.823,222.741,585.857,221.417Z" transform="translate(-561.464 -211.608)" fill="#01d866"/>
          </g>
          <path id="Path_1094" data-name="Path 1094" d="M562.9,250.9s12.079-.5,19.951-8.561" transform="translate(-105.004 -54.435)" fill="none" stroke="#01d866" stroke-miterlimit="10" stroke-width="1"/>
          <path id="Path_1095" data-name="Path 1095" d="M544.213,167.269c.8-.1,37.1-9.98,64.568,21.052" transform="translate(-132.128 -165.695)" fill="none" stroke="#405391" stroke-miterlimit="10" stroke-width="1"/>
          <path id="Path_1096" data-name="Path 1096" d="M634.626,175.452l-2.792,28.292s7.289-14.023,21.726-4.55" transform="translate(-4.939 -151.532)" fill="none" stroke="#405391" stroke-miterlimit="10" stroke-width="1"/>
          <path id="Path_1097" data-name="Path 1097" d="M570.53,187.968s-30.762,43.472-15.065,43.384c23.7-.132,47.14-30.939,42.844-32.54S570.53,187.968,570.53,187.968Z" transform="translate(-122.272 -133.363)" fill="#1a1a1a"/>
          <path id="Path_1098" data-name="Path 1098" d="M445.86,445.694l12.056-25.541,13.054-10.339" transform="translate(-274.897 188.669)" fill="#fff" stroke="#01d866" stroke-miterlimit="10" stroke-width="1"/>
          <line id="Line_4575" data-name="Line 4575" y1="15.814" x2="13.964" transform="translate(163.764 607.537)" fill="#fff" stroke="#01d866" stroke-miterlimit="10" stroke-width="1"/>
          <path id="Path_1099" data-name="Path 1099" d="M477.379,411.1l-15.591,11.061L453.6,444.63" transform="translate(-263.665 190.54)" fill="#fff" stroke="#01d866" stroke-linejoin="round" stroke-width="1"/>
          <g id="Group_396" data-name="Group 396" transform="translate(429.454 330.999)">
            <path id="Path_1100" data-name="Path 1100" d="M551.3,302.646s99.295-24.563,97.089,101.2l-4.56,150.774s-18.534,3.824-37.816,1.564" transform="translate(-551.298 -300.709)" fill="none" stroke="#01d866" stroke-miterlimit="10" stroke-width="1"/>
          </g>
          <path id="Path_1101" data-name="Path 1101" d="M672.775,314.371s20.817,50.358,21.182,94.62c.2,23.793-17.5,78.819-17.5,78.819" transform="translate(54.493 50.123)" fill="none" stroke="#01d866" stroke-miterlimit="10" stroke-width="1"/>
          <line id="Line_4576" data-name="Line 4576" y1="2.446" x2="17.025" transform="translate(213.746 576.298)" fill="#fff" stroke="#01d866" stroke-linejoin="round" stroke-width="1"/>
        </g>
        <path id="Path_1102" data-name="Path 1102" d="M0,0H315.17" transform="translate(0 629.632)" fill="#fff" stroke="#fff" stroke-width="1"/>
      </g>
      <g id="Group_420" data-name="Group 420" transform="translate(106.594 120.048)">
        <path id="Path_1103" data-name="Path 1103" d="M541.659,265.4a4.044,4.044,0,1,1-4.043-4.043A4.043,4.043,0,0,1,541.659,265.4Z" transform="translate(-340.509 -15.18)" fill="#01d866" stroke="#fff" stroke-linejoin="round" stroke-width="1"/>
        <path id="Path_1104" data-name="Path 1104" d="M657.818,247.487a4.043,4.043,0,1,1-4.043-4.043A4.044,4.044,0,0,1,657.818,247.487Z" transform="translate(-265.465 -26.752)" fill="#01d866" stroke="#fff" stroke-linejoin="round" stroke-width="1"/>
        <path id="Path_1105" data-name="Path 1105" d="M513.394,189.25a4.043,4.043,0,1,1-4.043-4.043A4.044,4.044,0,0,1,513.394,189.25Z" transform="translate(-358.768 -64.376)" fill="#01d866" stroke="#fff" stroke-linejoin="round" stroke-width="1"/>
        <path id="Path_1106" data-name="Path 1106" d="M424.368,260.488a4.043,4.043,0,1,1-4.043-4.043A4.041,4.041,0,0,1,424.368,260.488Z" transform="translate(-416.283 -18.353)" fill="#01d866" stroke="#fff" stroke-linejoin="round" stroke-width="1"/>
        <path id="Path_1107" data-name="Path 1107" d="M504.108,246.8a9.812,9.812,0,1,0-3.366-19.188,15.632,15.632,0,0,0-30.341-.174,9.809,9.809,0,1,0-2.937,19.346Z" transform="translate(-389.058 -44.698)" fill="rgba(255,255,255,0)" stroke="#fff" stroke-linejoin="round" stroke-width="1"/>
        <path id="Path_1108" data-name="Path 1108" d="M535.561,144.3a10.24,10.24,0,1,0-3.513-20.026,16.316,16.316,0,0,0-31.668-.183,10.238,10.238,0,1,0-3.065,20.192Z" transform="translate(-370.03 -111.8)" fill="rgba(255,255,255,0)" stroke="#fff" stroke-linejoin="round" stroke-width="1"/>
        <g id="Group_405" data-name="Group 405" transform="translate(315.086 69.574)">
          <g id="Group_399" data-name="Group 399" transform="translate(15.145)">
            <line id="Line_4577" data-name="Line 4577" y2="4.645" fill="#fff" stroke="#fff" stroke-linejoin="round" stroke-width="1"/>
          </g>
          <g id="Group_400" data-name="Group 400" transform="translate(0.331 8.171)">
            <line id="Line_4578" data-name="Line 4578" x2="4.023" y2="2.322" fill="#fff" stroke="#fff" stroke-linejoin="round" stroke-width="1"/>
          </g>
          <g id="Group_401" data-name="Group 401" transform="translate(0 22.764)">
            <line id="Line_4579" data-name="Line 4579" y1="2.322" x2="4.023" fill="#fff" stroke="#fff" stroke-linejoin="round" stroke-width="1"/>
          </g>
          <g id="Group_402" data-name="Group 402" transform="translate(14.483 29.185)">
            <line id="Line_4580" data-name="Line 4580" y1="4.645" fill="#fff" stroke="#fff" stroke-linejoin="round" stroke-width="1"/>
          </g>
          <g id="Group_403" data-name="Group 403" transform="translate(25.275 23.337)">
            <line id="Line_4581" data-name="Line 4581" x1="4.023" y1="2.322" fill="#fff" stroke="#fff" stroke-linejoin="round" stroke-width="1"/>
          </g>
          <g id="Group_404" data-name="Group 404" transform="translate(25.606 8.744)">
            <line id="Line_4582" data-name="Line 4582" x1="4.023" y2="2.322" fill="#fff" stroke="#fff" stroke-linejoin="round" stroke-width="1"/>
          </g>
        </g>
        <g id="Group_412" data-name="Group 412" transform="translate(38.169 69.574)">
          <g id="Group_406" data-name="Group 406" transform="translate(15.145)">
            <line id="Line_4583" data-name="Line 4583" y2="4.645" fill="#fff" stroke="#fff" stroke-linejoin="round" stroke-width="1"/>
          </g>
          <g id="Group_407" data-name="Group 407" transform="translate(0.331 8.171)">
            <line id="Line_4584" data-name="Line 4584" x2="4.023" y2="2.322" fill="#fff" stroke="#fff" stroke-linejoin="round" stroke-width="1"/>
          </g>
          <g id="Group_408" data-name="Group 408" transform="translate(0 22.764)">
            <line id="Line_4585" data-name="Line 4585" y1="2.322" x2="4.023" fill="#fff" stroke="#fff" stroke-linejoin="round" stroke-width="1"/>
          </g>
          <g id="Group_409" data-name="Group 409" transform="translate(14.483 29.185)">
            <line id="Line_4586" data-name="Line 4586" y1="4.645" fill="#fff" stroke="#fff" stroke-linejoin="round" stroke-width="1"/>
          </g>
          <g id="Group_410" data-name="Group 410" transform="translate(25.275 23.337)">
            <line id="Line_4587" data-name="Line 4587" x1="4.023" y1="2.322" fill="#fff" stroke="#fff" stroke-linejoin="round" stroke-width="1"/>
          </g>
          <g id="Group_411" data-name="Group 411" transform="translate(25.606 8.744)">
            <line id="Line_4588" data-name="Line 4588" x1="4.023" y2="2.322" fill="#fff" stroke="#fff" stroke-linejoin="round" stroke-width="1"/>
          </g>
        </g>
        <g id="Group_419" data-name="Group 419" transform="translate(71.579 265.074)">
          <g id="Group_413" data-name="Group 413" transform="translate(15.145)">
            <line id="Line_4589" data-name="Line 4589" y2="4.645" fill="#fff" stroke="#fff" stroke-linejoin="round" stroke-width="1"/>
          </g>
          <g id="Group_414" data-name="Group 414" transform="translate(0.331 8.171)">
            <line id="Line_4590" data-name="Line 4590" x2="4.023" y2="2.322" fill="#fff" stroke="#fff" stroke-linejoin="round" stroke-width="1"/>
          </g>
          <g id="Group_415" data-name="Group 415" transform="translate(0 22.764)">
            <line id="Line_4591" data-name="Line 4591" y1="2.322" x2="4.023" fill="#fff" stroke="#fff" stroke-linejoin="round" stroke-width="1"/>
          </g>
          <g id="Group_416" data-name="Group 416" transform="translate(14.484 29.185)">
            <line id="Line_4592" data-name="Line 4592" y1="4.645" fill="#fff" stroke="#fff" stroke-linejoin="round" stroke-width="1"/>
          </g>
          <g id="Group_417" data-name="Group 417" transform="translate(25.275 23.337)">
            <line id="Line_4593" data-name="Line 4593" x1="4.023" y1="2.322" fill="#fff" stroke="#fff" stroke-linejoin="round" stroke-width="1"/>
          </g>
          <g id="Group_418" data-name="Group 418" transform="translate(25.606 8.744)">
            <line id="Line_4594" data-name="Line 4594" x1="4.023" y2="2.322" fill="#fff" stroke="#fff" stroke-linejoin="round" stroke-width="1"/>
          </g>
        </g>
      </g>
    </g>
  </g>
</svg>
