<svg xmlns="http://www.w3.org/2000/svg" width="22.325" height="15" viewBox="0 0 22.325 15">
  <path id="visible" d="M39.675,104.6a11.013,11.013,0,0,1-19.251,0,.821.821,0,0,1,0-.829,11.013,11.013,0,0,1,19.251,0A.808.808,0,0,1,39.675,104.6Zm1.242-1.521a12.435,12.435,0,0,0-21.736,0,2.227,2.227,0,0,0,0,2.213,12.434,12.434,0,0,0,21.736,0A2.227,2.227,0,0,0,40.918,103.081Zm-10.867,4.026a2.92,2.92,0,1,0-2.921-2.92A2.923,2.923,0,0,0,30.051,107.107Zm0-7.262a4.343,4.343,0,1,0,4.342,4.343A4.348,4.348,0,0,0,30.051,99.845Z" transform="translate(-18.887 -96.688)" fill="#8b8b8b" fill-rule="evenodd"/>
</svg>
