<svg xmlns="http://www.w3.org/2000/svg" width="20" height="19.991" viewBox="0 0 20 19.991">
  <g id="wallet" transform="translate(0 -0.121)">
    <path id="Path_88946" data-name="Path 88946" d="M18.828,9.7V7.338a2.151,2.151,0,0,0-2.07-2.146V3.744a1.369,1.369,0,0,0-1.367-1.367H11.627l-.486-1.351A1.367,1.367,0,0,0,9.387.2L2.556,2.69A1.367,1.367,0,0,0,1.74,4.445l.274.749A2.151,2.151,0,0,0,0,7.338V17.963a2.151,2.151,0,0,0,2.148,2.148H16.68a2.151,2.151,0,0,0,2.148-2.148V15.527A1.369,1.369,0,0,0,20,14.174V11.049A1.369,1.369,0,0,0,18.828,9.7Zm0,4.478a.2.2,0,0,1-.2.2H15.508a1.758,1.758,0,1,1,0-3.516h3.125a.2.2,0,0,1,.2.2ZM2.84,4.042a.2.2,0,0,1,.117-.251l6.83-2.486a.2.2,0,0,1,.251.117l.343.954h-.264A1.369,1.369,0,0,0,8.75,3.744V5.189H3.261Zm12.745-.3V5.189H9.922V3.744a.2.2,0,0,1,.2-.2h5.273A.2.2,0,0,1,15.586,3.744Zm1.094,15.2H2.148a.978.978,0,0,1-.977-.977V7.338a.978.978,0,0,1,.977-.977H16.68a.978.978,0,0,1,.977.977V9.682H15.508a2.93,2.93,0,1,0,0,5.859h2.148v2.422A.978.978,0,0,1,16.68,18.939Z" fill="#01d866"/>
    <circle id="Ellipse_232" data-name="Ellipse 232" cx="0.586" cy="0.586" r="0.586" transform="translate(14.922 12.025)" fill="#01d866"/>
  </g>
</svg>
