<svg xmlns="http://www.w3.org/2000/svg" xmlns:xlink="http://www.w3.org/1999/xlink" width="75.001" height="75" viewBox="0 0 75.001 75">
  <defs>
    <clipPath id="clip-path">
      <path id="Path_778" data-name="Path 778" d="M1358.44,951.771a37.5,37.5,0,1,1-37.5-37.5A37.5,37.5,0,0,1,1358.44,951.771Z" transform="translate(-1283.439 -914.27)" fill="#e13510"/>
    </clipPath>
  </defs>
  <g id="Group_206" data-name="Group 206" transform="translate(-1283.439 -914.27)">
    <g id="Group_205" data-name="Group 205" transform="translate(1283.439 914.27)">
      <path id="Path_744" data-name="Path 744" d="M1358.44,951.771a37.5,37.5,0,1,1-37.5-37.5A37.5,37.5,0,0,1,1358.44,951.771Z" transform="translate(-1283.439 -914.27)" fill="#e13510"/>
      <g id="Group_204" data-name="Group 204" transform="translate(0 0)" clip-path="url(#clip-path)">
        <g id="Group_203" data-name="Group 203" transform="translate(14.543 8.266)">
          <path id="Path_745" data-name="Path 745" d="M1470.539,1095.353s-1.3,2.718-.5,5.012c.412,1.187-.4,3.182.763,4.147s1.628,2.994,2.17,4.441-.809,12.159-.809,12.159-12.642,4.245-14.908,4.245,2.729-25.572,2.729-25.572Z" transform="translate(-1433.455 -1064.158)" fill="#261513"/>
          <path id="Path_746" data-name="Path 746" d="M1397.387,1099.051s1.3,2.718.5,5.013c-.411,1.187.406,3.182-.763,4.147s-1.627,2.994-2.169,4.442.81,12.158.81,12.158,12.64,4.246,14.908,4.246-2.731-25.571-2.731-25.571Z" transform="translate(-1385.097 -1067.05)" fill="#261513"/>
          <path id="Path_747" data-name="Path 747" d="M1395.415,1075.311c.039,1.647.617,2.948,4.38,7.726s9.371,3.571,10.354,3.571,6.4.868,9.718-2.9c1.4-1.587,4.1-5.306,4.1-7.888" transform="translate(-1385.556 -1048.483)" fill="#261513"/>
          <path id="Path_748" data-name="Path 748" d="M1445.357,1120.561l-.048,8.621-5.8,4.968-5.21-3.472-2.6-10.117a30.888,30.888,0,0,0,.719-7.9c-.338-3.162,11.935-3.375,11.4-.1S1445.357,1120.561,1445.357,1120.561Z" transform="translate(-1413.933 -1075.762)" fill="#d59666"/>
          <path id="Path_749" data-name="Path 749" d="M1427.752,989.517a63.465,63.465,0,0,1-1.425,9.468,12.868,12.868,0,0,1-1.05,3.443c-1.258,2.288-6.819,8.252-8.892,8.618-.735.129-3.746.1-4.638-.4a25.57,25.57,0,0,1-7.754-8.222,17.471,17.471,0,0,1-1.126-3.426,65.712,65.712,0,0,1-1.41-9.485c-.826-10.131,5.886-14.621,13.148-14.621S1428.569,979.383,1427.752,989.517Z" transform="translate(-1390.226 -969.951)" fill="#dfa577"/>
          <path id="Path_750" data-name="Path 750" d="M1516.368,1049.2a15.108,15.108,0,0,1-1.584,3.82,4.059,4.059,0,0,1-2.409,1.38c-.652-.062-.4-1.822-.645-2.423a9.967,9.967,0,0,1-.309-3.24c.052-2.233,1.407-3.1,2.772-2.97S1516.731,1047,1516.368,1049.2Z" transform="translate(-1476.277 -1025.368)" fill="#dfa577"/>
          <path id="Path_751" data-name="Path 751" d="M1389.936,1049.2a15.077,15.077,0,0,0,1.585,3.82,4.053,4.053,0,0,0,2.408,1.38c.652-.062.4-1.822.645-2.423a9.954,9.954,0,0,0,.31-3.24c-.052-2.233-1.408-3.1-2.773-2.97S1389.574,1047,1389.936,1049.2Z" transform="translate(-1381.219 -1025.368)" fill="#dfa577"/>
          <path id="Path_752" data-name="Path 752" d="M1406.568,1037.45a2.27,2.27,0,0,1,1.138-1.433c2.063-.93,5.979.072,6.472.3,1.319.63,1.477,1.319,1.477,1.319l-.139,1.118a6.079,6.079,0,0,0-1.653-1.184c-.515-.253-3.807-1.492-5.853-.929A3.1,3.1,0,0,0,1406.568,1037.45Z" transform="translate(-1394.278 -1017.448)" fill="#261513"/>
          <path id="Path_753" data-name="Path 753" d="M1483.094,1037.45a2.275,2.275,0,0,0-1.139-1.433c-2.063-.93-5.979.072-6.471.3-1.319.63-1.479,1.319-1.479,1.319l.142,1.118a6.047,6.047,0,0,1,1.651-1.184c.515-.253,3.808-1.492,5.854-.929A3.112,3.112,0,0,1,1483.094,1037.45Z" transform="translate(-1447.019 -1017.448)" fill="#261513"/>
          <path id="Path_754" data-name="Path 754" d="M1392.815,972.591s-.03,2.979.463,2.939.576-1.778-.226-4.745,4.275-7.936,6.869-8.611c3.331-.869,8.938-1.845,11.8.216,3.981.326,5.6,2.515,6.309,6.731s-.712,7.125,0,7.109.351-2.952,1.219-3.381a1.228,1.228,0,0,1,1.414.107s1.846-9.191-1.024-14.6c-2.142-4.038-8.468-6.151-15.054-6.151-5.55,0-11.28,5.523-12.768,8.6-2.137,4.415-1.315,13.219-.766,12.471A2.266,2.266,0,0,1,1392.815,972.591Z" transform="translate(-1381.654 -952.203)" fill="#261513"/>
          <path id="Path_755" data-name="Path 755" d="M1424.815,1182.385V1168.66l-4.59-4.75.389-8.2-7.705.624v26.053Z" transform="translate(-1399.238 -1111.36)" fill="#e1e1e1"/>
          <path id="Path_756" data-name="Path 756" d="M1427.42,1140.35l2.593,9.627,1.951-7.745-2.953-3.755Z" transform="translate(-1410.586 -1097.884)" fill="#fff"/>
          <path id="Path_757" data-name="Path 757" d="M1371.138,1174.349v-1.57l-3.923-27.347a21.469,21.469,0,0,1-5.347,3.252c-2.819,1.208-6.777,1.856-8.021,3.329-1.449,1.718-2.767,12.642-3.674,22.335Z" transform="translate(-1350.173 -1103.323)" fill="#1d191d"/>
          <path id="Path_758" data-name="Path 758" d="M1398.452,1174.348h2.32v-.949l-3.923-27.968-7.183,6.292,6.407,2.8-8.01-1.737Z" transform="translate(-1379.807 -1103.323)" fill="#272228"/>
          <path id="Path_759" data-name="Path 759" d="M1456.336,1182.385h11.907v-26.053l-7.708-.624.391,8.2-4.59,4.75Z" transform="translate(-1433.2 -1111.36)" fill="#e1e1e1"/>
          <path id="Path_760" data-name="Path 760" d="M1480.149,1140.35l-2.592,9.627-1.953-7.745,2.953-3.755Z" transform="translate(-1448.27 -1097.884)" fill="#fff"/>
          <path id="Path_761" data-name="Path 761" d="M1498.467,1174.349c-.906-9.694-2.224-20.617-3.672-22.335-1.245-1.473-5.2-2.121-8.02-3.329a21.488,21.488,0,0,1-5.348-3.252l-3.924,27.347v1.57Z" transform="translate(-1449.755 -1103.323)" fill="#1d191d"/>
          <path id="Path_762" data-name="Path 762" d="M1479.822,1174.348l10.388-21.562-8.009,1.737,6.407-2.8-7.182-6.292L1477.5,1173.4v.949Z" transform="translate(-1449.755 -1103.323)" fill="#272228"/>
          <path id="Path_763" data-name="Path 763" d="M1402.256,1078.1a.434.434,0,1,1-.433-.435A.434.434,0,0,1,1402.256,1078.1Z" transform="translate(-1390.228 -1050.323)" fill="#fff"/>
          <path id="Path_764" data-name="Path 764" d="M1516.582,1078.1a.434.434,0,1,1-.435-.435A.434.434,0,0,1,1516.582,1078.1Z" transform="translate(-1479.638 -1050.323)" fill="#fff"/>
          <g id="Group_200" data-name="Group 200" transform="translate(13.699 21.2)">
            <path id="Path_765" data-name="Path 765" d="M1414.709,1050.254a2.93,2.93,0,0,0,.852,1.467c.538.508,3.817.85,4.162.694.517-.232,1.189-1.338,1.189-1.338a3.888,3.888,0,0,0-2.578-1.589A14.4,14.4,0,0,0,1414.709,1050.254Z" transform="translate(-1414.344 -1049.488)" fill="#fff"/>
            <path id="Path_766" data-name="Path 766" d="M1417.027,1049.8a11.422,11.422,0,0,0-3.046.694c-.164.051-.211.538.063,1.006a5.218,5.218,0,0,1-1.007-1.6,2.573,2.573,0,0,0,.931.176,11.466,11.466,0,0,1,3.061-.584,3.888,3.888,0,0,1,2.578,1.589.567.567,0,0,1-.166.254A3.478,3.478,0,0,0,1417.027,1049.8Z" transform="translate(-1413.036 -1049.488)" fill="#341e13"/>
            <path id="Path_767" data-name="Path 767" d="M1424.139,1050.933a1.444,1.444,0,1,0,1.443-1.445A1.444,1.444,0,0,0,1424.139,1050.933Z" transform="translate(-1421.719 -1049.488)" fill="#341e13"/>
            <path id="Path_768" data-name="Path 768" d="M1425.088,1052.157c0,.611,1.717-1.106,1.105-1.106A1.105,1.105,0,0,0,1425.088,1052.157Z" transform="translate(-1422.462 -1050.71)" fill="#fff"/>
          </g>
          <path id="Path_769" data-name="Path 769" d="M1457.812,1064.739l-1.3-1.026,1.344-3.293Z" transform="translate(-1433.341 -1036.837)" fill="#da895d"/>
          <g id="Group_201" data-name="Group 201" transform="translate(20.823 31.564)">
            <path id="Path_770" data-name="Path 770" d="M1449.374,1100.7c-2.633,0-3.646-2.787-3.646-2.787a1.44,1.44,0,0,0,.76.013c.7-.23,1.618-.8,1.851-.866.349-.1,1.036.391,1.036.391s.6-.48.888-.391c.193.06,1.089.512,1.843.744a3.8,3.8,0,0,0,.917.11S1451.827,1100.7,1449.374,1100.7Z" transform="translate(-1445.728 -1097.044)" fill="#cc3446"/>
            <path id="Path_771" data-name="Path 771" d="M1450.619,1102.979a4.6,4.6,0,0,1-3.259-1.183,20.8,20.8,0,0,0,3.292.26,19.916,19.916,0,0,0,3.39-.3A5.5,5.5,0,0,1,1450.619,1102.979Z" transform="translate(-1447.004 -1100.729)" fill="#fff"/>
          </g>
          <path id="Path_772" data-name="Path 772" d="M1420.17,1069.978c0,1.261-1.6,2.283-3.567,2.283s-3.567-1.022-3.567-2.283,1.6-2.285,3.567-2.285S1420.17,1068.715,1420.17,1069.978Z" transform="translate(-1399.337 -1042.525)" fill="#eb6c60" opacity="0.2"/>
          <g id="Group_202" data-name="Group 202" transform="translate(28.096 21.2)">
            <path id="Path_773" data-name="Path 773" d="M1485.3,1050.254a2.93,2.93,0,0,1-.852,1.467c-.538.508-3.817.85-4.162.694-.517-.232-1.19-1.338-1.19-1.338a3.891,3.891,0,0,1,2.579-1.589A14.387,14.387,0,0,1,1485.3,1050.254Z" transform="translate(-1479.098 -1049.488)" fill="#fff"/>
            <path id="Path_774" data-name="Path 774" d="M1481.677,1049.8a11.407,11.407,0,0,1,3.045.694c.166.051.212.538-.061,1.006a5.215,5.215,0,0,0,1.005-1.6,2.564,2.564,0,0,1-.931.176,11.444,11.444,0,0,0-3.059-.584,3.891,3.891,0,0,0-2.579,1.589.582.582,0,0,0,.167.254A3.479,3.479,0,0,1,1481.677,1049.8Z" transform="translate(-1479.098 -1049.488)" fill="#341e13"/>
            <path id="Path_775" data-name="Path 775" d="M1487.775,1050.933a1.444,1.444,0,1,1-1.442-1.445A1.444,1.444,0,0,1,1487.775,1050.933Z" transform="translate(-1483.625 -1049.488)" fill="#341e13"/>
            <path id="Path_776" data-name="Path 776" d="M1492.752,1052.157c0,.611-1.716-1.106-1.106-1.106A1.106,1.106,0,0,1,1492.752,1052.157Z" transform="translate(-1488.809 -1050.71)" fill="#fff"/>
          </g>
          <path id="Path_777" data-name="Path 777" d="M1476.505,1069.978c0,1.261,1.6,2.283,3.568,2.283s3.566-1.022,3.566-2.283-1.6-2.285-3.566-2.285S1476.505,1068.715,1476.505,1069.978Z" transform="translate(-1448.975 -1042.525)" fill="#eb6c60" opacity="0.2"/>
        </g>
      </g>
    </g>
  </g>
</svg>
