<svg xmlns="http://www.w3.org/2000/svg" xmlns:xlink="http://www.w3.org/1999/xlink" width="75" height="74.999" viewBox="0 0 75 74.999">
  <defs>
    <clipPath id="clip-path">
      <path id="Path_634" data-name="Path 634" d="M2127.894,951.77a37.5,37.5,0,1,1-37.5-37.5A37.5,37.5,0,0,1,2127.894,951.77Z" transform="translate(-2052.894 -914.27)" fill="#de212b"/>
    </clipPath>
  </defs>
  <g id="Group_177" data-name="Group 177" transform="translate(-2052.894 -914.27)">
    <g id="Group_176" data-name="Group 176" transform="translate(2052.894 914.27)">
      <path id="Path_603" data-name="Path 603" d="M2127.894,951.77a37.5,37.5,0,1,1-37.5-37.5A37.5,37.5,0,0,1,2127.894,951.77Z" transform="translate(-2052.894 -914.27)" fill="#de212b"/>
      <g id="Group_175" data-name="Group 175" transform="translate(0)" clip-path="url(#clip-path)">
        <g id="Group_174" data-name="Group 174" transform="translate(10.261 9.716)">
          <g id="Group_173" data-name="Group 173">
            <path id="Path_604" data-name="Path 604" d="M2201.86,1149.5l-9.218,4.367-9.218-4.367,1.624-8.421h14.728Z" transform="translate(-2165.24 -1101.372)" fill="#d59666"/>
            <path id="Path_605" data-name="Path 605" d="M2188.591,1002.615a66.181,66.181,0,0,1-1.5,9.967c-.507.62-.428,4.96-1.757,7.092-1.089,1.751-3.817,2.849-6.344,5.462-1.523,1.574-7.252,1.147-8.27,0-1.49-1.676-5.545-3.612-6.662-5.282-1.319-1.979-1.057-4.808-1.574-6.893a67.06,67.06,0,0,1-1.571-10.346c-.87-10.664,6.194-15.389,13.838-15.389S2189.454,991.95,2188.591,1002.615Z" transform="translate(-2147.579 -981.043)" fill="#dfa577"/>
            <path id="Path_606" data-name="Path 606" d="M2281.861,1065.439a15.964,15.964,0,0,1-1.667,4.022,4.276,4.276,0,0,1-2.535,1.453c-.69-.064-.426-1.92-.681-2.552a10.545,10.545,0,0,1-.324-3.41c.055-2.35,1.48-3.259,2.921-3.126S2282.241,1063.12,2281.861,1065.439Z" transform="translate(-2238.148 -1039.376)" fill="#dfa577"/>
            <path id="Path_607" data-name="Path 607" d="M2148.784,1065.439a15.973,15.973,0,0,0,1.667,4.022,4.275,4.275,0,0,0,2.535,1.453c.688-.064.426-1.92.681-2.552a10.538,10.538,0,0,0,.324-3.41c-.055-2.35-1.48-3.259-2.921-3.126S2148.4,1063.12,2148.784,1065.439Z" transform="translate(-2138.094 -1039.376)" fill="#dfa577"/>
            <path id="Path_608" data-name="Path 608" d="M2167.943,1049.076s.669-1.709,1.346-1.924a16.476,16.476,0,0,1,4.716-.239c.922-.014,2.336-.137,2.336-.137l-.373,1.266a20.525,20.525,0,0,0-2.333-.111c-.558.012-2.266-.63-4.078-.149A5.052,5.052,0,0,0,2167.943,1049.076Z" transform="translate(-2153.133 -1027.616)" fill="#261513"/>
            <path id="Path_609" data-name="Path 609" d="M2247.542,1049.076s-.669-1.709-1.348-1.924a16.466,16.466,0,0,0-4.714-.239c-.922-.014-2.336-.137-2.336-.137l.371,1.266a20.56,20.56,0,0,1,2.333-.111c.56.012,2.268-.63,4.079-.149A5.052,5.052,0,0,1,2247.542,1049.076Z" transform="translate(-2208.818 -1027.616)" fill="#261513"/>
            <path id="Path_610" data-name="Path 610" d="M2149.289,982.3c.4,1.628,1.3,5.36,1.3,5.36s.918-.625,0-3.156-.07-4.36-.31-7.1c-.253-2.894.291-4.5,1.018-5.026,3.491-2.54,7.314-.814,9.928-.763s4.572-1.345,7.744-1.32a6.216,6.216,0,0,1,5.64,3.25,24.659,24.659,0,0,1,.392,4.821c.08,2.91.606,2.648.521,4.371s-.255,5.129-.255,5.129l1.6-6.573,1.489.384s1.209-12.475-1.077-15.37-8.913-6.474-15.846-6.474c-5.841,0-13.053,5.331-14.348,8.684-1.075,2.784-.731,6.207-.462,9.109.057.616.048,1.109.667,1.4.3.138.788.268.906-.119.07-.229-.3-.776-.382-.994a4.079,4.079,0,0,1-.276-1.217,9.17,9.17,0,0,1,.077-2.634,4.989,4.989,0,0,1,1.246-2.052,24.1,24.1,0,0,1,2.937-3.05,6.44,6.44,0,0,1,3.714-1.205c1.915-.023,3.718.484,5.642.166a18.484,18.484,0,0,1,3.252-.32c.981.01,1.965.139,2.945.1a10.868,10.868,0,0,1,4.734.543,5.87,5.87,0,0,1,3.441,3.127,8.132,8.132,0,0,1,.455,3.842,16.146,16.146,0,0,0,.141,3.813,17.144,17.144,0,0,1,.582,2.432c.257-.459,1.2.168,1.608.3a3.9,3.9,0,0,1,.476-2.927,7.107,7.107,0,0,0,.344-3.007c0-.861-.2-1.59-.2-2.438s.052-1.611.1-2.436a6.1,6.1,0,0,0-.205-2.49,7.164,7.164,0,0,0-1.38-2.54,13.348,13.348,0,0,0-1.728-1.915,8.631,8.631,0,0,0-2.439-1.294,22.853,22.853,0,0,1-2.628-1.219c-.424-.233-.879-.4-1.282-.636a1.791,1.791,0,0,0-1.309-.266,2.789,2.789,0,0,1-1.279-.191c-.41-.2-.729-.506-1.161-.674a15.689,15.689,0,0,0-2.337-.824,4.452,4.452,0,0,0-2.281.406,2.333,2.333,0,0,1-1.373-.2,3.676,3.676,0,0,0-1.589.01,3.076,3.076,0,0,0-2.222.9,5.716,5.716,0,0,1-.747.784,9.133,9.133,0,0,1-1.029.4c-1.366.665-3.272,1.4-4.267,2.568-.974,1.139-1.352,2.691-2.447,3.705a2.714,2.714,0,0,0-.954,1.994,6.128,6.128,0,0,1-.062,1.207c-.118.369-.39.641-.487,1.027a5.607,5.607,0,0,0,.244,2.386,14.55,14.55,0,0,1,.05,2.542,6.828,6.828,0,0,0,.041,1.228,10.119,10.119,0,0,1,.264,1.006,3.286,3.286,0,0,0,.152,1.117c.112.249.933,1.762.612,2.013C2147.193,982,2148.893,980.675,2149.289,982.3Z" transform="translate(-2135.782 -958.853)" fill="#261513"/>
            <path id="Path_611" data-name="Path 611" d="M2195.325,1201.534v-20.972l-11.385,3.525-10.982-3.525v20.972Z" transform="translate(-2157.055 -1132.247)" fill="#e1e1e1"/>
            <path id="Path_612" data-name="Path 612" d="M2213.666,1196.738s-3.111,1.079-3.111,2.052,1.7,3.49,1.7,3.49h3.11s1.409-2.511,1.409-3.49S2213.666,1196.738,2213.666,1196.738Z" transform="translate(-2186.459 -1144.899)" fill="#524140"/>
            <path id="Path_613" data-name="Path 613" d="M2218.371,1234.073l-1.1-11.905h-3.11l-1.171,11.905Z" transform="translate(-2188.366 -1164.786)" fill="#524140"/>
            <path id="Path_614" data-name="Path 614" d="M2238.859,1161.574l-9.876,6.5-3.864-2.074,8.459-8.576Z" transform="translate(-2197.85 -1114.154)" fill="#fff"/>
            <path id="Path_615" data-name="Path 615" d="M2161.986,1161.411l9.616,6.553,4.142-2.074-8.491-8.607Z" transform="translate(-2148.474 -1114.042)" fill="#fff"/>
            <path id="Path_616" data-name="Path 616" d="M2274.192,1186.89c-.884-8.865-2.041-17.391-3.323-18.912-2.83-3.349-14.2-6.141-14.2-6.141l-3.593,25.053Z" transform="translate(-2219.715 -1117.603)" fill="#132133"/>
            <path id="Path_617" data-name="Path 617" d="M2258.075,1186.889l6.046-12.052-4.718-2.479,3.455-2.082-5.9-8.439-3.513,25.052Z" transform="translate(-2220.003 -1117.603)" fill="#002b46"/>
            <path id="Path_618" data-name="Path 618" d="M2121.1,1186.89l-3.594-25.053s-11.369,2.791-14.195,6.141c-1.284,1.521-2.443,10.047-3.325,18.912Z" transform="translate(-2099.982 -1117.603)" fill="#132133"/>
            <path id="Path_619" data-name="Path 619" d="M2153.56,1186.889h4.629l-3.514-25.052-5.9,8.439,3.456,2.082-4.72,2.479Z" transform="translate(-2137.155 -1117.603)" fill="#002b46"/>
            <path id="Path_620" data-name="Path 620" d="M2216.749,1137.079a7.991,7.991,0,0,1,2.6,0,9.1,9.1,0,0,0,1.209.556" transform="translate(-2191.303 -1098.143)" fill="#d59666"/>
            <path id="Path_621" data-name="Path 621" d="M2167.5,1088.348s0,2.508,1.118,3.132,2.031,1.285,2.182,1.794,1.728,5.13,2.439,5.84,2.816,2.544,3.96,2.54c1.4-.006,1.271-2.032,1.271-2.032l1.27.051v4.428s-3.079.1-4.26-1.026a25.846,25.846,0,0,0-3.646-2.761c-1.341-.942-2.766-1.764-3.42-3.18-.915-1.98-.763-5.256-1.241-6.526a22.108,22.108,0,0,0-.246-3.727Z" transform="translate(-2152.339 -1058.981)" fill="#261513"/>
            <path id="Path_622" data-name="Path 622" d="M2235.708,1088.348s0,2.508-1.118,3.132-2.031,1.285-2.184,1.794-1.728,5.13-2.437,5.84-2.815,2.544-3.962,2.54c-1.4-.006-1.27-2.032-1.27-2.032l-1.269.051v4.428s3.079.1,4.26-1.026a25.905,25.905,0,0,1,3.644-2.761c1.343-.942,2.769-1.764,3.422-3.18.915-1.98.761-5.256,1.239-6.526a22.277,22.277,0,0,1,.248-3.727Z" transform="translate(-2196.557 -1058.981)" fill="#261513"/>
            <g id="Group_171" data-name="Group 171" transform="translate(31.71 22.186)">
              <path id="Path_623" data-name="Path 623" d="M2251.623,1061.415a2.9,2.9,0,0,1-.842,1.451c-.531.5-3.771.838-4.115.686-.508-.23-1.173-1.322-1.173-1.322a3.846,3.846,0,0,1,2.548-1.569A14.272,14.272,0,0,1,2251.623,1061.415Z" transform="translate(-2245.493 -1060.661)" fill="#fff"/>
              <path id="Path_624" data-name="Path 624" d="M2248.041,1060.968a12.539,12.539,0,0,1,3.14.611c.163.052.079.606-.193,1.069a2.066,2.066,0,0,0,.635-1.233,14.272,14.272,0,0,0-3.582-.754,3.846,3.846,0,0,0-2.548,1.569.561.561,0,0,0,.164.25A3.443,3.443,0,0,1,2248.041,1060.968Z" transform="translate(-2245.493 -1060.661)" fill="#341e13"/>
              <path id="Path_625" data-name="Path 625" d="M2254.065,1062.086a1.427,1.427,0,1,1-1.427-1.425A1.424,1.424,0,0,1,2254.065,1062.086Z" transform="translate(-2249.966 -1060.661)" fill="#341e13"/>
              <path id="Path_626" data-name="Path 626" d="M2258.981,1063.292c0,.605-1.7-1.093-1.093-1.093A1.094,1.094,0,0,1,2258.981,1063.292Z" transform="translate(-2255.085 -1061.864)" fill="#fff"/>
            </g>
            <g id="Group_172" data-name="Group 172" transform="translate(16.964 22.186)">
              <path id="Path_627" data-name="Path 627" d="M2177.827,1061.415a2.9,2.9,0,0,0,.842,1.451c.531.5,3.773.838,4.114.686.512-.23,1.175-1.322,1.175-1.322a3.846,3.846,0,0,0-2.546-1.569A14.27,14.27,0,0,0,2177.827,1061.415Z" transform="translate(-2177.827 -1060.661)" fill="#fff"/>
              <path id="Path_628" data-name="Path 628" d="M2181.411,1060.968a12.508,12.508,0,0,0-3.14.611c-.164.052-.08.606.191,1.069a2.067,2.067,0,0,1-.635-1.233,14.27,14.27,0,0,1,3.584-.754,3.846,3.846,0,0,1,2.546,1.569.561.561,0,0,1-.164.25A3.444,3.444,0,0,0,2181.411,1060.968Z" transform="translate(-2177.827 -1060.661)" fill="#341e13"/>
              <path id="Path_629" data-name="Path 629" d="M2187.138,1062.086a1.427,1.427,0,1,0,1.428-1.425A1.427,1.427,0,0,0,2187.138,1062.086Z" transform="translate(-2185.109 -1060.661)" fill="#341e13"/>
              <path id="Path_630" data-name="Path 630" d="M2188.079,1063.292c0,.605,1.7-1.093,1.093-1.093A1.094,1.094,0,0,0,2188.079,1063.292Z" transform="translate(-2185.845 -1061.864)" fill="#fff"/>
            </g>
            <path id="Path_631" data-name="Path 631" d="M2218.774,1079.3l-1.28-1.014,1.28-2.987Z" transform="translate(-2191.886 -1049.923)" fill="#da895d"/>
            <path id="Path_632" data-name="Path 632" d="M2205.316,1117.123l-.48-.465,8.612-.464-1.546.93Z" transform="translate(-2181.986 -1081.906)" fill="#da895d"/>
          </g>
          <path id="Path_633" data-name="Path 633" d="M2205.421,1100.739c-.961-.686-3.96-1.217-4.761-1.633a2.3,2.3,0,0,1-.84-.591s.027.552-.74.591-.738-.591-.738-.591a6.886,6.886,0,0,1-.988.591c-.8.416-3.8.947-4.762,1.633a2.291,2.291,0,0,0-.781,1.947l.3.694s0-1.555,1.081-1.955a17.748,17.748,0,0,1,4.634-.931,1.572,1.572,0,0,1,1.177.762,1.843,1.843,0,0,1,1.26-.762,17.056,17.056,0,0,1,4.548.931,2.181,2.181,0,0,1,1.189,1.8l.317-.459A2.694,2.694,0,0,0,2205.421,1100.739Z" transform="translate(-2171.795 -1068.08)" fill="#261513"/>
        </g>
      </g>
    </g>
  </g>
</svg>
