<svg xmlns="http://www.w3.org/2000/svg" xmlns:xlink="http://www.w3.org/1999/xlink" width="75" height="75.001" viewBox="0 0 75 75.001">
  <defs>
    <clipPath id="clip-path">
      <path id="Path_833" data-name="Path 833" d="M1283.779,1348.963a37.5,37.5,0,1,1,37.5,37.5A37.5,37.5,0,0,1,1283.779,1348.963Z" transform="translate(-1283.779 -1311.463)" fill="#91b508"/>
    </clipPath>
  </defs>
  <g id="Group_216" data-name="Group 216" transform="translate(-1283.779 -1311.463)">
    <g id="Group_215" data-name="Group 215" transform="translate(1283.779 1311.463)">
      <path id="Path_779" data-name="Path 779" d="M1283.779,1348.963a37.5,37.5,0,1,1,37.5,37.5A37.5,37.5,0,0,1,1283.779,1348.963Z" transform="translate(-1283.779 -1311.463)" fill="#91b508"/>
      <g id="Group_214" data-name="Group 214" transform="translate(0 0)" clip-path="url(#clip-path)">
        <g id="Group_213" data-name="Group 213" transform="translate(12.048 7.568)">
          <g id="Group_211" data-name="Group 211">
            <path id="Path_780" data-name="Path 780" d="M1402.089,1381.124c-4.881,8.744-18.9,13.333-21.008,13.333-2.343,0-6.227-8.115-7.07-13.065-1.039-6.082-1.945-7.823-2.648-12.283-.4-2.562-1.712-12.9.084-15.624,2.821-4.285,8.1-7.294,16.914-7.294,3.336,0,8.028-.112,8.588,2.107a8.1,8.1,0,0,1,7.9,4.184,19.16,19.16,0,0,1,1.81,10.912c-.549,5.143-1.091,8.044-3.525,15.366a13.723,13.723,0,0,1-1.048,2.363" transform="translate(-1363.668 -1346.192)" fill="#562c0c"/>
            <path id="Path_781" data-name="Path 781" d="M1371.3,1584.921h18.236V1557c-.917-.016-1.552,0-1.718,0a41.58,41.58,0,0,0-9.589.877,31.018,31.018,0,0,0-8.142,3.373s2.088,4.367,3.267,12.991C1373.9,1578.2,1371.375,1582.782,1371.3,1584.921Z" transform="translate(-1363.331 -1511.057)" fill="#f9ab78"/>
            <path id="Path_782" data-name="Path 782" d="M1472.58,1584.921c.011-2.129-2.7-7.064-2.354-10.673.819-8.543,3.69-12.991,3.69-12.991a31.037,31.037,0,0,0-8.141-3.373,41.594,41.594,0,0,0-9.589-.877c-.166-.005-.8-.021-1.719,0v27.918Z" transform="translate(-1429.318 -1511.057)" fill="#f9ab78"/>
            <path id="Path_783" data-name="Path 783" d="M1375.944,1452.483s.518-3.949-3.166-3.009c-2.834.727.135,8.074,2.01,8.712,1.6.547,1.944-.589,1.944-.589Z" transform="translate(-1364.516 -1426.853)" fill="#f9ab78"/>
            <path id="Path_784" data-name="Path 784" d="M1514.406,1452.508s-.574-3.957,3.122-2.966c2.846.762-.02,8.071-1.887,8.686-1.6.526-1.951-.616-1.951-.616Z" transform="translate(-1475.635 -1426.895)" fill="#f9ab78"/>
            <path id="Path_785" data-name="Path 785" d="M1429.858,1536.4s7.6-7.073,7.144-7.413c-2.646-1.979-2.488-7.534-2.488-7.534l-9.577-.682s.6,7.978-2.232,8.966C1422.5,1529.812,1429.858,1536.4,1429.858,1536.4Z" transform="translate(-1404.474 -1482.728)" fill="#f9ab78"/>
            <path id="Path_786" data-name="Path 786" d="M1431.078,1527.025a3.981,3.981,0,0,1,1.945,1.14c2.554,2.593,6.295,1.394,8.683-.892a4.284,4.284,0,0,1,.344-.3,14.762,14.762,0,0,1-.984-5.522l-9.577-.682A23.442,23.442,0,0,1,1431.078,1527.025Z" transform="translate(-1411.026 -1482.728)" fill="#e2d3cd" style="mix-blend-mode: multiply;isolation: isolate"/>
            <path id="Path_787" data-name="Path 787" d="M1415.287,1378.477c-.587,4.671-1.021,7.159-3.294,10.67a20.751,20.751,0,0,1-10.487,7.813s-7.148-1.717-11.039-7.813c-2.206-3.452-2.573-6.432-3.17-10.67-.719-5.094-.774-3.3-.774-8.1,0-9.787,3.536-16.855,13.814-16.855s15.529,6.15,15.685,16.2C1416.107,1375.221,1415.93,1373.355,1415.287,1378.477Z" transform="translate(-1376.18 -1351.922)" fill="#f9ab78"/>
            <path id="Path_788" data-name="Path 788" d="M1391.2,1368.839c1.943-.059,7.091-1.648,8.525-3.317,1.27-1.481,3.388-4.477,5.487-4.477.252,7.4,4.666,6.04,5.433,9.95.207,1.049.768,4,1.052,5.083.541-.551.747-4.011.754-4.067.688-5.119,1.07.811.979-4.694-.168-10.047-5.456-16.865-16.438-16.865s-15.06,7.737-15.06,17.524c0,4.582,1.1,3.827,1.774,8.1C1384.644,1374.094,1389.137,1368.9,1391.2,1368.839Z" transform="translate(-1372.59 -1349.523)" fill="#e2d3cd" style="mix-blend-mode: multiply;isolation: isolate"/>
            <path id="Path_789" data-name="Path 789" d="M1402.153,1360.026c5.577.074,2.767,7.276,4.857,7.92,3.245,1.56,2.77,8.3,2.794,8.131.687-5.122,2.388-3.121,2.3-8.626-.167-10.045-6.078-17-17.061-17s-15.6,7.733-15.6,17.52c0,4.806,1.945,6.261,2.263,8.107C1383.978,1363.791,1393.478,1372.328,1402.153,1360.026Z" transform="translate(-1370.638 -1349.523)" fill="#562c0c"/>
            <path id="Path_790" data-name="Path 790" d="M1346.656,1599.9c1.483-6.139,3.032-12.084,3.032-12.084s1.428-12.841-3.86-11.58c-3.646.871-5.656,14.207-6.761,23.664Z" transform="translate(-1339.066 -1526.038)" fill="#f9ab78"/>
            <path id="Path_791" data-name="Path 791" d="M1527.473,1599.9h7.589c-1.105-9.458-3.115-22.793-6.761-23.664-5.289-1.261-3.86,11.58-3.86,11.58S1525.989,1593.763,1527.473,1599.9Z" transform="translate(-1483.905 -1526.038)" fill="#f9ab78"/>
            <path id="Path_792" data-name="Path 792" d="M1400.1,1442.316a6.9,6.9,0,0,1,2.346-.937,10.728,10.728,0,0,1,4.7.337c.184,0,.449-.05.449-.55s-.218-.491-.4-.491a12.172,12.172,0,0,0-4.8.082A4.774,4.774,0,0,0,1400.1,1442.316Z" transform="translate(-1386.796 -1419.917)" fill="#562c0c"/>
            <g id="Group_207" data-name="Group 207" transform="translate(14.024 23.767)">
              <path id="Path_793" data-name="Path 793" d="M1405.145,1456.04a3.014,3.014,0,0,0,.879,1.512c.555.524,3.936.877,4.292.717.533-.24,1.227-1.381,1.227-1.381s-1.189-1.637-2.659-1.637A14.856,14.856,0,0,0,1405.145,1456.04Z" transform="translate(-1404.769 -1455.251)" fill="#fff"/>
              <path id="Path_794" data-name="Path 794" d="M1407.533,1455.573a11.8,11.8,0,0,0-3.142.715c-.17.053-.218.556.064,1.036a5.381,5.381,0,0,1-1.038-1.653,2.64,2.64,0,0,0,.959.181,11.824,11.824,0,0,1,3.156-.6c1.469,0,2.659,1.637,2.659,1.637a.591.591,0,0,1-.17.263A3.588,3.588,0,0,0,1407.533,1455.573Z" transform="translate(-1403.418 -1455.251)" fill="#341e13"/>
              <path id="Path_795" data-name="Path 795" d="M1414.869,1456.74a1.489,1.489,0,1,0,1.488-1.489A1.49,1.49,0,0,0,1414.869,1456.74Z" transform="translate(-1412.374 -1455.251)" fill="#341e13"/>
              <path id="Path_796" data-name="Path 796" d="M1415.847,1458.005c0,.631,1.771-1.138,1.139-1.138A1.138,1.138,0,0,0,1415.847,1458.005Z" transform="translate(-1413.138 -1456.515)" fill="#fff"/>
            </g>
            <path id="Path_797" data-name="Path 797" d="M1449.6,1470.974l-1.337-1.058,1.386-3.4Z" transform="translate(-1424.468 -1440.296)" fill="#da895d"/>
            <g id="Group_208" data-name="Group 208" transform="translate(21.371 34.455)">
              <path id="Path_798" data-name="Path 798" d="M1440.894,1508.064c-2.717,0-3.761-2.874-3.761-2.874a1.484,1.484,0,0,0,.784.016c.719-.237,1.669-.827,1.911-.894.36-.1,1.068.4,1.068.4s.619-.494.915-.4c.2.061,1.123.527,1.9.766a3.848,3.848,0,0,0,.947.112S1443.424,1508.064,1440.894,1508.064Z" transform="translate(-1437.133 -1504.298)" fill="#cc3446"/>
              <path id="Path_799" data-name="Path 799" d="M1442.176,1510.417a4.751,4.751,0,0,1-3.362-1.221,21.478,21.478,0,0,0,3.4.269,20.562,20.562,0,0,0,3.495-.31A5.675,5.675,0,0,1,1442.176,1510.417Z" transform="translate(-1438.448 -1508.097)" fill="#fff"/>
            </g>
            <path id="Path_800" data-name="Path 800" d="M1410.775,1476.377c0,1.3-1.646,2.356-3.679,2.356s-3.679-1.054-3.679-2.356,1.647-2.356,3.679-2.356S1410.775,1475.076,1410.775,1476.377Z" transform="translate(-1389.394 -1446.164)" fill="#eb6c60" opacity="0.2"/>
            <path id="Path_801" data-name="Path 801" d="M1479.054,1442.316a6.9,6.9,0,0,0-2.346-.937,10.74,10.74,0,0,0-4.7.337c-.182,0-.448-.05-.448-.55s.218-.491.4-.491a12.172,12.172,0,0,1,4.8.082A4.774,4.774,0,0,1,1479.054,1442.316Z" transform="translate(-1442.682 -1419.917)" fill="#562c0c"/>
            <g id="Group_209" data-name="Group 209" transform="translate(28.873 23.767)">
              <path id="Path_802" data-name="Path 802" d="M1477.954,1456.04a3.015,3.015,0,0,1-.879,1.512c-.555.524-3.935.877-4.294.717-.531-.24-1.226-1.381-1.226-1.381s1.19-1.637,2.66-1.637A14.859,14.859,0,0,1,1477.954,1456.04Z" transform="translate(-1471.555 -1455.251)" fill="#fff"/>
              <path id="Path_803" data-name="Path 803" d="M1474.215,1455.573a11.8,11.8,0,0,1,3.142.715c.169.053.217.556-.065,1.036a5.368,5.368,0,0,0,1.039-1.653,2.639,2.639,0,0,1-.959.181,11.809,11.809,0,0,0-3.156-.6c-1.469,0-2.66,1.637-2.66,1.637a.6.6,0,0,0,.172.263A3.588,3.588,0,0,1,1474.215,1455.573Z" transform="translate(-1471.555 -1455.251)" fill="#341e13"/>
              <path id="Path_804" data-name="Path 804" d="M1480.5,1456.74a1.49,1.49,0,1,1-1.489-1.489A1.491,1.491,0,0,1,1480.5,1456.74Z" transform="translate(-1476.223 -1455.251)" fill="#341e13"/>
              <path id="Path_805" data-name="Path 805" d="M1485.634,1458.005c0,.631-1.771-1.138-1.142-1.138A1.139,1.139,0,0,1,1485.634,1458.005Z" transform="translate(-1481.567 -1456.515)" fill="#fff"/>
            </g>
            <path id="Path_806" data-name="Path 806" d="M1468.875,1476.377c0,1.3,1.65,2.356,3.68,2.356s3.679-1.054,3.679-2.356-1.647-2.356-3.679-2.356S1468.875,1475.076,1468.875,1476.377Z" transform="translate(-1440.587 -1446.164)" fill="#eb6c60" opacity="0.2"/>
            <path id="Path_807" data-name="Path 807" d="M1442.513,1403.67c1.41-.3,2.673-2.152,3.637-3.043a13.355,13.355,0,0,0,3.564-4.974" transform="translate(-1419.969 -1384.874)" fill="none" stroke="#562c0c" stroke-width="4.088"/>
            <path id="Path_808" data-name="Path 808" d="M1424.806,1406.423c3.488-.594,6.383-5.568,7.867-8.389" transform="translate(-1406.121 -1386.736)" fill="none" stroke="#562c0c" stroke-width="4.088"/>
            <path id="Path_809" data-name="Path 809" d="M1535.915,1405.545c-2.079-.669-2.45-3.34-2.45-5.122" transform="translate(-1491.101 -1388.605)" fill="none" stroke="#562c0c" stroke-width="4.088"/>
            <path id="Path_810" data-name="Path 810" d="M1534.982,1392.167c-1.856,1.114-3.415-2.747-3.563-4.009" transform="translate(-1489.501 -1379.013)" fill="none" stroke="#562c0c" stroke-width="4.088"/>
            <path id="Path_811" data-name="Path 811" d="M1365.191,1407.964c1.931-.817,1.114-5.569,1.633-7.2" transform="translate(-1359.498 -1388.871)" fill="none" stroke="#562c0c" stroke-width="4.088"/>
            <path id="Path_812" data-name="Path 812" d="M1364.508,1400.077c1.632-1.186,1.708-4.082,1.855-5.791" transform="translate(-1358.964 -1383.805)" fill="none" stroke="#562c0c" stroke-width="4.088"/>
            <path id="Path_813" data-name="Path 813" d="M1502.922,1416.766c.372-1.04-1.038-2.6-1.261-3.711a7.142,7.142,0,0,1,.595-4.454" transform="translate(-1466.126 -1395)" fill="none" stroke="#562c0c" stroke-width="4.088"/>
            <path id="Path_814" data-name="Path 814" d="M1514.2,1442.794c1.039-1.337.446-3.639.964-5.271.521-1.857.521-4.008-1.113-5.419" transform="translate(-1475.916 -1413.382)" fill="none" stroke="#562c0c" stroke-width="4.088"/>
            <path id="Path_815" data-name="Path 815" d="M1391.1,1444.258c-.073-1.262-1.187-2.673-.891-4.307a18.8,18.8,0,0,0,.521-2.82c0-1.337-.594-2.747-.148-4.008" transform="translate(-1379.028 -1414.179)" fill="none" stroke="#562c0c" stroke-width="4.088"/>
            <g id="Group_210" data-name="Group 210" transform="translate(0.917 46.828)">
              <path id="Path_816" data-name="Path 816" d="M1350.582,1597.3a51.271,51.271,0,0,0,2.4-9.481s1.428-12.841-3.86-11.58c-2.8.671-5.3,9.221-5.843,16.7C1343.167,1594.421,1350.582,1597.3,1350.582,1597.3Z" transform="translate(-1343.275 -1572.866)" fill="#1d8d9c"/>
              <path id="Path_817" data-name="Path 817" d="M1526.838,1597.3s7.417-2.372,7.417-3.6c0-8.463-3.061-16.768-5.955-17.461-5.289-1.261-3.86,11.58-3.86,11.58A55.409,55.409,0,0,0,1526.838,1597.3Z" transform="translate(-1484.822 -1572.866)" fill="#1d8d9c"/>
              <path id="Path_818" data-name="Path 818" d="M1371.3,1588.112h35.288c.011-2.129-2.7-7.064-2.354-10.673.819-8.543,3.69-12.991,3.69-12.991a31.037,31.037,0,0,0-8.141-3.373c-.25,5.133-1.818,14.272-10.777,14.272s-10.406-9.028-10.776-14.272a31.018,31.018,0,0,0-8.142,3.373s2.088,4.367,3.267,12.991C1373.9,1581.388,1371.375,1585.972,1371.3,1588.112Z" transform="translate(-1364.248 -1561.075)" fill="#1d8d9c"/>
              <path id="Path_819" data-name="Path 819" d="M1371.3,1588.112h11.419v-18.49c-1.69-1.608-4.232-4.9-4.489-8.546a31.018,31.018,0,0,0-8.142,3.373s2.088,4.367,3.267,12.991C1373.9,1581.388,1371.375,1585.972,1371.3,1588.112Z" transform="translate(-1364.248 -1561.075)" fill="#272228"/>
              <path id="Path_820" data-name="Path 820" d="M1498.279,1588.112c.011-2.129-2.7-7.064-2.354-10.673.819-8.543,3.69-12.991,3.69-12.991a31.037,31.037,0,0,0-8.141-3.373,11.113,11.113,0,0,1-4.147,8.23v18.806Z" transform="translate(-1455.934 -1561.075)" fill="#272228"/>
            </g>
          </g>
          <g id="Group_212" data-name="Group 212" transform="translate(5.746 39.158)">
            <path id="Path_821" data-name="Path 821" d="M1376.5,1601.9c-.592,1.232-3.165,2.1-5.616.926s-4.086-4.084-3.495-5.317,3.185-.322,5.637.854S1377.088,1600.668,1376.5,1601.9Z" transform="translate(-1366.866 -1581.44)" fill="#562c0c"/>
            <path id="Path_822" data-name="Path 822" d="M1377.44,1587.506c-.591,1.232-3.286,2.142-5.737.965s-3.844-3.92-3.251-5.151,2.942-.488,5.394.688S1378.032,1586.273,1377.44,1587.506Z" transform="translate(-1367.688 -1570.305)" fill="#562c0c"/>
            <path id="Path_823" data-name="Path 823" d="M1380.707,1572.427c-.59,1.233-3.181,1.822-5.631.645s-3.548-3.613-2.957-4.846,2.648-.792,5.1.383S1381.3,1571.2,1380.707,1572.427Z" transform="translate(-1370.539 -1558.421)" fill="#562c0c"/>
            <path id="Path_824" data-name="Path 824" d="M1384.563,1558.908c-.592,1.233-3.318,2-5.768.824s-3.366-4.36-2.774-5.593,2.465-.045,4.916,1.13S1385.156,1557.676,1384.563,1558.908Z" transform="translate(-1373.577 -1547.572)" fill="#562c0c"/>
            <path id="Path_825" data-name="Path 825" d="M1389.857,1544.458c-.59,1.232-3.759,2.425-6.209,1.25s-3.366-4.361-2.775-5.594,2.466-.046,4.916,1.13S1390.449,1543.226,1389.857,1544.458Z" transform="translate(-1377.373 -1536.604)" fill="#562c0c"/>
            <path id="Path_826" data-name="Path 826" d="M1395.6,1531.514c-.592,1.233-3.057,1.277-5.508.1s-2.7-2.552-2.508-3.9c.431-2.946,2.2-1.732,4.648-.557S1396.191,1530.283,1395.6,1531.514Z" transform="translate(-1382.716 -1525.877)" fill="#562c0c"/>
            <path id="Path_827" data-name="Path 827" d="M1374.944,1615.942c-.591,1.233-3.144,2.214-5.594,1.037s-3.733-4.083-3.142-5.314,2.832-.324,5.283.852S1375.536,1614.71,1374.944,1615.942Z" transform="translate(-1365.928 -1592.509)" fill="#562c0c"/>
            <path id="Path_828" data-name="Path 828" d="M1373.815,1632.95c-.567,1.181-3.32,2.488-5.451,1.466s-3.359-3.785-2.792-4.967,2.716-.331,4.844.691S1374.382,1631.769,1373.815,1632.95Z" transform="translate(-1365.433 -1606.43)" fill="#562c0c"/>
            <path id="Path_829" data-name="Path 829" d="M1371.228,1654.773a6.048,6.048,0,0,0-1.822-3.409c-2.41-2.127-4.424-2.481-3.857-3.663s4.326-1.958,5.753-.076C1373.4,1650.393,1371.228,1654.773,1371.228,1654.773Z" transform="translate(-1365.448 -1620.209)" fill="#562c0c"/>
            <path id="Path_830" data-name="Path 830" d="M1387.138,1679.059c-.458-.906-1.125-1.595-1.688-1.681-.759-.115-.989.537-1.317,1.681Z" transform="translate(-1380.058 -1644.352)" fill="#562c0c"/>
            <path id="Path_831" data-name="Path 831" d="M1391.161,1672.272a1.42,1.42,0,1,0,1.421-1.418A1.421,1.421,0,0,0,1391.161,1672.272Z" transform="translate(-1385.554 -1639.26)" fill="#a22a4d"/>
            <path id="Path_832" data-name="Path 832" d="M1381.261,1672.272a1.42,1.42,0,1,0,1.419-1.418A1.42,1.42,0,0,0,1381.261,1672.272Z" transform="translate(-1377.812 -1639.26)" fill="#a22a4d"/>
          </g>
        </g>
      </g>
    </g>
  </g>
</svg>
