<svg xmlns="http://www.w3.org/2000/svg" xmlns:xlink="http://www.w3.org/1999/xlink" width="75" height="75.001" viewBox="0 0 75 75.001">
  <defs>
    <clipPath id="clip-path">
      <path id="Path_701" data-name="Path 701" d="M1668.171,1348.591a37.5,37.5,0,1,1,37.5,37.5A37.5,37.5,0,0,1,1668.171,1348.591Z" transform="translate(-1668.171 -1311.091)" fill="#f68800"/>
    </clipPath>
  </defs>
  <g id="Group_192" data-name="Group 192" transform="translate(-1668.171 -1311.091)">
    <g id="Group_191" data-name="Group 191" transform="translate(1668.171 1311.091)">
      <path id="Path_673" data-name="Path 673" d="M1668.171,1348.591a37.5,37.5,0,1,1,37.5,37.5A37.5,37.5,0,0,1,1668.171,1348.591Z" transform="translate(-1668.171 -1311.091)" fill="#f68800"/>
      <g id="Group_190" data-name="Group 190" transform="translate(0)" clip-path="url(#clip-path)">
        <g id="Group_189" data-name="Group 189" transform="translate(10.014 8.411)">
          <path id="Path_674" data-name="Path 674" d="M1816.927,1537.544l-9.3,4.407-9.3-4.407,1.639-8.5h14.862Z" transform="translate(-1779.974 -1489.959)" fill="#d59666"/>
          <path id="Path_675" data-name="Path 675" d="M1803.526,1389.321c-.446,5.511-1.505,11.979-3.49,15.592-1.335,2.432-6.786,7.93-10.476,7.93s-8.88-5.3-10.545-8.085-2.883-8.827-3.422-15.437c-.876-10.762,6.253-15.53,13.967-15.53S1804.4,1378.557,1803.526,1389.321Z" transform="translate(-1762.14 -1368.538)" fill="#dfa577"/>
          <path id="Path_676" data-name="Path 676" d="M1897.652,1452.716a16.051,16.051,0,0,1-1.683,4.058,4.316,4.316,0,0,1-2.559,1.466c-.7-.064-.43-1.936-.687-2.575a10.6,10.6,0,0,1-.328-3.442c.055-2.371,1.5-3.289,2.946-3.154S1898.036,1450.374,1897.652,1452.716Z" transform="translate(-1853.541 -1427.401)" fill="#dfa577"/>
          <path id="Path_677" data-name="Path 677" d="M1763.361,1452.716a16.051,16.051,0,0,0,1.683,4.058,4.316,4.316,0,0,0,2.557,1.466c.7-.064.432-1.936.687-2.575a10.557,10.557,0,0,0,.328-3.442c-.055-2.371-1.494-3.289-2.946-3.154S1762.976,1450.374,1763.361,1452.716Z" transform="translate(-1752.575 -1427.401)" fill="#dfa577"/>
          <path id="Path_678" data-name="Path 678" d="M1781.141,1433.686s1.022-1.517,1.641-1.723a34.875,34.875,0,0,1,4.481-1.257,7.69,7.69,0,0,1,2.229.581l-.5,1.059a4.779,4.779,0,0,0-2.056-.624,19.872,19.872,0,0,0-3.914.669A8.378,8.378,0,0,0,1781.141,1433.686Z" transform="translate(-1766.536 -1413.049)" fill="#261513"/>
          <path id="Path_679" data-name="Path 679" d="M1868.719,1433.453s-.977-1.548-1.591-1.77a34.629,34.629,0,0,0-4.44-1.39,7.76,7.76,0,0,0-2.247.516l.464,1.073a4.784,4.784,0,0,1,2.074-.562,19.625,19.625,0,0,1,3.892.783A8.345,8.345,0,0,1,1868.719,1433.453Z" transform="translate(-1828.555 -1412.726)" fill="#261513"/>
          <path id="Path_680" data-name="Path 680" d="M1766,1371.343l1.357,5.173,1.075-.308s-2.507-8.995-1.214-11.454,2.443-3.537,3.9-3.691,4.766,1.23,7.61,1.077,6.535-2.382,7.919-2.382,4.689,2.228,5.15,3.765.462,10.944.462,10.944l.521.743,1.293-3.866,1.5.388s1.22-12.589-1.088-15.51-8.994-6.534-15.989-6.534c-5.895,0-13.173,5.381-14.48,8.764-1.578,4.086.105,13.614.105,13.614Z" transform="translate(-1752.621 -1349.686)" fill="#261513"/>
          <path id="Path_681" data-name="Path 681" d="M1810.331,1590.048v-21.163l-11.49,3.558-11.08-3.558v21.163Z" transform="translate(-1771.713 -1521.116)" fill="#e1e1e1"/>
          <path id="Path_682" data-name="Path 682" d="M1828.839,1585.212s-3.138,1.088-3.138,2.07,1.717,3.521,1.717,3.521h3.138s1.423-2.533,1.423-3.521S1828.839,1585.212,1828.839,1585.212Z" transform="translate(-1801.385 -1533.885)" fill="#00a8c5"/>
          <path id="Path_683" data-name="Path 683" d="M1833.59,1622.885l-1.107-12.014h-3.138l-1.18,12.014Z" transform="translate(-1803.311 -1553.953)" fill="#00a8c5"/>
          <path id="Path_684" data-name="Path 684" d="M1854.257,1549.727l-9.968,6.56-3.9-2.092,8.538-8.654Z" transform="translate(-1812.871 -1502.86)" fill="#fff"/>
          <path id="Path_685" data-name="Path 685" d="M1776.682,1549.56l9.7,6.612,4.179-2.092-8.568-8.686Z" transform="translate(-1763.049 -1502.744)" fill="#fff"/>
          <path id="Path_686" data-name="Path 686" d="M1889.914,1575.273c-.89-8.946-2.059-17.549-3.354-19.084-2.853-3.381-14.325-6.2-14.325-6.2l-3.627,25.281Z" transform="translate(-1834.942 -1506.34)" fill="#1d191d"/>
          <path id="Path_687" data-name="Path 687" d="M1873.648,1575.273l6.1-12.161-4.763-2.5,3.488-2.1-5.952-8.515-3.547,25.281Z" transform="translate(-1835.23 -1506.341)" fill="#272228"/>
          <path id="Path_688" data-name="Path 688" d="M1735.428,1575.273l-3.627-25.281s-11.472,2.816-14.325,6.2c-1.294,1.535-2.464,10.139-3.354,19.084Z" transform="translate(-1714.122 -1506.34)" fill="#1d191d"/>
          <path id="Path_689" data-name="Path 689" d="M1768.18,1575.273h4.672l-3.547-25.281-5.952,8.515,3.486,2.1-4.763,2.5Z" transform="translate(-1751.626 -1506.341)" fill="#272228"/>
          <path id="Path_690" data-name="Path 690" d="M1832.181,1515.921a8.036,8.036,0,0,1,2.625,0,9.24,9.24,0,0,0,1.22.562" transform="translate(-1806.453 -1479.596)" fill="#d59666"/>
          <g id="Group_187" data-name="Group 187" transform="translate(31.678 21.232)">
            <path id="Path_691" data-name="Path 691" d="M1865.672,1447.877a2.917,2.917,0,0,1-.849,1.464c-.536.506-3.8.845-4.153.691-.513-.231-1.186-1.334-1.186-1.334a3.883,3.883,0,0,1,2.573-1.583A14.382,14.382,0,0,1,1865.672,1447.877Z" transform="translate(-1859.485 -1447.115)" fill="#fff"/>
            <path id="Path_692" data-name="Path 692" d="M1862.058,1447.426a12.664,12.664,0,0,1,3.168.616c.162.053.079.612-.194,1.078a2.077,2.077,0,0,0,.64-1.243,14.382,14.382,0,0,0-3.614-.762,3.883,3.883,0,0,0-2.573,1.583.585.585,0,0,0,.168.254A3.473,3.473,0,0,1,1862.058,1447.426Z" transform="translate(-1859.485 -1447.115)" fill="#341e13"/>
            <path id="Path_693" data-name="Path 693" d="M1868.142,1448.555a1.44,1.44,0,1,1-1.439-1.44A1.439,1.439,0,0,1,1868.142,1448.555Z" transform="translate(-1864.003 -1447.115)" fill="#341e13"/>
            <path id="Path_694" data-name="Path 694" d="M1873.105,1449.775c0,.611-1.712-1.1-1.1-1.1A1.1,1.1,0,0,1,1873.105,1449.775Z" transform="translate(-1869.172 -1448.334)" fill="#fff"/>
          </g>
          <g id="Group_188" data-name="Group 188" transform="translate(16.8 21.232)">
            <path id="Path_695" data-name="Path 695" d="M1791.213,1447.877a2.916,2.916,0,0,0,.849,1.464c.537.506,3.805.845,4.151.691.516-.231,1.186-1.334,1.186-1.334a3.882,3.882,0,0,0-2.571-1.583A14.383,14.383,0,0,0,1791.213,1447.877Z" transform="translate(-1791.213 -1447.115)" fill="#fff"/>
            <path id="Path_696" data-name="Path 696" d="M1794.827,1447.426a12.667,12.667,0,0,0-3.169.616c-.164.053-.078.612.194,1.078a2.076,2.076,0,0,1-.64-1.243,14.383,14.383,0,0,1,3.614-.762,3.882,3.882,0,0,1,2.571,1.583.57.57,0,0,1-.166.254A3.469,3.469,0,0,0,1794.827,1447.426Z" transform="translate(-1791.213 -1447.115)" fill="#341e13"/>
            <path id="Path_697" data-name="Path 697" d="M1800.606,1448.555a1.441,1.441,0,1,0,1.441-1.44A1.44,1.44,0,0,0,1800.606,1448.555Z" transform="translate(-1798.559 -1447.115)" fill="#341e13"/>
            <path id="Path_698" data-name="Path 698" d="M1801.556,1449.775c0,.611,1.712-1.1,1.1-1.1A1.1,1.1,0,0,0,1801.556,1449.775Z" transform="translate(-1799.302 -1448.334)" fill="#fff"/>
          </g>
          <path id="Path_699" data-name="Path 699" d="M1835.495,1469.046l-1.293-1.023,1.293-3.013Z" transform="translate(-1808.034 -1439.877)" fill="#da895d"/>
          <path id="Path_700" data-name="Path 700" d="M1821.545,1505.938l-.483-.47,8.693-.469-1.56.939Z" transform="translate(-1797.757 -1471.153)" fill="#da895d"/>
        </g>
      </g>
    </g>
  </g>
</svg>
