<svg id="Group_88" data-name="Group 88" xmlns="http://www.w3.org/2000/svg" xmlns:xlink="http://www.w3.org/1999/xlink" width="75" height="75" viewBox="0 0 75 75">
  <defs>
    <clipPath id="clip-path">
      <path id="Path_244" data-name="Path 244" d="M2052.895,1348.591a37.5,37.5,0,1,1,37.5,37.5A37.5,37.5,0,0,1,2052.895,1348.591Z" transform="translate(-2052.895 -1311.091)" fill="#5d394b"/>
    </clipPath>
  </defs>
  <path id="Path_189" data-name="Path 189" d="M2052.895,1348.591a37.5,37.5,0,1,1,37.5,37.5A37.5,37.5,0,0,1,2052.895,1348.591Z" transform="translate(-2052.895 -1311.091)" fill="#bef2d5"/>
  <g id="Group_87" data-name="Group 87" transform="translate(0 0)" clip-path="url(#clip-path)">
    <g id="Group_129" data-name="Group 129" transform="translate(11.061 13.755)">
      <path id="Path_483" data-name="Path 483" d="M643.833,991.312c-3.879,4.642-8.81,6.2-10.745,6.2-1.978,0-7.323-1.361-11.31-6.2-2.26-2.737-3.847-10.587-4.44-14.351-.342-2.161-.619-6.752.9-9.055,2.38-3.616,6.835-6.157,14.279-6.157,2.816,0,6.776-.094,7.249,1.778a6.836,6.836,0,0,1,6.671,3.533,16.162,16.162,0,0,1,1.529,9.212C647.5,980.612,646.161,988.529,643.833,991.312Z" transform="translate(-607.312 -961.747)" fill="#341e13"/>
      <path id="Path_484" data-name="Path 484" d="M619.918,1054.281s.461-3.594-2.655-2.715c-2.4.676.066,7.339,1.645,7.909,1.352.489,1.646-.548,1.646-.548Z" transform="translate(-606.667 -1033.488)" fill="#f9ab78"/>
      <path id="Path_485" data-name="Path 485" d="M754.979,1054.281s-.462-3.594,2.655-2.715c2.4.676-.065,7.339-1.646,7.909-1.352.489-1.645-.548-1.645-.548Z" transform="translate(-717.126 -1033.488)" fill="#f9ab78"/>
      <path id="Path_486" data-name="Path 486" d="M647.986,1177.253c.689-9.979.734-18.31.734-18.31a83.746,83.746,0,0,0-10.275-3.76,44.654,44.654,0,0,0-16.189,0,79.774,79.774,0,0,0-10.166,3.76,149.36,149.36,0,0,0,.642,18.31Z" transform="translate(-603.284 -1115.889)" fill="#e8e8e8"/>
      <path id="Path_487" data-name="Path 487" d="M669.927,1136.6s7.206-6.094,6.75-6.482c-2.107-1.791-1.516-6.433-1.516-6.433H664.783s.962,5.625-1.668,6.9C662.893,1130.7,669.927,1136.6,669.927,1136.6Z" transform="translate(-644.143 -1091.294)" fill="#f9ab78"/>
      <path id="Path_488" data-name="Path 488" d="M655.421,989.556c-.53,3.943-.922,6.044-2.971,9.009-3.412,4.941-7.75,6.594-9.452,6.594-1.739,0-6.442-1.448-9.949-6.594-1.987-2.916-2.318-5.432-2.858-9.009-.647-4.3-.7-2.782-.7-6.839,0-8.261,3.189-14.228,12.452-14.228s14,5.192,14.138,13.672C656.159,986.808,656,985.234,655.421,989.556Z" transform="translate(-617.25 -967.14)" fill="#f9ab78"/>
      <path id="Path_489" data-name="Path 489" d="M631.666,981.105c1.243-1.294,4.31-1.239,6.052-1.291,1.64-.049,5.585-.016,6.795-1.426,1.072-1.25,3.039-3.071,4.809-3.071,4.1,0,4.791,6.116,5.44,9.415.174.887.4,1.79.639,2.7.006-.047.012-.09.02-.137.579-4.322.738-2.748.661-7.395-.141-8.48-4.606-14.237-13.876-14.237s-12.714,6.531-12.714,14.793c0,3.869.047,2.681.615,6.29C630.9,985.075,630.2,982.635,631.666,981.105Z" transform="translate(-617.25 -964.882)" fill="#e2d3cd" style="mix-blend-mode: multiply;isolation: isolate"/>
      <path id="Path_490" data-name="Path 490" d="M633.807,1079.226c.462,3.018.5,5.192,2.283,7.8,3.509,5.146,8.621,6.717,10.36,6.717,1.7,0,6.484-1.634,9.9-6.576,1.85-2.68,1.906-4.677,2.374-7.943l-3.784,6.2a16.23,16.23,0,0,1-6.056,4.672c-.73.271-1.894-2.32-2.632-2.32-.929,0-1.865,2.652-2.8,2.247a22.2,22.2,0,0,1-6.228-4.6Z" transform="translate(-620.702 -1055.726)" fill="#341e13"/>
      <path id="Path_491" data-name="Path 491" d="M628.461,979.828c3.07-2.318,13.973.751,17.922-6.079,4.708.06,5.7,4.7,6.454,6.391s.735,7.3.756,7.157c.579-4.322,1.264-2.634,1.187-7.281-.142-8.481-5.131-14.351-14.4-14.351s-13.171,6.527-13.171,14.789c0,4.057.508,2.543,1.156,6.842C628.387,987.445,627.328,980.685,628.461,979.828Z" transform="translate(-615.423 -964.882)" fill="#341e13"/>
      <path id="Path_492" data-name="Path 492" d="M784.653,1194.764h8.46c-1.967-8.026-5.068-17.19-8.806-18.31-6.387-1.913.227,17.764.227,17.764Z" transform="translate(-738.871 -1133.4)" fill="#e8e8e8"/>
      <path id="Path_493" data-name="Path 493" d="M790.359,1244.611h2.964a19.684,19.684,0,0,0-4.665-5.977c.777,3.036,1.581,5.43,1.581,5.43Z" transform="translate(-744.577 -1183.247)" fill="#e8e8e8" style="mix-blend-mode: multiply;isolation: isolate"/>
      <path id="Path_494" data-name="Path 494" d="M576.754,1194.764l.118-.546s6.614-19.677.227-17.764c-3.739,1.12-6.84,10.284-8.806,18.31Z" transform="translate(-568.293 -1133.4)" fill="#e8e8e8"/>
      <path id="Path_495" data-name="Path 495" d="M598.731,1244.611l.118-.547s.8-2.394,1.581-5.43a19.7,19.7,0,0,0-4.665,5.977Z" transform="translate(-590.27 -1183.247)" fill="#e8e8e8" style="mix-blend-mode: multiply;isolation: isolate"/>
      <path id="Path_496" data-name="Path 496" d="M712.472,1160.548c-2.262-3.47-6.486-1.878-6.486-1.878s4.353-4.088,4.991-4.947,5.005-.807,6.088,1.14C717.615,1155.852,713.59,1159.035,712.472,1160.548Z" transform="translate(-678.443 -1114.896)" fill="#d2d1d1"/>
      <path id="Path_497" data-name="Path 497" d="M639.22,1161.789c2.263-3.47,6.486-1.878,6.486-1.878s-4.353-4.087-4.991-4.948-5-.807-6.087,1.14C634.079,1157.093,638.1,1160.275,639.22,1161.789Z" transform="translate(-621.318 -1115.888)" fill="#d2d1d1"/>
      <path id="Path_498" data-name="Path 498" d="M688.283,1184.809h-3.414s-1.955-3.746-1.316-4.606,4.887-.846,5.64,0S688.283,1184.809,688.283,1184.809Z" transform="translate(-660.394 -1135.993)" fill="#a5442a"/>
      <path id="Path_499" data-name="Path 499" d="M686.029,1179.6a3.829,3.829,0,0,0-2.477.633c-.639.859,1.316,4.605,1.316,4.605h3.414s.059-.133.149-.355A3.778,3.778,0,0,1,686.029,1179.6Z" transform="translate(-660.394 -1136.018)" fill="#e2d3cd" style="mix-blend-mode: multiply;isolation: isolate"/>
      <path id="Path_500" data-name="Path 500" d="M690.529,1218.334l-1.039-12.547h-3.414l-1.142,12.547Z" transform="translate(-661.601 -1156.97)" fill="#c64626"/>
      <path id="Path_501" data-name="Path 501" d="M687.38,1218.334q.071-.47.14-.941c.562-3.858.264-7.72,1.1-11.572,0-.012.007-.023.01-.034h-2.557l-1.142,12.547Z" transform="translate(-661.601 -1156.97)" fill="#e2d3cd" style="mix-blend-mode: multiply;isolation: isolate"/>
      <g id="Group_129-2" data-name="Group 129" transform="translate(29.33 19.814)">
        <path id="Path_502" data-name="Path 502" d="M720.318,1061.465a2.545,2.545,0,0,1-.741,1.277,8.371,8.371,0,0,1-3.625.6c-.449-.2-1.035-1.165-1.035-1.165a3.39,3.39,0,0,1,2.245-1.382A12.551,12.551,0,0,1,720.318,1061.465Z" transform="translate(-714.917 -1060.8)" fill="#fff"/>
        <path id="Path_503" data-name="Path 503" d="M717.162,1061.072a10.959,10.959,0,0,1,2.766.539c.144.044.069.533-.169.94a1.81,1.81,0,0,0,.559-1.085,12.551,12.551,0,0,0-3.156-.665,3.39,3.39,0,0,0-2.245,1.382.505.505,0,0,0,.145.222A3.031,3.031,0,0,1,717.162,1061.072Z" transform="translate(-714.917 -1060.8)" fill="#341e13"/>
        <path id="Path_504" data-name="Path 504" d="M722.919,1062.057a1.258,1.258,0,1,1-1.258-1.257A1.258,1.258,0,0,1,722.919,1062.057Z" transform="translate(-719.306 -1060.8)" fill="#341e13"/>
        <path id="Path_505" data-name="Path 505" d="M727.769,1063.24c0,.532-1.5-.964-.963-.964A.963.963,0,0,1,727.769,1063.24Z" transform="translate(-724.336 -1061.981)" fill="#fff"/>
      </g>
      <path id="Path_506" data-name="Path 506" d="M644.317,1045.079a9.538,9.538,0,0,1,2.18-.946,7.678,7.678,0,0,1,3.972.285c.152,0,.378-.043.378-.465s-.124-.763-.278-.763a9.118,9.118,0,0,0-3.973-.033A5.279,5.279,0,0,0,644.317,1045.079Z" transform="translate(-629.109 -1026.693)" fill="#341e13"/>
      <path id="Path_507" data-name="Path 507" d="M721.447,1045.079a9.5,9.5,0,0,0-2.18-.946,7.667,7.667,0,0,0-3.971.285c-.153,0-.379-.043-.379-.465s.123-.763.278-.763a9.123,9.123,0,0,1,3.974-.033A5.274,5.274,0,0,1,721.447,1045.079Z" transform="translate(-685.587 -1026.693)" fill="#341e13"/>
      <g id="Group_130" data-name="Group 130" transform="translate(16.337 19.814)">
        <path id="Path_508" data-name="Path 508" d="M649.963,1061.465a2.544,2.544,0,0,0,.741,1.277,8.37,8.37,0,0,0,3.624.6c.45-.2,1.036-1.165,1.036-1.165a3.387,3.387,0,0,0-2.244-1.382A12.552,12.552,0,0,0,649.963,1061.465Z" transform="translate(-649.963 -1060.8)" fill="#fff"/>
        <path id="Path_509" data-name="Path 509" d="M653.12,1061.072a10.97,10.97,0,0,0-2.768.539c-.142.044-.069.533.169.94a1.811,1.811,0,0,1-.559-1.085,12.552,12.552,0,0,1,3.157-.665,3.387,3.387,0,0,1,2.244,1.382.5.5,0,0,1-.144.222A3.031,3.031,0,0,0,653.12,1061.072Z" transform="translate(-649.963 -1060.8)" fill="#341e13"/>
        <path id="Path_510" data-name="Path 510" d="M658.9,1062.057a1.257,1.257,0,1,0,1.258-1.257A1.258,1.258,0,0,0,658.9,1062.057Z" transform="translate(-657.114 -1060.8)" fill="#341e13"/>
        <path id="Path_511" data-name="Path 511" d="M659.806,1063.24c0,.532,1.494-.964.962-.964A.963.963,0,0,0,659.806,1063.24Z" transform="translate(-657.837 -1061.981)" fill="#fff"/>
      </g>
      <path id="Path_512" data-name="Path 512" d="M689.17,1078.374l-1.128-.893,1.128-2.633Z" transform="translate(-664.089 -1052.224)" fill="#da895d"/>
      <path id="Path_513" data-name="Path 513" d="M676.707,1107.859l-.422-.411,7.591-.411-1.363.822Z" transform="translate(-654.683 -1077.974)" fill="#da895d"/>
    </g>
  </g>
</svg>
