<svg xmlns="http://www.w3.org/2000/svg" xmlns:xlink="http://www.w3.org/1999/xlink" width="75" height="74.999" viewBox="0 0 75 74.999">
  <defs>
    <clipPath id="clip-path">
      <path id="Path_923" data-name="Path 923" d="M1358.779,163.877a37.5,37.5,0,1,1-37.5-37.5A37.5,37.5,0,0,1,1358.779,163.877Z" transform="translate(-1283.779 -126.377)" fill="#e13510"/>
    </clipPath>
  </defs>
  <g id="Group_242" data-name="Group 242" transform="translate(-1283.779 -126.377)">
    <g id="Group_241" data-name="Group 241" transform="translate(1283.779 126.377)">
      <path id="Path_879" data-name="Path 879" d="M1358.779,163.877a37.5,37.5,0,1,1-37.5-37.5A37.5,37.5,0,0,1,1358.779,163.877Z" transform="translate(-1283.779 -126.377)" fill="#e13510"/>
      <g id="Group_240" data-name="Group 240" transform="translate(0 0)" clip-path="url(#clip-path)">
        <g id="Group_239" data-name="Group 239" transform="translate(15.85 2.107)">
          <path id="Path_880" data-name="Path 880" d="M1402.7,948.749c-.835,2.452-7.714,11.5-5.522,11.5.99,0,3.743-.3,4.935-1.725,1.708-2.039,4.2-4.367,5.24-5.948.5-.757-.446-2.3-.608-3.14Z" transform="translate(-1387.978 -771.645)" fill="#a30c14"/>
          <path id="Path_881" data-name="Path 881" d="M1413.2,693.9s-2.407,3.387-4.647,2.621c-1.033-.354.884-2.87,1.079-5.431s-3.4-25.707-3.4-28.2a48.441,48.441,0,0,1,.892-6.972,180.57,180.57,0,0,1-2.109-27.841c.08-6.5,11.506-9.253,12.058-.661s-1.881,28.863-1.881,28.863a20.529,20.529,0,0,1,0,6.611C1414.715,666.488,1413.2,693.9,1413.2,693.9Z" transform="translate(-1394.438 -516.109)" fill="#f9ab78"/>
          <path id="Path_882" data-name="Path 882" d="M1473.726,948.749c.835,2.452,7.714,11.5,5.522,11.5-.99,0-3.743-.3-4.936-1.725-1.708-2.039-4.2-4.367-5.24-5.948-.5-.757.446-2.3.609-3.14Z" transform="translate(-1444.431 -771.645)" fill="#a30c14"/>
          <path id="Path_883" data-name="Path 883" d="M1458.193,693.9s2.405,3.387,4.646,2.621c1.034-.354-.884-2.87-1.079-5.431s3.4-25.707,3.4-28.2a48.447,48.447,0,0,0-.891-6.972,180.445,180.445,0,0,0,2.108-27.841c-.078-6.5-11.5-9.253-12.057-.661s1.881,28.863,1.881,28.863a20.5,20.5,0,0,0,0,6.611C1456.678,666.488,1458.193,693.9,1458.193,693.9Z" transform="translate(-1432.943 -516.109)" fill="#f9ab78"/>
          <path id="Path_884" data-name="Path 884" d="M1426.516,348.53h11.927v-4.406s-1.262-1.159-5.28-1.159-5.625.773-5.625.773Z" transform="translate(-1411.261 -297.873)" fill="#236565"/>
          <path id="Path_885" data-name="Path 885" d="M1533.494,551.983c.585,2.319.416,5.242-.638,5.506-.912.23-2.173-1.911-2.837-3.751-.1-.283.068,1.427-.773,1.287-.5-.084-.739-2.779-.5-3.375.7-1.743,1.277-2.379,1.993-2.561C1531.791,548.825,1532.909,549.663,1533.494,551.983Z" transform="translate(-1491.14 -459.042)" fill="#f9ab78"/>
          <path id="Path_886" data-name="Path 886" d="M1401.772,348.1h20.479l1.854-10-8.656-1.855v-5.691h-6.878v5.691l-8.656,1.855Z" transform="translate(-1390.458 -288.169)" fill="#f9ab78"/>
          <path id="Path_887" data-name="Path 887" d="M1439.636,331.715s1.545,2.319,3.555,2.319,3.323-2.319,3.323-2.319v-1.158h-6.878Z" transform="translate(-1421.522 -288.169)" fill="#d4895e"/>
          <g id="Group_230" data-name="Group 230" transform="translate(5.928 5.997)">
            <path id="Path_888" data-name="Path 888" d="M1423.185,205.833c-1.173,3.71-6.549,10.408-11.435,10.408-4.4,0-10.165-5.564-11.533-10.408a33.489,33.489,0,0,1-.88-10.408c0-6.6,1.955-13.705,12.413-13.705s12.412,8.244,12.412,14.633C1424.162,196.353,1424.356,202.123,1423.185,205.833Z" transform="translate(-1395.867 -177.764)" fill="#f9ab78"/>
            <path id="Path_889" data-name="Path 889" d="M1384.095,261.933c.661,2.18,2.936,3.327,3.44,2.188.492-1.109,1.5-1.719,1.191-3.569s-2.691-3.845-3.723-3.286C1383.391,258.141,1383.553,260.145,1384.095,261.933Z" transform="translate(-1383.716 -236.772)" fill="#f9ab78"/>
            <path id="Path_890" data-name="Path 890" d="M1508.694,260.882c-.661,2.18-2.936,3.327-3.439,2.188-.492-1.108-1.5-1.719-1.191-3.569s2.691-3.845,3.723-3.286C1509.4,257.09,1509.238,259.095,1508.694,260.882Z" transform="translate(-1477.792 -235.95)" fill="#f9ab78"/>
            <path id="Path_891" data-name="Path 891" d="M1410.729,189.007c1.956-.979,1.737-5.176,4.192-5.176,2.363-8.452-3.666-19.039-7.808-17.32-1.5-2.879-5.363-3.265-9.459-2.753-9.9,1.234-13.988,12.529-11.828,20.568,2.254-1.476,1.35,2.775,4.428,4.681-1.246-2.68,1.5-1.919.171-6.234,1.295-1.828,11.617-1.8,15.575-9.171,1.173,3.762,2.432,5.153,4.485,7.935A7.158,7.158,0,0,1,1410.729,189.007Z" transform="translate(-1384.926 -163.566)" fill="#341e13"/>
          </g>
          <path id="Path_892" data-name="Path 892" d="M1437.689,140.934a7.24,7.24,0,0,1-14.478,0c0-3.313,3.242-4.89,7.239-4.89S1437.689,137.621,1437.689,140.934Z" transform="translate(-1408.676 -136.044)" fill="#341e13"/>
          <rect id="Rectangle_174" data-name="Rectangle 174" width="20.479" height="25.865" transform="translate(11.315 59.931)" fill="#fff"/>
          <path id="Path_893" data-name="Path 893" d="M1398.271,579.212h22.966s1.558-39.9,1.558-43.606a7.728,7.728,0,0,0-3.039-5.855h-20.479s-2.552,1.681-2.552,6.357S1398.271,579.212,1398.271,579.212Z" transform="translate(-1387.962 -443.955)" fill="#2f2637"/>
          <path id="Path_894" data-name="Path 894" d="M1464.8,348.284l-4.582,23.469v9.789l11.636,8.451s-.433-12.263-1.979-17.519a96.635,96.635,0,0,1,1.781-9.887l.435-10.619-4.738-1.016Z" transform="translate(-1437.619 -302.033)" fill="#3aaeb0"/>
          <path id="Path_895" data-name="Path 895" d="M1464.028,346.275c.644,2.937-3.81,23.907-3.81,23.907v9.789l4.814-14.632-1.494-1.547,2.061-1.8,1.755-12.609A10.167,10.167,0,0,0,1464.028,346.275Z" transform="translate(-1437.619 -300.462)" fill="#2e8385"/>
          <path id="Path_896" data-name="Path 896" d="M1515.815,373.947c.367,1.739,2.027,23.916,1.854,31.841-.474.931-3.985,2.218-4.527,1.51-.755-10.681-3.172-29.672-3.172-31.492,0-2.411-1.976-10.619.435-10.619S1514.579,368.074,1515.815,373.947Z" transform="translate(-1475.933 -315.253)" fill="#3aaeb0"/>
          <path id="Path_897" data-name="Path 897" d="M1356.845,552.224c-.584,2.32-.414,5.242.639,5.508.911.23,2.174-1.913,2.837-3.753.1-.283-.068,1.427.772,1.287.5-.084.739-2.778.5-3.375-.7-1.744-1.278-2.38-1.994-2.559C1358.549,549.065,1357.429,549.9,1356.845,552.224Z" transform="translate(-1356.513 -459.232)" fill="#f9ab78"/>
          <path id="Path_898" data-name="Path 898" d="M1401.495,348.525l4.583,23.468v9.79l-10.773,8.4s.454-11.561,2-16.815c-.1-2.473-2.666-10.539-2.666-10.539l-.435-10.62,4.738-1.016Z" transform="translate(-1385.991 -302.221)" fill="#3aaeb0"/>
          <path id="Path_899" data-name="Path 899" d="M1419.27,346.512c-.644,2.937,3.81,23.907,3.81,23.907v9.79l-4.814-14.633,1.493-1.545-2.06-1.8-1.754-12.609A10.164,10.164,0,0,1,1419.27,346.512Z" transform="translate(-1402.994 -300.647)" fill="#2e8385"/>
          <path id="Path_900" data-name="Path 900" d="M1362.676,374.186c-.366,1.739-2.026,23.916-1.854,31.841.475.931,3.987,2.219,4.528,1.51.755-10.682,3.172-29.671,3.172-31.491,0-2.411,1.975-10.62-.435-10.62S1363.913,368.313,1362.676,374.186Z" transform="translate(-1359.873 -315.439)" fill="#3aaeb0"/>
          <path id="Path_901" data-name="Path 901" d="M1512.776,285.994a.929.929,0,1,1-.928-.929A.929.929,0,0,1,1512.776,285.994Z" transform="translate(-1477.271 -252.591)" fill="#a30c14"/>
          <path id="Path_902" data-name="Path 902" d="M1394.408,285.994a.928.928,0,1,1-.929-.929A.929.929,0,0,1,1394.408,285.994Z" transform="translate(-1384.698 -252.591)" fill="#a30c14"/>
          <g id="Group_234" data-name="Group 234" transform="translate(12.943 25.455)">
            <g id="Group_231" data-name="Group 231" transform="translate(0 0.362)">
              <path id="Path_903" data-name="Path 903" d="M1416.4,255.668l-.161-.105a1.352,1.352,0,0,1-.175-.189,1.487,1.487,0,0,1-.105-.232,1.616,1.616,0,0,1-.04-.629,1.584,1.584,0,0,0,.208.553,1.36,1.36,0,0,0,.128.146c.05.025.071.05.114.07l.185.054a.186.186,0,1,1-.1.357A.268.268,0,0,1,1416.4,255.668Z" transform="translate(-1415.909 -254.513)" fill="#452829"/>
            </g>
            <path id="Path_904" data-name="Path 904" d="M1423.45,255.563c0,.676-1.114,1.651-2.5,1.651-1.7,0-2.716-.985-2.716-2.029s1.467-1.742,2.706-1.513C1422.3,253.926,1423.45,254.818,1423.45,255.563Z" transform="translate(-1417.726 -253.459)" fill="#fff"/>
            <path id="Path_905" data-name="Path 905" d="M1425.463,255.873a1.833,1.833,0,0,1-.8,1.516,3.108,3.108,0,0,1-2.124-.045,1.834,1.834,0,1,1,2.928-1.471Z" transform="translate(-1420.512 -253.779)" fill="#452829"/>
            <g id="Group_233" data-name="Group 233" transform="translate(0.48)">
              <g id="Group_232" data-name="Group 232">
                <path id="Path_906" data-name="Path 906" d="M1418.165,254.877a1.787,1.787,0,0,1-.052-.3,1.272,1.272,0,0,1,.23-.8,2.072,2.072,0,0,1,.958-.712,3.288,3.288,0,0,1,1.351-.2,3.182,3.182,0,0,1,.678.148,4.345,4.345,0,0,1,.62.244,3.272,3.272,0,0,1,.953.686,1.659,1.659,0,0,1,.431.711.88.88,0,0,1,.022.31.948.948,0,0,0-.091-.285,1.893,1.893,0,0,0-.5-.581,4.135,4.135,0,0,0-.945-.548,4.038,4.038,0,0,0-.581-.2,4.621,4.621,0,0,0-.616-.121,2.683,2.683,0,0,0-2.116.678A1.378,1.378,0,0,0,1418.165,254.877Z" transform="translate(-1418.111 -252.851)" fill="#452829"/>
              </g>
            </g>
            <path id="Path_907" data-name="Path 907" d="M1427.566,259.733a1.169,1.169,0,1,1-1.169-1.17A1.168,1.168,0,0,1,1427.566,259.733Z" transform="translate(-1423.197 -257.318)" fill="#331e1d"/>
            <circle id="Ellipse_31" data-name="Ellipse 31" cx="0.522" cy="0.522" r="0.522" transform="translate(3.463 1.351)" fill="#fff"/>
            <circle id="Ellipse_32" data-name="Ellipse 32" cx="0.172" cy="0.172" r="0.172" transform="translate(3.463 0.9)" fill="#fff"/>
          </g>
          <g id="Group_238" data-name="Group 238" transform="translate(25.357 25.455)">
            <g id="Group_235" data-name="Group 235" transform="translate(4.946 0.362)">
              <path id="Path_908" data-name="Path 908" d="M1495.7,255.335l.185-.054c.043-.02.063-.045.113-.07a1.178,1.178,0,0,0,.129-.146,1.6,1.6,0,0,0,.209-.553,1.6,1.6,0,0,1-.042.629,1.417,1.417,0,0,1-.1.232,1.481,1.481,0,0,1-.175.189c-.1.062-.161.105-.161.105a.186.186,0,0,1-.206-.31A.236.236,0,0,1,1495.7,255.335Z" transform="translate(-1495.57 -254.513)" fill="#452829"/>
            </g>
            <path id="Path_909" data-name="Path 909" d="M1472.893,255.563c0,.676,1.114,1.651,2.5,1.651,1.7,0,2.718-.985,2.718-2.029s-1.468-1.742-2.7-1.513C1474.042,253.926,1472.893,254.818,1472.893,255.563Z" transform="translate(-1472.889 -253.459)" fill="#fff"/>
            <path id="Path_910" data-name="Path 910" d="M1476.456,255.873a1.831,1.831,0,0,0,.8,1.516,3.114,3.114,0,0,0,2.125-.045,1.834,1.834,0,1,0-2.929-1.471Z" transform="translate(-1475.676 -253.779)" fill="#452829"/>
            <g id="Group_237" data-name="Group 237">
              <g id="Group_236" data-name="Group 236">
                <path id="Path_911" data-name="Path 911" d="M1478.071,254.877a1.389,1.389,0,0,0-.338-.982,2.685,2.685,0,0,0-2.118-.678,4.832,4.832,0,0,0-.616.121,4.518,4.518,0,0,0-1.524.752,1.872,1.872,0,0,0-.5.581,1,1,0,0,0-.093.285.942.942,0,0,1,.023-.31,1.662,1.662,0,0,1,.43-.711,3.278,3.278,0,0,1,.955-.686,4.344,4.344,0,0,1,.62-.244,3.156,3.156,0,0,1,.678-.148,3.276,3.276,0,0,1,1.351.2,2.066,2.066,0,0,1,.958.711,1.274,1.274,0,0,1,.23.8A1.858,1.858,0,0,1,1478.071,254.877Z" transform="translate(-1472.874 -252.851)" fill="#452829"/>
              </g>
            </g>
            <path id="Path_912" data-name="Path 912" d="M1479.115,259.733a1.169,1.169,0,1,0,1.171-1.17A1.169,1.169,0,0,0,1479.115,259.733Z" transform="translate(-1477.755 -257.318)" fill="#331e1d"/>
            <path id="Path_913" data-name="Path 913" d="M1479.532,259.571a.522.522,0,1,1-.522-.521A.522.522,0,0,1,1479.532,259.571Z" transform="translate(-1477.266 -257.699)" fill="#fff"/>
            <path id="Path_914" data-name="Path 914" d="M1481.7,257.156a.172.172,0,1,0,.171-.172A.171.171,0,0,0,1481.7,257.156Z" transform="translate(-1479.774 -256.083)" fill="#fff"/>
          </g>
          <path id="Path_915" data-name="Path 915" d="M1451.239,281.894a1.351,1.351,0,0,1-1.129.6,2.244,2.244,0,0,1-1.4-.358c-.114-.127.761-1.675.761-1.675s-.409,1.082-.225,1.348.688.263.927.263A2.217,2.217,0,0,0,1451.239,281.894Z" transform="translate(-1428.611 -248.991)" fill="#d4895e"/>
          <path id="Path_916" data-name="Path 916" d="M1447.206,304.759a3.584,3.584,0,0,1-7.128,0Z" transform="translate(-1421.868 -267.993)" fill="#af0020"/>
          <path id="Path_917" data-name="Path 917" d="M1443.646,312.512a3.812,3.812,0,0,0,5.573,0,10.072,10.072,0,0,0-5.573,0Z" transform="translate(-1424.658 -273.749)" fill="#de212b"/>
          <path id="Path_918" data-name="Path 918" d="M1448.138,305.576a3.244,3.244,0,0,0,.1-.817h-6.328a3.19,3.19,0,0,0,.095.778.688.688,0,0,0,.562.42h5.062A.557.557,0,0,0,1448.138,305.576Z" transform="translate(-1423.304 -267.993)" fill="#fff"/>
          <path id="Path_919" data-name="Path 919" d="M1477.813,238.3a8.655,8.655,0,0,0-3.9-.725c-.764.072-1.557.152-1.858.213s-.182-.807.018-.842a5.115,5.115,0,0,1,1.913-.459A6.784,6.784,0,0,1,1477.813,238.3Z" transform="translate(-1446.732 -214.591)" fill="#341e13"/>
          <path id="Path_920" data-name="Path 920" d="M1416.959,238.3a8.657,8.657,0,0,1,3.9-.725c.763.072,1.557.152,1.856.213s.184-.807-.016-.842a5.119,5.119,0,0,0-1.913-.459A6.78,6.78,0,0,0,1416.959,238.3Z" transform="translate(-1403.787 -214.591)" fill="#341e13"/>
          <path id="Path_921" data-name="Path 921" d="M1476.915,274.356c0,.7-1.1,1.262-2.457,1.262s-2.457-.565-2.457-1.262,1.1-1.262,2.457-1.262S1476.915,273.659,1476.915,274.356Z" transform="translate(-1446.834 -243.228)" fill="#f08973"/>
          <path id="Path_922" data-name="Path 922" d="M1422.168,274.356c0,.7-1.1,1.262-2.457,1.262s-2.457-.565-2.457-1.262,1.1-1.262,2.457-1.262S1422.168,273.659,1422.168,274.356Z" transform="translate(-1404.017 -243.228)" fill="#f08973"/>
        </g>
      </g>
    </g>
  </g>
</svg>
