<svg xmlns="http://www.w3.org/2000/svg" xmlns:xlink="http://www.w3.org/1999/xlink" width="75" height="75.001" viewBox="0 0 75 75.001">
  <defs>
    <clipPath id="clip-path">
      <path id="Path_878" data-name="Path 878" d="M1283.779,560.7a37.5,37.5,0,1,1,37.5,37.5A37.5,37.5,0,0,1,1283.779,560.7Z" transform="translate(-1283.779 -523.197)" fill="#91b508"/>
    </clipPath>
  </defs>
  <g id="Group_229" data-name="Group 229" transform="translate(-1283.779 -523.197)">
    <g id="Group_228" data-name="Group 228" transform="translate(1283.779 523.197)">
      <path id="Path_834" data-name="Path 834" d="M1283.779,560.7a37.5,37.5,0,1,1,37.5,37.5A37.5,37.5,0,0,1,1283.779,560.7Z" transform="translate(-1283.779 -523.197)" fill="#91b508"/>
      <g id="Group_227" data-name="Group 227" transform="translate(0 0)" clip-path="url(#clip-path)">
        <g id="Group_226" data-name="Group 226" transform="translate(17.687 1.635)">
          <path id="Path_835" data-name="Path 835" d="M1409.626,644.68c2.441,4.62,10.429,6.428,15.762-1.387s5.241-21.682,5.241-21.682l-24.391-1.275S1403.521,633.127,1409.626,644.68Z" transform="translate(-1396.767 -600.801)" fill="#c8280f"/>
          <path id="Path_836" data-name="Path 836" d="M1408.88,1277.736c-.794,2.332-7.339,10.938-5.254,10.938.941,0,3.561-.288,4.694-1.642,1.626-1.94,4-4.154,4.987-5.66.473-.72-.424-2.189-.578-2.987Z" transform="translate(-1394.877 -1114.939)" fill="#2f2637"/>
          <path id="Path_837" data-name="Path 837" d="M1418.879,1035.265s-2.291,3.223-4.422,2.494c-.983-.336.843-2.732,1.027-5.167s-3.236-24.458-3.236-26.832a46.149,46.149,0,0,1,.847-6.633,171.771,171.771,0,0,1-2.005-26.489c.076-6.184,10.945-8.8,11.473-.629s-1.79,27.461-1.79,27.461a19.576,19.576,0,0,1,0,6.29C1420.32,1009.187,1418.879,1035.265,1418.879,1035.265Z" transform="translate(-1401.026 -871.819)" fill="#f9ab78"/>
          <path id="Path_838" data-name="Path 838" d="M1476.46,1277.736c.793,2.332,7.34,10.938,5.254,10.938-.941,0-3.562-.288-4.7-1.642-1.624-1.94-3.994-4.154-4.986-5.66-.474-.72.424-2.189.579-2.987Z" transform="translate(-1448.588 -1114.939)" fill="#2f2637"/>
          <path id="Path_839" data-name="Path 839" d="M1461.682,1035.265s2.288,3.223,4.421,2.494c.982-.336-.842-2.732-1.027-5.167s3.237-24.458,3.237-26.832a46.061,46.061,0,0,0-.849-6.633,171.825,171.825,0,0,0,2.006-26.489c-.076-6.184-10.945-8.8-11.471-.629s1.789,27.461,1.789,27.461a19.567,19.567,0,0,0,0,6.29C1460.241,1009.187,1461.682,1035.265,1461.682,1035.265Z" transform="translate(-1437.658 -871.819)" fill="#f9ab78"/>
          <path id="Path_840" data-name="Path 840" d="M1431.54,705.68h11.349l-.245-4.559s-1.076-1.014-4.9-1.014-5.231,1.014-5.231,1.014Z" transform="translate(-1417.026 -663.189)" fill="#2f2637"/>
          <path id="Path_841" data-name="Path 841" d="M1533.324,900.247c.556,2.206.394,4.988-.606,5.24-.868.219-2.07-1.819-2.7-3.57-.1-.268.063,1.357-.735,1.224-.476-.08-.7-2.643-.477-3.211.662-1.659,1.215-2.265,1.9-2.436C1531.7,897.243,1532.768,898.041,1533.324,900.247Z" transform="translate(-1493.026 -817.527)" fill="#f9ab78"/>
          <path id="Path_842" data-name="Path 842" d="M1408,706.265h19.486l1.764-9.512-8.235-1.763v-5.417h-6.545v5.417l-8.236,1.763Z" transform="translate(-1397.234 -654.95)" fill="#f9ab78"/>
          <path id="Path_843" data-name="Path 843" d="M1444.026,690.676s1.47,2.206,3.383,2.206,3.162-2.206,3.162-2.206v-1.1h-6.545Z" transform="translate(-1426.791 -654.95)" fill="#d4895e"/>
          <path id="Path_844" data-name="Path 844" d="M1428.375,570.914c-1.116,3.531-6.23,9.9-10.879,9.9-4.184,0-9.671-5.295-10.973-9.9a31.892,31.892,0,0,1-.836-9.9c0-6.276,1.86-13.04,11.809-13.04s11.81,7.843,11.81,13.921C1429.3,561.894,1429.491,567.385,1428.375,570.914Z" transform="translate(-1396.743 -544.209)" fill="#f9ab78"/>
          <path id="Path_845" data-name="Path 845" d="M1391.178,624.286c.63,2.075,2.794,3.166,3.274,2.081.468-1.055,1.427-1.635,1.134-3.4s-2.561-3.658-3.543-3.127C1390.51,620.677,1390.663,622.586,1391.178,624.286Z" transform="translate(-1385.179 -600.347)" fill="#f9ab78"/>
          <path id="Path_846" data-name="Path 846" d="M1509.726,623.289c-.628,2.075-2.794,3.165-3.274,2.082-.468-1.055-1.427-1.636-1.134-3.4s2.56-3.658,3.543-3.127C1510.4,619.679,1510.244,621.587,1509.726,623.289Z" transform="translate(-1474.684 -599.567)" fill="#f9ab78"/>
          <path id="Path_847" data-name="Path 847" d="M1412.8,554.905c1.858-.931,1.651-4.925,3.987-4.925,2.249-8.041-3.487-18.115-7.428-16.479-1.427-2.738-5.1-3.106-9-2.619-9.417,1.174-12.826,8.007-12.826,19.225,0,10.437,4.745,22.049,4.745,22.049l2.655-.57c.439-.093-4.271-12.5-.453-22.639,1.934-5.133,10.055-1.689,13.821-8.7,1.116,3.579,2.314,4.9,4.267,7.549A6.807,6.807,0,0,1,1412.8,554.905Z" transform="translate(-1382.606 -530.7)" fill="#e13510"/>
          <path id="Path_848" data-name="Path 848" d="M1400.448,926.148H1422.3s2.66-34.433,2.66-37.959-2.892-9.1-2.892-9.1h-21.839s-2.426,5.131-2.426,9.579S1400.448,926.148,1400.448,926.148Z" transform="translate(-1390.64 -803.165)" fill="#2f2637"/>
          <path id="Path_849" data-name="Path 849" d="M1516.506,730.858c.348,1.655,1.929,22.754,1.765,30.294-.452.885-3.794,2.109-4.309,1.435-.719-10.162-3.017-28.23-3.017-29.961,0-2.295-1.881-10.1.414-10.1S1515.328,725.268,1516.506,730.858Z" transform="translate(-1478.56 -680.719)" fill="#4a3b59"/>
          <path id="Path_850" data-name="Path 850" d="M1365.257,900.476c-.557,2.206-.394,4.987.606,5.24.868.219,2.068-1.82,2.7-3.57.1-.269-.064,1.358.735,1.223.474-.079.7-2.643.476-3.21-.662-1.659-1.215-2.264-1.9-2.436C1366.876,897.472,1365.812,898.268,1365.257,900.476Z" transform="translate(-1364.94 -817.706)" fill="#f9ab78"/>
          <path id="Path_851" data-name="Path 851" d="M1424.389,718.817l.415-10.1-4.508-.965-2.16-2.989s-.165,5.751-4.878,5.751-5.255-5.751-5.255-5.751l-3.163,2.955-4.507.967.414,10.1s2.438,7.673,2.536,10.026c-1.47,5-3.079,16-3.079,16a32.324,32.324,0,0,0,12.637,2.539,35.635,35.635,0,0,0,12.915-2.457s-1.589-11.667-3.06-16.666A91.793,91.793,0,0,1,1424.389,718.817Z" transform="translate(-1392.518 -666.827)" fill="#4a3b59"/>
          <path id="Path_852" data-name="Path 852" d="M1370.8,731.088c-.35,1.655-1.929,22.756-1.764,30.295.452.885,3.793,2.111,4.307,1.437.72-10.162,3.019-28.23,3.019-29.961,0-2.295,1.881-10.1-.414-10.1S1371.98,725.5,1370.8,731.088Z" transform="translate(-1368.136 -680.902)" fill="#4a3b59"/>
          <g id="Group_220" data-name="Group 220" transform="translate(12.314 18.509)">
            <g id="Group_217" data-name="Group 217" transform="translate(0 0.348)">
              <path id="Path_853" data-name="Path 853" d="M1421.92,618.329l-.153-.1a1.323,1.323,0,0,1-.166-.18,1.361,1.361,0,0,1-.1-.221,1.532,1.532,0,0,1-.039-.6,1.5,1.5,0,0,0,.2.525,1.02,1.02,0,0,0,.123.14c.046.023.068.047.107.067l.177.05a.177.177,0,1,1-.1.34A.193.193,0,0,1,1421.92,618.329Z" transform="translate(-1421.448 -617.23)" fill="#452829"/>
            </g>
            <path id="Path_854" data-name="Path 854" d="M1428.627,618.223c0,.644-1.061,1.57-2.38,1.57-1.615,0-2.585-.936-2.585-1.929s1.4-1.658,2.575-1.441C1427.534,616.665,1428.627,617.515,1428.627,618.223Z" transform="translate(-1423.179 -616.219)" fill="#fff"/>
            <path id="Path_855" data-name="Path 855" d="M1430.538,618.524a1.745,1.745,0,0,1-.763,1.444,2.968,2.968,0,0,1-2.023-.043,1.745,1.745,0,1,1,2.786-1.4Z" transform="translate(-1425.828 -616.531)" fill="#452829"/>
            <g id="Group_219" data-name="Group 219" transform="translate(0.457)">
              <g id="Group_218" data-name="Group 218">
                <path id="Path_856" data-name="Path 856" d="M1423.6,617.563a1.591,1.591,0,0,1-.049-.288,1.223,1.223,0,0,1,.219-.764,2.532,2.532,0,0,1,2.2-.87,3.915,3.915,0,0,1,1.234.374,3.1,3.1,0,0,1,.909.653,1.572,1.572,0,0,1,.408.676.945.945,0,0,1,.022.3.912.912,0,0,0-.087-.272,1.809,1.809,0,0,0-.48-.552,4.327,4.327,0,0,0-1.451-.716,4.6,4.6,0,0,0-.585-.116,2.566,2.566,0,0,0-2.016.645A1.31,1.31,0,0,0,1423.6,617.563Z" transform="translate(-1423.547 -615.635)" fill="#452829"/>
              </g>
            </g>
            <path id="Path_857" data-name="Path 857" d="M1432.538,622.195a1.113,1.113,0,1,1-1.112-1.111A1.111,1.111,0,0,1,1432.538,622.195Z" transform="translate(-1428.381 -619.897)" fill="#331e1d"/>
            <path id="Path_858" data-name="Path 858" d="M1436.572,622.043a.5.5,0,1,0,.5-.5A.5.5,0,0,0,1436.572,622.043Z" transform="translate(-1433.276 -620.258)" fill="#fff"/>
            <path id="Path_859" data-name="Path 859" d="M1436.9,619.741a.164.164,0,1,1-.164-.163A.165.165,0,0,1,1436.9,619.741Z" transform="translate(-1433.276 -618.719)" fill="#fff"/>
          </g>
          <g id="Group_224" data-name="Group 224" transform="translate(24.127 18.509)">
            <g id="Group_221" data-name="Group 221" transform="translate(4.707 0.348)">
              <path id="Path_860" data-name="Path 860" d="M1497.377,618.012l.176-.05c.041-.02.061-.044.108-.067a1.192,1.192,0,0,0,.123-.14,1.5,1.5,0,0,0,.2-.525,1.531,1.531,0,0,1-.039.6,1.217,1.217,0,0,1-.1.221,1.237,1.237,0,0,1-.167.18l-.153.1a.177.177,0,1,1-.2-.294A.2.2,0,0,1,1497.377,618.012Z" transform="translate(-1497.249 -617.23)" fill="#452829"/>
            </g>
            <path id="Path_861" data-name="Path 861" d="M1475.67,618.223c0,.644,1.06,1.57,2.381,1.57,1.614,0,2.584-.936,2.584-1.929s-1.4-1.658-2.573-1.441C1476.764,616.665,1475.67,617.515,1475.67,618.223Z" transform="translate(-1475.666 -616.219)" fill="#fff"/>
            <path id="Path_862" data-name="Path 862" d="M1479.054,618.524a1.746,1.746,0,0,0,.763,1.444,2.964,2.964,0,0,0,2.022-.043,1.744,1.744,0,1,0-2.785-1.4Z" transform="translate(-1478.313 -616.531)" fill="#452829"/>
            <g id="Group_223" data-name="Group 223">
              <g id="Group_222" data-name="Group 222">
                <path id="Path_863" data-name="Path 863" d="M1480.594,617.563a1.306,1.306,0,0,0-.321-.934,2.559,2.559,0,0,0-2.014-.645,4.613,4.613,0,0,0-.586.115,3.966,3.966,0,0,0-.552.194,3.9,3.9,0,0,0-.9.521,1.781,1.781,0,0,0-.48.552.94.94,0,0,0-.089.272.88.88,0,0,1,.022-.3,1.56,1.56,0,0,1,.408-.676,3.088,3.088,0,0,1,.907-.653,3.915,3.915,0,0,1,1.234-.374,2.532,2.532,0,0,1,2.2.87,1.224,1.224,0,0,1,.219.764A1.56,1.56,0,0,1,1480.594,617.563Z" transform="translate(-1475.652 -615.635)" fill="#452829"/>
              </g>
            </g>
            <path id="Path_864" data-name="Path 864" d="M1481.59,622.195a1.112,1.112,0,1,0,1.113-1.111A1.112,1.112,0,0,0,1481.59,622.195Z" transform="translate(-1480.296 -619.897)" fill="#331e1d"/>
            <path id="Path_865" data-name="Path 865" d="M1481.982,622.043a.5.5,0,1,1-.5-.5A.5.5,0,0,1,1481.982,622.043Z" transform="translate(-1479.826 -620.258)" fill="#fff"/>
            <path id="Path_866" data-name="Path 866" d="M1484.045,619.741a.164.164,0,1,0,.164-.163A.164.164,0,0,0,1484.045,619.741Z" transform="translate(-1482.216 -618.719)" fill="#fff"/>
          </g>
          <path id="Path_867" data-name="Path 867" d="M1455.064,643.281a1.283,1.283,0,0,1-1.073.574,2.147,2.147,0,0,1-1.334-.341c-.108-.123.724-1.594.724-1.594s-.388,1.028-.211,1.282.653.25.879.25A2.115,2.115,0,0,0,1455.064,643.281Z" transform="translate(-1433.533 -617.683)" fill="#d4895e"/>
          <path id="Path_868" data-name="Path 868" d="M1451.228,665.034a3.409,3.409,0,0,1-6.78,0Z" transform="translate(-1427.121 -635.759)" fill="#af0020"/>
          <path id="Path_869" data-name="Path 869" d="M1447.847,672.411a3.625,3.625,0,0,0,5.3,0,9.612,9.612,0,0,0-5.3,0Z" transform="translate(-1429.78 -641.237)" fill="#de212b"/>
          <path id="Path_870" data-name="Path 870" d="M1452.113,665.81a3.091,3.091,0,0,0,.1-.776h-6.021a2.983,2.983,0,0,0,.092.74.653.653,0,0,0,.534.4h4.816A.531.531,0,0,0,1452.113,665.81Z" transform="translate(-1428.484 -635.759)" fill="#fff"/>
          <path id="Path_871" data-name="Path 871" d="M1480.346,601.8a8.221,8.221,0,0,0-3.713-.689c-.727.068-1.482.144-1.768.2s-.173-.769.016-.8a4.942,4.942,0,0,1,1.821-.436A6.452,6.452,0,0,1,1480.346,601.8Z" transform="translate(-1450.775 -584.951)" fill="#d02710"/>
          <path id="Path_872" data-name="Path 872" d="M1422.45,601.8a8.228,8.228,0,0,1,3.713-.689c.727.068,1.482.144,1.767.2s.174-.769-.016-.8a4.923,4.923,0,0,0-1.821-.436A6.452,6.452,0,0,0,1422.45,601.8Z" transform="translate(-1409.917 -584.951)" fill="#d02710"/>
          <path id="Path_873" data-name="Path 873" d="M1479.491,636.108c0,.664-1.047,1.2-2.338,1.2s-2.339-.538-2.339-1.2,1.047-1.2,2.339-1.2S1479.491,635.446,1479.491,636.108Z" transform="translate(-1450.871 -612.199)" fill="#f08973"/>
          <path id="Path_874" data-name="Path 874" d="M1427.4,636.108c0,.664-1.047,1.2-2.338,1.2s-2.338-.538-2.338-1.2,1.047-1.2,2.338-1.2S1427.4,635.446,1427.4,636.108Z" transform="translate(-1410.135 -612.199)" fill="#f08973"/>
          <g id="Group_225" data-name="Group 225" transform="translate(9.667 17.216)">
            <path id="Path_875" data-name="Path 875" d="M1414.472,609.7c-4.2,0-5.171.805-5.171,1.843,0,1.455,1.184,4.752,4.04,4.752,5.816,0,6.3-3.636,6.3-4.752C1419.641,610.459,1418.511,609.7,1414.472,609.7Zm-.884,5.876c-2.233,0-3.159-2.578-3.159-3.717,0-.809.757-1.44,4.043-1.44,3.158,0,4.041.595,4.041,1.44C1418.513,612.731,1418.134,615.574,1413.588,615.574Z" transform="translate(-1409.301 -609.698)" fill="#3d2b39"/>
            <path id="Path_876" data-name="Path 876" d="M1463.807,611.541c0,1.116.486,4.752,6.3,4.752,2.856,0,4.038-3.3,4.038-4.752,0-1.038-.968-1.843-5.169-1.843C1464.938,609.7,1463.807,610.459,1463.807,611.541Zm1.128.316c0-.845.884-1.44,4.042-1.44,3.285,0,4.043.63,4.043,1.44,0,1.138-.926,3.717-3.159,3.717C1465.314,615.574,1464.935,612.731,1464.935,611.857Z" transform="translate(-1451.929 -609.698)" fill="#3d2b39"/>
            <path id="Path_877" data-name="Path 877" d="M1454.447,617.393a1.1,1.1,0,0,1,1.737.043c.383.616.473-1.42.473-1.42h-2.73S1453.909,617.9,1454.447,617.393Z" transform="translate(-1444.202 -614.638)" fill="#3d2b39"/>
          </g>
        </g>
      </g>
    </g>
  </g>
</svg>
