<svg xmlns="http://www.w3.org/2000/svg" xmlns:xlink="http://www.w3.org/1999/xlink" width="75" height="75.001" viewBox="0 0 75 75.001">
  <defs>
    <clipPath id="clip-path">
      <path id="Path_672" data-name="Path 672" d="M204.261,951.771a37.5,37.5,0,1,1-37.5-37.5A37.5,37.5,0,0,1,204.261,951.771Z" transform="translate(-129.261 -914.27)" fill="#e13510"/>
    </clipPath>
  </defs>
  <g id="Group_186" data-name="Group 186" transform="translate(-129.261 -914.27)">
    <g id="Group_185" data-name="Group 185" transform="translate(129.261 914.27)">
      <path id="Path_635" data-name="Path 635" d="M204.261,951.771a37.5,37.5,0,1,1-37.5-37.5A37.5,37.5,0,0,1,204.261,951.771Z" transform="translate(-129.261 -914.27)" fill="#e13510"/>
      <g id="Group_184" data-name="Group 184" transform="translate(0)" clip-path="url(#clip-path)">
        <g id="Group_183" data-name="Group 183" transform="translate(9.304 10.699)">
          <g id="Group_178" data-name="Group 178" transform="translate(9.928)">
            <path id="Path_636" data-name="Path 636" d="M218.283,1053.23s0-.005,0-.007h0Z" transform="translate(-218.115 -1033.64)" fill="#241412"/>
            <path id="Path_637" data-name="Path 637" d="M251.18,978.173a.746.746,0,0,0,.1-.415.815.815,0,0,0-.12-.415.843.843,0,0,0,.087-.422.808.808,0,0,0-.143-.408.775.775,0,0,0,.072-.422.82.82,0,0,0-.168-.408.779.779,0,0,0,.047-.43.805.805,0,0,0-.184-.391.78.78,0,0,0,.024-.431.75.75,0,0,0-.207-.383.8.8,0,0,0,.007-.431.886.886,0,0,0-.223-.374.8.8,0,0,0-.024-.432.864.864,0,0,0-.24-.358.792.792,0,0,0-.048-.432.835.835,0,0,0-.255-.343.783.783,0,0,0-.064-.423,1,1,0,0,1-.382-.782.726.726,0,0,0-.319-.319.791.791,0,0,0-.151-.431.759.759,0,0,0-.351-.279.793.793,0,0,0-.176-.406.843.843,0,0,0-.367-.248.8.8,0,0,0-.6-.606.822.822,0,0,0-.231-.366.8.8,0,0,0-.4-.193.793.793,0,0,0-.255-.351.78.78,0,0,0-.4-.168.818.818,0,0,0-.686-.478.748.748,0,0,0-.294-.319h.007a.929.929,0,0,0-.415-.128.814.814,0,0,0-.311-.3.9.9,0,0,0-.423-.1.8.8,0,0,0-.319-.286.858.858,0,0,0-.423-.081.791.791,0,0,0-.328-.271.822.822,0,0,0-.432-.064.69.69,0,0,0-.342-.255.779.779,0,0,0-.423-.048.8.8,0,0,0-.359-.239.77.77,0,0,0-.423-.032.789.789,0,0,0-.365-.224.735.735,0,0,0-.432-.008.792.792,0,0,0-.8-.207.792.792,0,0,0-.383-.2.846.846,0,0,0-.423.024.875.875,0,0,0-.391-.183h.008a.776.776,0,0,0-.431.047.8.8,0,0,0-.814-.112.772.772,0,0,0-.4-.16.83.83,0,0,0-.423.072.767.767,0,0,0-.4-.135.82.82,0,0,0-.424.087.761.761,0,0,0-.407-.128.752.752,0,0,0-.415.1.782.782,0,0,0-.407-.111.884.884,0,0,1-.829.016.782.782,0,0,0-.406.136.828.828,0,0,0-.424-.088.845.845,0,0,0-.4.151.742.742,0,0,0-.423-.062.772.772,0,0,0-.4.159.755.755,0,0,0-.423-.047.705.705,0,0,0-.392.175.765.765,0,0,0-.423-.04.794.794,0,0,0-.382.192.853.853,0,0,0-.431-.016.754.754,0,0,0-.375.207.77.77,0,0,0-.8.216.762.762,0,0,0-.423.016.749.749,0,0,0-.367.232.843.843,0,0,0-.423.032.733.733,0,0,0-.351.246.782.782,0,0,0-.424.049.816.816,0,0,0-.343.262.875.875,0,0,0-.423.064.748.748,0,0,0-.327.28.792.792,0,0,0-.423.087.8.8,0,0,0-.319.287.766.766,0,0,0-.414.112.809.809,0,0,0-.312.3.78.78,0,0,0-.407.128.764.764,0,0,0-.3.319.929.929,0,0,0-.407.151.851.851,0,0,0-.271.336.727.727,0,0,0-.4.175.784.784,0,0,0-.255.351.773.773,0,0,0-.391.2.811.811,0,0,0-.232.367.849.849,0,0,0-.383.223.91.91,0,0,1-.566.647.955.955,0,0,1-.519.7.776.776,0,0,0-.144.431.755.755,0,0,0-.311.318.778.778,0,0,0-.1.455.8.8,0,0,0-.28.359.807.807,0,0,0-.039.455.789.789,0,0,0-.232.351.953.953,0,0,1-.216.837.741.741,0,0,0,.025.441.729.729,0,0,0-.183.39.821.821,0,0,0,.039.423.851.851,0,0,0-.1.822.776.776,0,0,0-.072.814.766.766,0,0,0-.144.4.837.837,0,0,0,.087.416.764.764,0,0,0-.136.4.712.712,0,0,0,.1.406.783.783,0,0,0-.127.406.769.769,0,0,0,.1.408.864.864,0,0,0-.12.407.794.794,0,0,1,0,.814.8.8,0,0,0,.12.406.7.7,0,0,0-.1.408.75.75,0,0,0,.119.4.833.833,0,0,0-.088.416.676.676,0,0,0,.128.4.745.745,0,0,0-.08.414.909.909,0,0,1,.072.824.759.759,0,0,0,.16.406.85.85,0,0,0-.056.423v.007a.848.848,0,0,0,.168.375.8.8,0,0,0-.041.414.836.836,0,0,0,.168.383.785.785,0,0,0-.039.407.764.764,0,0,0,.176.382.8.8,0,0,0-.04.416.781.781,0,0,0,.182.383.817.817,0,0,0-.038.414.831.831,0,0,1,.159.8.826.826,0,0,0,.192.375.733.733,0,0,0-.023.414.782.782,0,0,0,.192.375.755.755,0,0,0-.008.423.784.784,0,0,0,.2.366.848.848,0,0,0-.009.423.82.82,0,0,0,.216.367.772.772,0,0,0,.223.783.8.8,0,0,0,.248.781.81.81,0,0,0,.023.432v-.008a.9.9,0,0,0,.249.352.789.789,0,0,0,.047.43.8.8,0,0,0,.255.343.784.784,0,0,0,.072.423.726.726,0,0,0,.279.335.829.829,0,0,0,.08.431h.007a.815.815,0,0,0,.3.311.832.832,0,0,0,.119.43.911.911,0,0,1,.478.718.745.745,0,0,0,.36.271.79.79,0,0,0,.175.4.9.9,0,0,0,.36.241.764.764,0,0,0,.2.382.778.778,0,0,0,.358.222.929.929,0,0,0,.216.376.831.831,0,0,0,.374.207.813.813,0,0,0,.232.367.734.734,0,0,0,.384.192.743.743,0,0,0,.239.35.861.861,0,0,0,.391.184.907.907,0,0,0,.263.344.83.83,0,0,0,.4.159.745.745,0,0,0,.271.328.76.76,0,0,0,.4.143.865.865,0,0,0,.287.328.787.787,0,0,0,.416.119.723.723,0,0,0,.3.311.811.811,0,0,0,.415.112.781.781,0,0,0,.734.384.792.792,0,0,0,.75.358.814.814,0,0,0,.335.271.861.861,0,0,0,.423.056.839.839,0,0,0,.783.287.866.866,0,0,0,.358.24.794.794,0,0,0,.431.016.709.709,0,0,0,.374.216.806.806,0,0,0,.432,0,.842.842,0,0,0,.39.2.827.827,0,0,0,.439-.032.863.863,0,0,0,.4.175.748.748,0,0,0,.447-.071.781.781,0,0,0,.439.144h.016a.827.827,0,0,0,.447-.128.891.891,0,0,0,.455.08.867.867,0,0,0,.416-.185.807.807,0,0,0,.438.032.849.849,0,0,0,.391-.207.789.789,0,0,0,.806-.231.806.806,0,0,0,.79-.272.821.821,0,0,0,.431-.049.872.872,0,0,0,.344-.262.8.8,0,0,0,.423-.072.876.876,0,0,0,.327-.27.8.8,0,0,0,.422-.089.875.875,0,0,0,.319-.294.743.743,0,0,0,.416-.105.858.858,0,0,1,.71-.422.815.815,0,0,0,.3-.32.724.724,0,0,0,.406-.135.861.861,0,0,0,.28-.326.8.8,0,0,0,.4-.152.821.821,0,0,0,.263-.334.811.811,0,0,0,.647-.519.815.815,0,0,0,.383-.183.889.889,0,0,0,.239-.359.82.82,0,0,0,.375-.2.861.861,0,0,1,.6-.582.844.844,0,0,0,.207-.377.825.825,0,0,0,.359-.221.778.778,0,0,0,.192-.383.9.9,0,0,0,.358-.24h-.007l.015-.016a.008.008,0,0,1,.008-.008.836.836,0,0,0,.184-.431.772.772,0,0,0,.343-.3.782.782,0,0,0,.127-.431.763.763,0,0,0,.4-.742.8.8,0,0,0,.287-.335.786.786,0,0,0,.064-.423.8.8,0,0,0,.262-.343.761.761,0,0,0,.048-.423.738.738,0,0,0,.248-.351.7.7,0,0,0,.032-.423.816.816,0,0,0,.239-.351.852.852,0,0,0,.024-.423.9.9,0,0,0,.222-.358.823.823,0,0,0,.01-.424.765.765,0,0,0,.215-.366.814.814,0,0,0,.008-.415.88.88,0,0,0,.208-.367.834.834,0,0,0-.008-.422.775.775,0,0,0,.192-.791.763.763,0,0,0,.175-.79.679.679,0,0,0,.193-.367.76.76,0,0,0-.024-.423.779.779,0,0,0,.16-.791.721.721,0,0,0,.184-.375.846.846,0,0,0-.032-.422.791.791,0,0,0,.177-.375.814.814,0,0,0-.041-.415.8.8,0,0,0,.175-.383.831.831,0,0,1,.128-.8.812.812,0,0,0-.048-.415.8.8,0,0,0,.168-.383.816.816,0,0,0-.056-.414.839.839,0,0,0,.168-.384.888.888,0,0,0-.056-.414.841.841,0,0,0,.152-.391.731.731,0,0,0-.056-.416.829.829,0,0,0,.152-.389.754.754,0,0,0-.071-.423.781.781,0,0,0,.144-.4v-.008a.824.824,0,0,0-.088-.415.833.833,0,0,0,.128-.416A.824.824,0,0,0,251.18,978.173Z" transform="translate(-217.514 -963.363)" fill="#241412"/>
          </g>
          <path id="Path_638" data-name="Path 638" d="M220.825,1060.06s.5-3.812-2.807-2.892c-2.548.708.039,7.789,1.714,8.4,1.432.524,1.748-.574,1.748-.574Z" transform="translate(-207.143 -1036.613)" fill="#884c2c"/>
          <path id="Path_639" data-name="Path 639" d="M352.031,1060.586s-.475-3.816,2.829-2.871c2.543.729-.1,7.789-1.78,8.386-1.436.513-1.743-.587-1.743-.587Z" transform="translate(-312.245 -1037.036)" fill="#884c2c"/>
          <path id="Path_640" data-name="Path 640" d="M248.874,1181.839l1.879-19.334a88.923,88.923,0,0,0-10.888-4.033,47.325,47.325,0,0,0-17.178-.069,84.764,84.764,0,0,0-10.8,3.947s1.3,9.028,2.575,19.489Z" transform="translate(-203.182 -1115.301)" fill="#884c2c"/>
          <path id="Path_641" data-name="Path 641" d="M264,1140.248s9.306-6.3,8.751-6.6c-3.225-1.788-3.011-6.761-3.011-6.761l-11.7-.658s.712,7.15-2.757,8.021C255.033,1134.31,264,1140.248,264,1140.248Z" transform="translate(-237.123 -1090.733)" fill="#884c2c"/>
          <path id="Path_642" data-name="Path 642" d="M267.154,1130.5a4.254,4.254,0,0,1,1.419.814c1.536,1.317,5.106,3.292,7.248,2.627,1.585-.49,2.763-1.873,3.875-3.145a10.772,10.772,0,0,1-.672-3.91l-11.7-.658A17.494,17.494,0,0,1,267.154,1130.5Z" transform="translate(-246.408 -1090.733)" fill="#d0bfbe" style="mix-blend-mode: multiply;isolation: isolate"/>
          <path id="Path_643" data-name="Path 643" d="M257.4,998.909c-.578,4.182-.756,6.6-3.188,9.547a28.565,28.565,0,0,1-8.084,6.4,8.185,8.185,0,0,1-3.958.1c-2.952-1.14-7.1-4.16-8.547-6.576-1.922-3.212-2.437-5.773-2.994-9.571-.67-4.564-.729-2.955-.712-7.259.035-8.767,3.443-15.085,13.272-15.046s14.831,5.568,14.944,14.567C258.192,996,258.03,994.325,257.4,998.909Z" transform="translate(-217.281 -973.636)" fill="#884c2c"/>
          <path id="Path_644" data-name="Path 644" d="M264.508,1107.819a7.985,7.985,0,0,0,.972,5.64,19.407,19.407,0,0,0,3.6,1.931,8.186,8.186,0,0,0,3.958-.1,18.621,18.621,0,0,0,2.728-1.627,10.584,10.584,0,0,0,1.607-5.848c-.239-2.094-3.779-2.942-6.572-2.892S265.145,1105.675,264.508,1107.819Z" transform="translate(-244.195 -1074.075)" fill="#241412"/>
          <path id="Path_645" data-name="Path 645" d="M269.817,1115.06c-.411,1.383,1.565,4.133,1.829,4.311a12.678,12.678,0,0,0,2.321,1.245c.216.083.779-2.806,1.227-2.8.574,0,1.05,2.868,1.324,2.742a12,12,0,0,0,1.759-1.049c.3-.207,2.416-3.547,2.263-4.9s-2.942-.236-5.685-.236C273.053,1114.37,270.228,1113.679,269.817,1115.06Z" transform="translate(-248.447 -1081.124)" fill="#884c2c"/>
          <path id="Path_646" data-name="Path 646" d="M233.338,988.094c4.306-2.257,4.7,2.317,11.221,2,2.875-.141,6.5-3.315,8.379-3.308,4.356.017,2.551,6.589,3.224,10.092.182.941.971-.936,1.221.036.007-.05.014-.1.022-.147.633-4.584.8-2.913.733-7.844-.113-9-4.827-15.127-14.664-15.165s-13.518,6.877-13.552,15.644c-.017,4.1,1.118,3.76,1.7,7.593C232.472,995.217,231.345,989.139,233.338,988.094Z" transform="translate(-217.289 -971.489)" fill="#e2d3cd" style="mix-blend-mode: multiply;isolation: isolate"/>
          <path id="Path_647" data-name="Path 647" d="M231.444,987.147c1.842-1.844,4.987,1.895,11.471,1.895,6.323,0,7.58-3.966,10.747-1.895,2.744,1.795.624,10.313.624,10.313a11.519,11.519,0,0,0,1.375-.7c.633-4.584,1.352-2.79,1.289-7.721-.112-9-5.383-15.25-15.22-15.288s-14,6.871-14.038,15.638c-.017,4.305.72,3.958,1.391,8.523a11.151,11.151,0,0,0,1.465-.454S227.754,990.837,231.444,987.147Z" transform="translate(-215.545 -971.489)" fill="#241412"/>
          <path id="Path_648" data-name="Path 648" d="M180.937,1198.141l1.708-5.114s4.827-16.378-1.96-14.375c-4.209,1.244-7.048,11.239-8.693,19.489Z" transform="translate(-171.984 -1131.602)" fill="#884c2c"/>
          <path id="Path_649" data-name="Path 649" d="M378.108,1198.667h8.951c-1.588-8.219-4.334-18.07-8.5-19.334-6.77-2.056-2.072,14.359-2.072,14.359Z" transform="translate(-330.676 -1132.128)" fill="#884c2c"/>
          <g id="Group_179" data-name="Group 179" transform="translate(30.926 22.765)">
            <path id="Path_650" data-name="Path 650" d="M319.6,1068.548a2.7,2.7,0,0,1-.793,1.352c-.5.467-3.528.771-3.848.627-.477-.216-1.094-1.242-1.094-1.242a3.6,3.6,0,0,1,2.389-1.458A13.365,13.365,0,0,1,319.6,1068.548Z" transform="translate(-313.866 -1067.828)" fill="#fff"/>
            <path id="Path_651" data-name="Path 651" d="M316.254,1068.117a11.662,11.662,0,0,1,2.933.584c.151.047.071.567-.184,1a1.919,1.919,0,0,0,.6-1.149,13.365,13.365,0,0,0-3.345-.72,3.6,3.6,0,0,0-2.389,1.458.531.531,0,0,0,.153.235A3.215,3.215,0,0,1,316.254,1068.117Z" transform="translate(-313.866 -1067.828)" fill="#341e13"/>
            <path id="Path_652" data-name="Path 652" d="M321.885,1069.176a1.334,1.334,0,1,1-1.329-1.339A1.334,1.334,0,0,1,321.885,1069.176Z" transform="translate(-318.051 -1067.835)" fill="#341e13"/>
            <path id="Path_653" data-name="Path 653" d="M326.494,1070.3c0,.564-1.583-1.029-1.02-1.026A1.025,1.025,0,0,1,326.494,1070.3Z" transform="translate(-322.85 -1068.961)" fill="#fff"/>
          </g>
          <path id="Path_654" data-name="Path 654" d="M243.549,1052.449a10.941,10.941,0,0,1,2.436-1c1.83-.56,4.328.32,4.425.322.17,0,.422-.044.424-.491s-.135-.812-.306-.813a10.676,10.676,0,0,0-4.431-.052A5.812,5.812,0,0,0,243.549,1052.449Z" transform="translate(-227.947 -1031.269)" fill="#241412"/>
          <path id="Path_655" data-name="Path 655" d="M321.115,1052.734a10.712,10.712,0,0,0-2.393-1.013c-1.8-.575-4.272.285-4.367.284-.168,0-.417-.046-.415-.494s.14-.81.308-.81a10.389,10.389,0,0,1,4.37-.018A5.748,5.748,0,0,1,321.115,1052.734Z" transform="translate(-282.998 -1031.464)" fill="#241412"/>
          <g id="Group_180" data-name="Group 180" transform="translate(17.141 22.716)">
            <path id="Path_656" data-name="Path 656" d="M250.61,1068.292a2.71,2.71,0,0,0,.783,1.359c.494.471,3.522.8,3.843.656.48-.212,1.1-1.232,1.1-1.232a3.593,3.593,0,0,0-2.376-1.476A13.309,13.309,0,0,0,250.61,1068.292Z" transform="translate(-250.61 -1067.599)" fill="#fff"/>
            <path id="Path_657" data-name="Path 657" d="M253.962,1067.887a11.684,11.684,0,0,0-2.938.561c-.151.046-.076.565.177,1a1.926,1.926,0,0,1-.59-1.154,13.309,13.309,0,0,1,3.353-.694,3.593,3.593,0,0,1,2.376,1.476.535.535,0,0,1-.153.234A3.221,3.221,0,0,0,253.962,1067.887Z" transform="translate(-250.61 -1067.599)" fill="#341e13"/>
            <path id="Path_658" data-name="Path 658" d="M259.312,1068.927a1.334,1.334,0,1,0,1.34-1.328A1.333,1.333,0,0,0,259.312,1068.927Z" transform="translate(-257.416 -1067.599)" fill="#341e13"/>
            <path id="Path_659" data-name="Path 659" d="M260.183,1070.052c0,.565,1.591-1.015,1.027-1.017A1.023,1.023,0,0,0,260.183,1070.052Z" transform="translate(-258.097 -1068.722)" fill="#fff"/>
          </g>
          <path id="Path_660" data-name="Path 660" d="M290.333,1086.279l-1.193-.952,1.208-2.787Z" transform="translate(-263.602 -1056.568)" fill="#d0bfbe" style="mix-blend-mode: multiply;isolation: isolate"/>
          <path id="Path_661" data-name="Path 661" d="M277.2,1119.993l-.885-.8,1.482.384,5.146-.037,1.444-.454-1.119.908Z" transform="translate(-253.569 -1085.15)" fill="#d0bfbe" style="mix-blend-mode: multiply;isolation: isolate"/>
          <g id="Group_181" data-name="Group 181" transform="translate(15.27 20.68)">
            <path id="Path_662" data-name="Path 662" d="M250.669,1065.3c-1.2.939-4.92.99-6.382,0s-3.193-4.816-1.664-6.094,8.046-1.249,9.111,0S251.866,1064.361,250.669,1065.3Z" transform="translate(-242.027 -1058.257)" fill="none" stroke="#241412" stroke-width="1"/>
            <path id="Path_663" data-name="Path 663" d="M303.655,1065.3c1.2.939,4.921.99,6.383,0s3.192-4.816,1.664-6.094-8.047-1.249-9.112,0S302.458,1064.361,303.655,1065.3Z" transform="translate(-289.028 -1058.257)" fill="none" stroke="#241412" stroke-width="1"/>
            <line id="Line_12" data-name="Line 12" x2="2.926" transform="translate(10.171 2.122)" fill="none" stroke="#241412" stroke-width="1"/>
          </g>
          <g id="Group_182" data-name="Group 182" transform="translate(0 41.748)">
            <path id="Path_664" data-name="Path 664" d="M248.877,1183.939l1.883-19.371a88.938,88.938,0,0,0-10.888-4.034c-.251,5.335-4.971,8.329-9.095,8.329a8.566,8.566,0,0,1-8.362-8.54,69.552,69.552,0,0,0-10.524,4.091s1.306,9.048,2.577,19.525Z" transform="translate(-203.189 -1159.149)" fill="#fcfcfd"/>
            <path id="Path_665" data-name="Path 665" d="M373.639,1244.106l.666-6.85c-.029.016-.061.028-.092.044-2.889,1.582-2.676,3.972-2.794,6.806Z" transform="translate(-327.951 -1219.316)" fill="#e4e3e3" style="mix-blend-mode: multiply;isolation: isolate"/>
            <path id="Path_666" data-name="Path 666" d="M221.641,1243.3a67.033,67.033,0,0,0-2-7.075c.286,2.211.588,4.606.887,7.075Z" transform="translate(-209.252 -1218.51)" fill="#e4e3e3" style="mix-blend-mode: multiply;isolation: isolate"/>
            <path id="Path_667" data-name="Path 667" d="M180.9,1198.012l1.721-5.151s4.827-16.378-1.958-14.374c-4.217,1.245-7.057,11.267-8.7,19.525Z" transform="translate(-171.955 -1173.221)" fill="#fcfcfd"/>
            <path id="Path_668" data-name="Path 668" d="M203.222,1231.026l1.721-5.151a52.3,52.3,0,0,0,1.214-5.344c-1.806,2.832-4.331,4.9-5.131,8.467-.152.682-.333,1.357-.523,2.028Z" transform="translate(-194.282 -1206.236)" fill="#e4e3e3" style="mix-blend-mode: multiply;isolation: isolate"/>
            <path id="Path_669" data-name="Path 669" d="M378.12,1198.536h8.946c-1.587-8.226-4.335-18.1-8.5-19.37-6.77-2.057-2.072,14.358-2.072,14.358Z" transform="translate(-330.676 -1173.745)" fill="#fcfcfd"/>
            <path id="Path_670" data-name="Path 670" d="M380.988,1238.952h3.206c-.223-.894-.467-1.779-.751-2.637-.883-2.667-2.906-3.975-4.873-5.65.4,1.9.788,3.275.788,3.275Z" transform="translate(-333.544 -1214.162)" fill="#e4e3e3" style="mix-blend-mode: multiply;isolation: isolate"/>
            <path id="Path_671" data-name="Path 671" d="M276.444,1155.654s-1.459,7.423-7.9,7.25c-6.467-.175-7.475-7.969-7.475-7.969l-.9,1.174s-.522,9.533,8.5,9.335,8.953-9.124,8.953-9.124Z" transform="translate(-240.936 -1154.935)" fill="#e4e3e3"/>
          </g>
        </g>
      </g>
    </g>
  </g>
</svg>
