<svg xmlns="http://www.w3.org/2000/svg" xmlns:xlink="http://www.w3.org/1999/xlink" width="75.001" height="75" viewBox="0 0 75.001 75">
  <defs>
    <clipPath id="clip-path">
      <path id="Path_743" data-name="Path 743" d="M898.712,1348.592a37.5,37.5,0,1,1,37.5,37.5A37.5,37.5,0,0,1,898.712,1348.592Z" transform="translate(-898.712 -1311.091)" fill="#5d394b"/>
    </clipPath>
  </defs>
  <g id="Group_199" data-name="Group 199" transform="translate(-898.712 -1311.091)">
    <g id="Group_198" data-name="Group 198" transform="translate(898.712 1311.091)">
      <path id="Path_702" data-name="Path 702" d="M898.712,1348.592a37.5,37.5,0,1,1,37.5,37.5A37.5,37.5,0,0,1,898.712,1348.592Z" transform="translate(-898.712 -1311.091)" fill="#5d394b"/>
      <g id="Group_197" data-name="Group 197" transform="translate(0 0)" clip-path="url(#clip-path)">
        <g id="Group_196" data-name="Group 196" transform="translate(6.358 9.445)">
          <path id="Path_703" data-name="Path 703" d="M1025.03,1545.685h15.938l1.6,3.112-18.58.333Z" transform="translate(-1003.049 -1504.006)" fill="#6d2014"/>
          <path id="Path_704" data-name="Path 704" d="M1010.725,1388.287c-4.442,5.317-10.089,7.095-12.305,7.095-2.264,0-8.384-1.559-12.951-7.095-2.586-3.136-4.4-12.124-5.084-16.434-.391-2.476-.708-7.732,1.029-10.37,2.724-4.139,7.826-7.05,16.35-7.05,3.225,0,7.76-.107,8.3,2.036a7.826,7.826,0,0,1,7.639,4.046,18.5,18.5,0,0,1,1.751,10.549C1014.925,1376.033,1013.391,1385.1,1010.725,1388.287Z" transform="translate(-968.704 -1354.432)" fill="#341e13"/>
          <path id="Path_705" data-name="Path 705" d="M983.415,1451.959s.53-4.116-3.04-3.109c-2.748.774.076,8.405,1.885,9.058,1.547.558,1.884-.629,1.884-.629Z" transform="translate(-968.04 -1428.149)" fill="#f9ab78"/>
          <path id="Path_706" data-name="Path 706" d="M1125.1,1451.959s-.528-4.116,3.041-3.109c2.747.774-.075,8.405-1.885,9.058-1.549.558-1.884-.629-1.884-.629Z" transform="translate(-1081.553 -1428.149)" fill="#f9ab78"/>
          <path id="Path_707" data-name="Path 707" d="M1015.035,1583.484l1.99-21.352a95.7,95.7,0,0,0-11.764-4.305,51.1,51.1,0,0,0-18.541,0,91.125,91.125,0,0,0-11.64,4.305s1.474,9.928,2.9,21.352Z" transform="translate(-964.796 -1512.831)" fill="#f9ab78"/>
          <path id="Path_708" data-name="Path 708" d="M1030.442,1538.3s10.015-6.836,9.414-7.165c-3.487-1.915-3.278-7.281-3.278-7.281l-12.622-.661s.8,7.713-2.941,8.667C1020.74,1531.928,1030.442,1538.3,1030.442,1538.3Z" transform="translate(-1000.715 -1486.415)" fill="#f9ab78"/>
          <path id="Path_709" data-name="Path 709" d="M1022.83,1385.637c-.6,4.516-1.055,6.923-3.4,10.317-3.908,5.659-8.876,7.552-10.825,7.552-1.992,0-7.377-1.659-11.395-7.552-2.274-3.338-2.653-6.219-3.27-10.317-.743-4.923-.8-3.185-.8-7.83,0-9.462,3.651-16.294,14.257-16.294s16.029,5.947,16.19,15.656C1023.677,1382.492,1023.494,1380.688,1022.83,1385.637Z" transform="translate(-978.921 -1359.97)" fill="#f9ab78"/>
          <path id="Path_710" data-name="Path 710" d="M995.629,1376.227c1.424-1.482,4.936-1.418,6.929-1.481,1.879-.055,6.4-.018,7.781-1.632,1.229-1.431,3.479-3.516,5.509-3.516,4.7,0,5.486,7,6.227,10.781.2,1.015.457,2.05.733,3.1.007-.055.014-.1.021-.16.663-4.95.847-3.145.758-8.468-.161-9.71-5.274-16.3-15.889-16.3s-14.558,7.478-14.558,16.94c0,4.431.053,3.07.7,7.2C994.75,1380.773,993.948,1377.979,995.629,1376.227Z" transform="translate(-978.921 -1357.65)" fill="#e2d3cd" style="mix-blend-mode: multiply;isolation: isolate"/>
          <path id="Path_711" data-name="Path 711" d="M997.67,1477.912c.528,3.457.576,5.946,2.614,8.934,4.017,5.894,9.872,7.693,11.864,7.693,1.949,0,7.424-1.87,11.333-7.532,2.119-3.066,2.183-5.354,2.719-9.1l-4.334,7.1s-3.037,3.9-6.933,5.348c-.838.31-2.172-2.658-3.015-2.658-1.063,0-2.136,3.039-3.21,2.572a25.411,25.411,0,0,1-7.132-5.263Z" transform="translate(-982.463 -1451.003)" fill="#341e13"/>
          <path id="Path_712" data-name="Path 712" d="M992.167,1374.766c3.516-2.656,16,.859,20.523-6.961,5.39.069,6.528,5.382,7.391,7.319s.841,8.361.865,8.193c.663-4.95,1.448-3.014,1.359-8.337-.161-9.712-5.875-16.434-16.49-16.434s-15.083,7.476-15.083,16.936c0,4.647.581,2.912,1.325,7.835C992.083,1383.485,990.869,1375.747,992.167,1374.766Z" transform="translate(-977.037 -1357.65)" fill="#341e13"/>
          <path id="Path_713" data-name="Path 713" d="M941.757,1601.341l1.928-5.848s5.139-17.7-2.175-15.5c-4.586,1.373-7.622,12.389-9.354,21.352Z" transform="translate(-931.226 -1530.687)" fill="#f9ab78"/>
          <path id="Path_714" data-name="Path 714" d="M1154.773,1601.341h9.6c-1.732-8.964-4.767-19.979-9.352-21.352-7.316-2.191-2.175,15.5-2.175,15.5Z" transform="translate(-1102.451 -1530.687)" fill="#f9ab78"/>
          <g id="Group_193" data-name="Group 193" transform="translate(33.987 22.991)">
            <path id="Path_715" data-name="Path 715" d="M1090.035,1460.694a2.915,2.915,0,0,1-.849,1.463c-.537.507-3.8.846-4.151.692-.515-.231-1.186-1.334-1.186-1.334a3.882,3.882,0,0,1,2.572-1.583A14.378,14.378,0,0,1,1090.035,1460.694Z" transform="translate(-1083.849 -1459.932)" fill="#fff"/>
            <path id="Path_716" data-name="Path 716" d="M1086.421,1460.242a12.707,12.707,0,0,1,3.168.616c.163.053.078.613-.2,1.079a2.072,2.072,0,0,0,.642-1.243,14.378,14.378,0,0,0-3.614-.762,3.882,3.882,0,0,0-2.572,1.583.574.574,0,0,0,.166.254A3.47,3.47,0,0,1,1086.421,1460.242Z" transform="translate(-1083.849 -1459.932)" fill="#341e13"/>
            <path id="Path_717" data-name="Path 717" d="M1092.5,1461.37a1.44,1.44,0,1,1-1.442-1.438A1.44,1.44,0,0,1,1092.5,1461.37Z" transform="translate(-1088.363 -1459.932)" fill="#341e13"/>
            <path id="Path_718" data-name="Path 718" d="M1097.462,1462.59c0,.61-1.712-1.1-1.1-1.1A1.1,1.1,0,0,1,1097.462,1462.59Z" transform="translate(-1093.531 -1461.148)" fill="#fff"/>
          </g>
          <path id="Path_719" data-name="Path 719" d="M1009.641,1443.61a10.92,10.92,0,0,1,2.5-1.082c1.878-.614,4.448.326,4.547.326.176,0,.434-.049.434-.532s-.141-.875-.317-.875a10.428,10.428,0,0,0-4.552-.036A6.042,6.042,0,0,0,1009.641,1443.61Z" transform="translate(-991.825 -1422.256)" fill="#341e13"/>
          <path id="Path_720" data-name="Path 720" d="M1091.328,1443.61a10.917,10.917,0,0,0-2.5-1.082c-1.878-.614-4.448.326-4.548.326-.177,0-.434-.049-.434-.532s.143-.875.318-.875a10.427,10.427,0,0,1,4.551-.036A6.043,6.043,0,0,1,1091.328,1443.61Z" transform="translate(-1049.861 -1422.256)" fill="#341e13"/>
          <g id="Group_194" data-name="Group 194" transform="translate(19.108 22.991)">
            <path id="Path_721" data-name="Path 721" d="M1015.573,1460.694a2.923,2.923,0,0,0,.851,1.463c.536.507,3.8.846,4.149.692.515-.231,1.186-1.334,1.186-1.334a3.879,3.879,0,0,0-2.569-1.583A14.379,14.379,0,0,0,1015.573,1460.694Z" transform="translate(-1015.573 -1459.932)" fill="#fff"/>
            <path id="Path_722" data-name="Path 722" d="M1019.189,1460.242a12.675,12.675,0,0,0-3.169.616c-.164.053-.08.613.193,1.079a2.075,2.075,0,0,1-.641-1.243,14.379,14.379,0,0,1,3.616-.762,3.879,3.879,0,0,1,2.569,1.583.57.57,0,0,1-.165.254A3.468,3.468,0,0,0,1019.189,1460.242Z" transform="translate(-1015.573 -1459.932)" fill="#341e13"/>
            <path id="Path_723" data-name="Path 723" d="M1024.974,1461.37a1.44,1.44,0,1,0,1.441-1.438A1.44,1.44,0,0,0,1024.974,1461.37Z" transform="translate(-1022.925 -1459.932)" fill="#341e13"/>
            <path id="Path_724" data-name="Path 724" d="M1025.923,1462.59c0,.61,1.712-1.1,1.1-1.1A1.1,1.1,0,0,0,1025.923,1462.59Z" transform="translate(-1023.667 -1461.148)" fill="#fff"/>
          </g>
          <path id="Path_725" data-name="Path 725" d="M1056.891,1478.741l-1.291-1.022,1.291-3.014Z" transform="translate(-1027.769 -1448.494)" fill="#da895d"/>
          <path id="Path_726" data-name="Path 726" d="M1043.73,1509.481l-.485-.47,8.693-.469-1.561.939Z" transform="translate(-1018.106 -1474.958)" fill="#da895d"/>
          <g id="Group_195" data-name="Group 195" transform="translate(0 41.679)">
            <path id="Path_727" data-name="Path 727" d="M938.941,1601.341l1.407-5.848s5.139-17.7-2.175-15.5c-4.591,1.376-8.458,12.386-10.284,21.352Z" transform="translate(-927.889 -1572.366)" fill="#c44927"/>
            <path id="Path_728" data-name="Path 728" d="M966.774,1648.207l1.407-5.848s.307-1.065.667-2.633c-1.73,2.013-3.3,6.146-4.388,7.443a12.832,12.832,0,0,1-.982,1.038Z" transform="translate(-955.722 -1619.232)" fill="#e4e3e3" style="mix-blend-mode: multiply;isolation: isolate"/>
            <path id="Path_729" data-name="Path 729" d="M1154.3,1601.341h10.437c-1.76-8.964-5.128-19.978-9.713-21.352-7.316-2.191-2.175,15.5-2.175,15.5S1153.6,1598.526,1154.3,1601.341Z" transform="translate(-1102.451 -1572.366)" fill="#c44927"/>
            <path id="Path_730" data-name="Path 730" d="M1182.117,1605.493h2.779c-1.536-7.824-4.3-17.209-8.025-20.383a42.783,42.783,0,0,1,4.746,12.467A29.331,29.331,0,0,1,1182.117,1605.493Z" transform="translate(-1122.612 -1576.518)" fill="#fff" opacity="0.4" style="mix-blend-mode: soft-light;isolation: isolate"/>
            <path id="Path_731" data-name="Path 731" d="M1157.947,1641.676h2.884c-1.481-2.092-2.588-5.465-3.66-10.3-.011-.048-1.379,1.528-1.414,1.5.387,1.742.738,2.954.738,2.954S1157.247,1638.862,1157.947,1641.676Z" transform="translate(-1106.099 -1612.701)" fill="#e4e3e3" style="mix-blend-mode: multiply;isolation: isolate"/>
            <path id="Path_732" data-name="Path 732" d="M1026.8,1575.889s2,1.736,8.924,1.736,8.924-1.736,8.924-1.736v10.784H1026.8Z" transform="translate(-1005.244 -1569.307)" fill="#fff"/>
            <path id="Path_733" data-name="Path 733" d="M1015.035,1585.83l1.99-21.352s-8.091-3.963-12.706-4.51c-3.807,9.276-9.377,13.1-9.377,13.1a48.173,48.173,0,0,1-9.2-12.772,65.982,65.982,0,0,0-10.659,4.178s1.474,9.928,2.9,21.352Z" transform="translate(-964.796 -1556.855)" fill="#c44927"/>
            <path id="Path_734" data-name="Path 734" d="M987.221,1649.254c-.264-.876-.547-1.746-.885-2.607a56.2,56.2,0,0,0-2.8-5.583c.34,2.544.7,5.322,1.059,8.19Z" transform="translate(-971.406 -1620.279)" fill="#e4e3e3" style="mix-blend-mode: multiply;isolation: isolate"/>
            <path id="Path_735" data-name="Path 735" d="M1070.062,1551.149l3.932-5.464,1.6,3.112s-2.363,9.374-9.377,13.1C1069.863,1558.673,1070.062,1551.149,1070.062,1551.149Z" transform="translate(-1036.074 -1545.685)" fill="#983c1f"/>
            <path id="Path_736" data-name="Path 736" d="M1073.993,1545.685l-.07.1a20.465,20.465,0,0,1-7.7,16.12c7.015-3.731,9.377-13.1,9.377-13.1Z" transform="translate(-1036.074 -1545.685)" fill="#e4e3e3" style="mix-blend-mode: multiply;isolation: isolate"/>
            <path id="Path_737" data-name="Path 737" d="M1029.741,1551.149l-4.711-5.464-1.038,3.445s2.188,9.041,9.2,12.772C1029.553,1558.673,1029.741,1551.149,1029.741,1551.149Z" transform="translate(-1003.049 -1545.685)" fill="#983c1f"/>
            <path id="Path_738" data-name="Path 738" d="M1028.371,1559.491a76.9,76.9,0,0,1-3.58-8.55c-.037-.091-.061-.183-.089-.274l-.71,2.359s2.188,9.041,9.2,12.772a8.233,8.233,0,0,1-1.947-2.769A13.371,13.371,0,0,1,1028.371,1559.491Z" transform="translate(-1003.049 -1549.581)" fill="#e4e3e3" style="mix-blend-mode: multiply;isolation: isolate"/>
            <path id="Path_739" data-name="Path 739" d="M1070.842,1632.425h-4.622V1621.5l1.111,9.9Z" transform="translate(-1036.075 -1604.978)" fill="#983c1f"/>
            <path id="Path_740" data-name="Path 740" d="M1075.561,1623.9a.915.915,0,1,1-.915-.915A.916.916,0,0,1,1075.561,1623.9Z" transform="translate(-1041.948 -1606.136)" fill="#fb9800"/>
            <path id="Path_741" data-name="Path 741" d="M1075.561,1640.325a.915.915,0,1,1-.915-.914A.916.916,0,0,1,1075.561,1640.325Z" transform="translate(-1041.948 -1618.986)" fill="#fb9800"/>
            <path id="Path_742" data-name="Path 742" d="M1075.561,1657.611a.915.915,0,1,1-.915-.916A.916.916,0,0,1,1075.561,1657.611Z" transform="translate(-1041.948 -1632.503)" fill="#fb9800"/>
          </g>
        </g>
      </g>
    </g>
  </g>
</svg>
