<svg xmlns="http://www.w3.org/2000/svg" width="17.69" height="17.69" viewBox="0 0 17.69 17.69">
  <g id="Group_7118" data-name="Group 7118" transform="translate(-235 -521)">
    <circle id="Ellipse_422" data-name="Ellipse 422" cx="8.845" cy="8.845" r="8.845" transform="translate(235 521)" fill="#3939f5"/>
    <g id="sand-clock-empty-icon" transform="translate(240 525)">
      <path id="Path_79892" data-name="Path 79892" d="M6.111,7.981A3.244,3.244,0,0,0,4.93,5.153,2.089,2.089,0,0,0,4.07,4.8a2.032,2.032,0,0,0-.9.059c-.973.289-1.8,1.327-1.786,3.121Zm-6.047,0H.742A3.625,3.625,0,0,1,2.694,4.354,3.626,3.626,0,0,1,.742.723H.064A.069.069,0,0,1,0,.651V.073A.069.069,0,0,1,.064,0H7.428a.069.069,0,0,1,.064.073V.651a.069.069,0,0,1-.064.073H6.75A3.856,3.856,0,0,1,5.294,4.08a2.763,2.763,0,0,1-.5.274,2.779,2.779,0,0,1,.5.275A3.855,3.855,0,0,1,6.75,7.981h.678a.069.069,0,0,1,.064.073v.578a.069.069,0,0,1-.064.073H.064A.069.069,0,0,1,0,8.632V8.054a.069.069,0,0,1,.064-.073ZM6.111.724H1.381c-.018,1.8.812,2.835,1.786,3.125a2.028,2.028,0,0,0,.9.059,2.087,2.087,0,0,0,.86-.352A3.246,3.246,0,0,0,6.111.724Z" transform="translate(0 0)" fill="#fff"/>
    </g>
  </g>
</svg>
