<svg xmlns="http://www.w3.org/2000/svg" width="32.211" height="31.885" viewBox="0 0 32.211 31.885">
  <g id="Layer_1" transform="translate(-1.834 -1.856)">
    <path id="Path_79548" data-name="Path 79548" d="M32.675,11.61,24.256,3.192a4.864,4.864,0,0,0-6.667-.028L3.232,17.291A4.683,4.683,0,0,0,3.2,23.939l8.42,8.42a4.748,4.748,0,0,0,6.667.028L32.646,18.258a4.683,4.683,0,0,0,.028-6.648Zm-2.23,4.412L16.091,30.151a1.653,1.653,0,0,1-2.247-.009l-2-2a3.127,3.127,0,0,0-4.416-4.418l-2-2a1.546,1.546,0,0,1,.009-2.191L19.791,5.4a1.611,1.611,0,0,1,2.247.009l2,2a3.126,3.126,0,0,0,4.416,4.416l2,2a1.544,1.544,0,0,1-.011,2.191Z" transform="translate(0 0)" fill="#01d866"/>
    <g id="Group_7115" data-name="Group 7115" transform="translate(9.854 9.862)">
      <path id="Path_79549" data-name="Path 79549" d="M14.253,22.785,6.944,15.477l8.866-8.52,7.309,7.307ZM9.184,15.5l5.09,5.088,6.6-6.342L15.788,9.156Z" transform="translate(-6.944 -6.957)" fill="#01d866"/>
    </g>
  </g>
</svg>
