<svg id="green-checkmark-icon" xmlns="http://www.w3.org/2000/svg" width="17.688" height="17.688" viewBox="0 0 17.688 17.688">
  <path id="Path_79550" data-name="Path 79550" d="M8.844,0A8.844,8.844,0,1,1,0,8.844,8.844,8.844,0,0,1,8.844,0ZM4.931,9.079a1.018,1.018,0,0,1,1.524-.7.983.983,0,0,1,.16.119l0,0c.278.266.59.544.9.819l.265.238,3.144-3.3a1.091,1.091,0,0,1,.607-.387,1.018,1.018,0,0,1,.959,1.687L8.574,11.675a1.025,1.025,0,0,1-1.425.054c-.227-.211-.475-.426-.725-.643-.433-.376-.875-.76-1.235-1.14a1.029,1.029,0,0,1-.258-.867Z" fill="#0fd678" fill-rule="evenodd"/>
</svg>
